<svg xmlns="http://www.w3.org/2000/svg" width="24" height="24" viewBox="0 0 24 24">
    <g fill="none" fill-rule="evenodd">
        <circle cx="12" cy="12" r="11.1" stroke="#282929" stroke-width="1.8"/>
        <path fill="#282929" fill-rule="nonzero" d="M14.185 6.602L12.818 6.6c-1.536 0-2.528 1.043-2.528 2.658v1.225H8.915a.218.218 0 0 0-.215.22v1.776c0 .122.096.22.215.22h1.375v4.48c0 .122.096.221.215.221h1.793a.218.218 0 0 0 .215-.22V12.7h1.607a.218.218 0 0 0 .215-.22v-1.776a.223.223 0 0 0-.062-.156.212.212 0 0 0-.152-.065h-1.608V9.445c0-.5.116-.753.751-.753h.921a.218.218 0 0 0 .215-.22v-1.65a.218.218 0 0 0-.215-.22z"/>
    </g>
</svg>
