<svg xmlns="http://www.w3.org/2000/svg" width="24" height="24" viewBox="0 0 24 24">
    <g fill="none" fill-rule="nonzero">
        <circle cx="12" cy="12" r="12" fill="#282929"/>
        <path fill="#686868" d="M10.245 8.463a1.982 1.982 0 1 1 1.981 1.982v1.982a3.964 3.964 0 0 0 0-7.927c-2.189 0-4.013 1.239-4.013 3.963v4.757h2.032V8.463z"/>
        <path fill="#686868" d="M8.213 13.864v1.04a4.459 4.459 0 0 0 4.459 4.46c2.462 0 4.459-1.6 4.459-4.46 0-2.858-2.442-4.459-4.905-4.459v1.982c1.368 0 2.923 1.109 2.923 2.478a2.477 2.477 0 0 1-2.477 2.476c-1.368 0-2.428-1.108-2.428-2.476v-1.041"/>
        <path fill="#FFF" d="M10.245 12.427v1.883H8.213v-1.883H4.2v-1.982h7.977c2.462 0 4.954 1.6 4.954 4.46 0 2.859-1.997 4.458-4.459 4.458v-1.982a2.477 2.477 0 0 0 2.477-2.476c0-1.369-1.604-2.478-2.972-2.478h-1.932z"/>
    </g>
</svg>
