<svg xmlns="http://www.w3.org/2000/svg" width="32" height="24" viewBox="0 0 32 24">
    <g fill="#282929" fill-rule="nonzero" stroke="#282929" stroke-width=".1">
        <path d="M19.9 11.652L13.513 8.16a1.163 1.163 0 0 0-1.16.02c-.36.213-.576.59-.576 1.008v6.928c0 .416.214.793.572 1.006a1.17 1.17 0 0 0 1.157.026l6.385-3.433a1.173 1.173 0 0 0 .007-2.062zm-6.428 3.591v-5.177l4.772 2.611-4.772 2.566z"/>
        <path d="M29.689 7.167l-.002-.014c-.024-.232-.268-2.301-1.274-3.354-1.162-1.238-2.48-1.388-3.114-1.46a7.646 7.646 0 0 1-.144-.018l-.05-.005C21.284 2.038 15.514 2 15.455 2H15.447c-.058 0-5.828.038-9.684.316l-.05.005-.136.017c-.627.072-1.93.223-3.097 1.505-.958 1.042-1.235 3.066-1.263 3.294l-.003.03A60.024 60.024 0 0 0 1 11.88v2.163c0 2.313.204 4.618.213 4.715l.001.014c.025.23.268 2.26 1.27 3.313 1.093 1.197 2.475 1.355 3.218 1.44.118.014.22.025.288.037l.067.01c2.206.21 9.123.313 9.416.317h.018c.058 0 5.828-.038 9.648-.316l.051-.005c.048-.007.102-.012.162-.018.623-.067 1.92-.204 3.07-1.47.958-1.04 1.235-3.065 1.264-3.293l.003-.03c.008-.096.213-2.4.213-4.714V11.88c0-2.313-.205-4.617-.213-4.714zm-1.481 6.877c0 2.141-.187 4.346-.205 4.549-.072.557-.364 1.839-.83 2.346-.72.792-1.46.87-2 .927a9.266 9.266 0 0 0-.18.02c-3.696.268-9.248.309-9.504.31-.287-.004-7.102-.108-9.241-.307a7.434 7.434 0 0 0-.353-.045c-.633-.073-1.5-.172-2.166-.905l-.016-.017c-.458-.478-.742-1.676-.814-2.323a59.184 59.184 0 0 1-.205-4.555V11.88c0-2.139.186-4.341.204-4.548.086-.657.384-1.86.831-2.347.742-.816 1.524-.906 2.041-.966.05-.006.096-.01.138-.016 3.75-.269 9.342-.309 9.543-.31.2.001 5.79.041 9.507.31l.149.017c.532.061 1.336.153 2.074.94l.007.007c.459.478.742 1.697.814 2.357.013.144.206 2.38.206 4.556v2.163z"/>
    </g>
</svg>
