<svg xmlns="http://www.w3.org/2000/svg" width="166" height="50" viewBox="0 0 166 50">
    <g fill="none" fill-rule="evenodd">
        <rect width="165" height="49" x=".5" y=".5" fill="#FFF" stroke="#202020" rx="7"/>
        <text fill="#202020" font-family="SFUIDisplay-Regular, SF UI Display" font-size="11.719" letter-spacing=".938">
            <tspan x="53.125" y="17.25">Download on th</tspan> <tspan x="145.975" y="17.25">e</tspan>
        </text>
        <text fill="#202020" font-family="SFUIDisplay-Medium, SF UI Display" font-size="22.656" font-weight="400">
            <tspan x="53.125" y="39.969">App Store</tspan>
        </text>
        <path fill="#202020" fill-rule="nonzero" d="M37.624 37.27c-1.37 1.995-2.789 3.979-5.028 4.02-2.203.042-2.91-1.3-5.424-1.3-2.517 0-3.304 1.259-5.385 1.342-2.161.08-3.805-2.156-5.187-4.143-2.824-4.062-4.979-11.486-2.08-16.497 1.435-2.488 4.007-4.062 6.794-4.104 2.123-.039 4.128 1.425 5.425 1.425 1.298 0 3.732-1.757 6.29-1.5 1.072.045 4.078.43 6.008 3.243-.152.1-3.588 2.09-3.546 6.235.042 4.952 4.359 6.598 4.41 6.62-.04.117-.691 2.35-2.277 4.658zm-9.4-26.196c1.185-1.383 3.187-2.411 4.84-2.48.21 1.92-.565 3.843-1.711 5.229-1.149 1.383-3.029 2.46-4.874 2.316-.25-1.878.68-3.838 1.745-5.065z"/>
    </g>
</svg>
