<svg xmlns="http://www.w3.org/2000/svg" width="524" height="396" viewBox="0 0 524 396">
    <defs>
        <linearGradient id="a" x1="50.001%" x2="50.001%" y1="100%" y2=".008%">
            <stop offset="0%" stop-color="gray" stop-opacity=".25"/>
            <stop offset="54%" stop-color="gray" stop-opacity=".12"/>
            <stop offset="100%" stop-color="gray" stop-opacity=".1"/>
        </linearGradient>
        <linearGradient id="b" x1="49.974%" x2="49.974%" y1="100.001%" y2="0%">
            <stop offset="0%" stop-color="gray" stop-opacity=".25"/>
            <stop offset="54%" stop-color="gray" stop-opacity=".12"/>
            <stop offset="100%" stop-color="gray" stop-opacity=".1"/>
        </linearGradient>
        <linearGradient id="c" x1="50.021%" x2="50.021%" y1="99.975%" y2="-.017%">
            <stop offset="0%" stop-color="gray" stop-opacity=".25"/>
            <stop offset="54%" stop-color="gray" stop-opacity=".12"/>
            <stop offset="100%" stop-color="gray" stop-opacity=".1"/>
        </linearGradient>
        <linearGradient id="d" x1="49.989%" x2="49.989%" y1="100%" y2="-.003%">
            <stop offset="0%" stop-color="gray" stop-opacity=".25"/>
            <stop offset="54%" stop-color="gray" stop-opacity=".12"/>
            <stop offset="100%" stop-color="gray" stop-opacity=".1"/>
        </linearGradient>
        <linearGradient id="e" x1="49.963%" x2="49.963%" y1="99.964%" y2=".021%">
            <stop offset="0%" stop-color="gray" stop-opacity=".25"/>
            <stop offset="54%" stop-color="gray" stop-opacity=".12"/>
            <stop offset="100%" stop-color="gray" stop-opacity=".1"/>
        </linearGradient>
    </defs>
    <g fill="none" fill-rule="evenodd">
        <path fill="#ECF6FC" fill-rule="nonzero" d="M6.11 187.016c8.28 32.273 25.813 60.17 53.522 73.691C117.24 288.812 247.08 274.316 344 257.68c50.146-8.607 94.191-32.342 126.206-65.787L6.109 187.016zM514.362 35.111h-53.178c-2.53 0-4.6-1.886-4.6-4.19 0-2.306 2.066-4.192 4.6-4.192h9.201c-2.53 0-4.6-1.886-4.6-4.191 0-2.305 2.066-4.186 4.6-4.186h-6.564c-2.53 0-4.601-1.887-4.601-4.192 0-2.304 2.066-4.19 4.6-4.19h27.755c-6.16-2.614-13.341-4.468-21.65-5.438-75.683-8.866-102.706-3.005-112.252 3.027a111.383 111.383 0 0 1-38.898 15.545c-46.695 8.782-134.022 19.35-213.175-3.386-39.339-11.294-68.575 7.82-86.103 39.707h504.098c-.658-9.275-2.627-17.84-6.243-25.335a4.821 4.821 0 0 1-2.99 1.021zM1.596 119.655a195.035 195.035 0 0 0 2.066 56.306l466.898 15.568A199.272 199.272 0 0 0 503 146.444L1.596 119.655zm184.652 40.167h-9.201c2.525 0 4.6 1.887 4.6 4.191 0 2.305-2.07 4.187-4.6 4.187h-53.155c-2.526 0-4.6-1.882-4.6-4.187 0-2.304 2.07-4.19 4.6-4.19h9.201c-2.525 0-4.6-1.887-4.6-4.192s2.07-4.19 4.6-4.19h-6.574c-2.526 0-4.6-1.882-4.6-4.187 0-2.305 2.07-4.191 4.6-4.191h53.178c2.53 0 4.6 1.886 4.6 4.19 0 2.306-2.066 4.187-4.6 4.187h6.55c2.531 0 4.601 1.886 4.601 4.191 0 2.305-2.056 4.191-4.6 4.191zM523.618 59.715L13.88 71.018C7.67 85.551 3.56 101.98 1.665 119.011h513.019c3.34-9.965 5.818-20.2 7.407-30.589 1.527-10.01 2.139-19.69 1.527-28.707zM105.163 96.754h-9.2c2.525 0 4.6 1.886 4.6 4.19 0 2.306-2.07 4.192-4.6 4.192H42.788c-2.525 0-4.6-1.886-4.6-4.191 0-2.305 2.07-4.191 4.6-4.191h9.202c-2.526 0-4.601-1.882-4.601-4.187 0-2.305 2.07-4.19 4.6-4.19h-6.574c-2.525 0-4.6-1.887-4.6-4.192s2.07-4.191 4.6-4.191h53.178c2.53 0 4.6 1.886 4.6 4.191 0 2.305-2.065 4.191-4.6 4.191h6.57c2.525 0 4.6 1.886 4.6 4.191 0 2.305-2.075 4.187-4.6 4.187z"/>
        <ellipse cx="306.091" cy="345.012" fill="#ECF6FC" fill-rule="nonzero" rx="34.61" ry="7.77"/>
        <ellipse cx="386.513" cy="369.689" fill="#ECF6FC" fill-rule="nonzero" rx="62.438" ry="5.125"/>
        <ellipse cx="135.817" cy="361.919" fill="#ECF6FC" fill-rule="nonzero" rx="62.438" ry="7.77"/>
        <ellipse cx="231.015" cy="323.021" fill="#ECF6FC" fill-rule="nonzero" rx="46.981" ry="7.77"/>
        <ellipse cx="244.132" cy="387.742" fill="#ECF6FC" fill-rule="nonzero" rx="37.609" ry="7.77"/>
        <path fill="url(#a)" fill-rule="nonzero" d="M266.122 138.168c-.994-6.69-7.07-22.3-7.07-22.3-.107-.46-.226-.92-.36-1.38-4.31-14.813-10.277-16.101-10.277-16.101l-21.374-4.6c.179.111.335.257.46.427-.113.01-.225.028-.336.05a8.373 8.373 0 0 1-1.873-4.048c-.041-.22-.078-.46-.105-.685a15.035 15.035 0 0 0-1.91-23.109c1.008-1.072 1.04-2.562.286-4.053-1.684-3.496-5.346-5.709-9.11-6.79-2.875-.824-5.98-1.09-8.842-.189-1.624.516-3.105 1.38-4.628 2.149-2.838 1.417-5.98 2.54-8.101 4.872-.497.543-.957 1.237-.81 1.955.11.534.534.948.805 1.422.612 1.062.46 2.401.041 3.56-.418 1.16-1.03 2.236-1.32 3.423-.29 1.187-.18 2.586.713 3.437.428.33.874.637 1.334.92.489.416.918.897 1.275 1.43a579.44 579.44 0 0 1 2.53 3.419 35.212 35.212 0 0 1 3.17 4.817c.63 1.242 1.118 2.567 1.96 3.68.246.325.529.621.841.883l-.248-.096a3.832 3.832 0 0 0 2.811 1.145h.129a.773.773 0 0 0 .515-.211v.46c.05 1.642.041 3.39-.074 5.033l-.197-.102a1.725 1.725 0 0 0-1.84.194l-19.677 15.789s-4.279 5.851-3.68 15.954l-3.45 15.15s-4.312 12.854-.995 22.032 5.24 14.427 5.24 14.427 1.325 10.43 3.317 11.28c1.992.852 2.853 1.312 2.853 1.312l.395 2.493s.134.244.368.653c1.45 2.521 6.818 11.419 9.938 10.467.392 2.416.562 4.863.506 7.31l3.087 20.725s2.153 5.636 2.02 8.59c-.134 2.953 2.511 7.162 2.511 7.162a13.687 13.687 0 0 0-1.325 9.638c1.26 5.521 2.852 30.953 2.852 30.953l2.3 6.165-.064 7.227a6.9 6.9 0 0 1-1.426 3.22c-1.49 1.62-1.38 3.492-4.973 5.705s-5.87 3.05-5.87 5.98a7.692 7.692 0 0 1-.11 1.22c-.332 2.153-.976 3.321 5.63 3.947 7.761.736 12.937-4.324 12.937-4.324s1.141-2.07 6.514-2.908c0 0 1.84-.097 1.937-1.72.037-.562.028-1.634 0-2.816-.087-2.25-.303-4.877-.589-5.005-.359-.162-.984-2.425-1.2-3.244h1.495s1.38-10.43 0-17.183-.134-11.543-.134-11.543l-.266-17.836s-1.84-1.969-.396-5.447c1.444-3.478 0-20.656 0-20.656s.534-6.165 2.056-7.61c1.523-1.444.074-9.03 0-9.426l2.715 9.105s1.191 18.098 3.717 21.374l.727 8.198s5.17 7.545 4.177 11.607c-.994 4.062 1.063 18.756 1.063 18.756v15.02s-2.324 6.032.92 8.199l1.38-.055c-.46.428-.814 1.072-1.353 1.628-.62.64-.975 3.074-1.173 5.167a65.007 65.007 0 0 0-.22 3.294s1.38 2.208 3.979 2.36c2.6.152 11.165 6.666 11.165 6.666s8.46 0 10.65-.46l.13-.032a2.875 2.875 0 0 0 1.651-1.348 3.45 3.45 0 0 0 .396-2.48c-.272-1.293-1.298-2.71-3.57-3.915-5.654-2.981-6.496-5.774-6.496-5.774l-3.713-5.57h.53s-.327-5.903 3.712-12.528l-.262-29.181s1.656-10.034-1.192-15.481c0 0-.235-5.769 1.67-7.54 1.905-1.771-2.535-19.672-2.535-19.672s-.92-9.61-2.001-18.38c4.476 4.247 9.118-11.04 9.9-13.76h.115l-.05-.197c.032-.129.05-.193.05-.193s-.993-3.534-.267-2.816c.727.718 2.522-1.969 2.522-1.969s-.267-14.625 2.852-21.995c3.119-7.37-1.385-25.321-1.385-25.321zm-13.341 9.306l.023-.04c.46 8.929-.088 27.984-.088 27.984s-.616 2.443-1.274 5.318l-.46-18.103-.46-17.054 2.259 1.895zm-57.098-6.155s2.255 28.197 0 32.263c-.64 1.16-1.177 3.22-1.624 5.572-.745-1.956-2.323-6.547-1.757-8.98.732-3.147-1.458-11.414-1.458-11.608 0-.193-.198-4.6 1.38-7.968 1.578-3.367.543-4.826.543-4.826s1.325-5.52 2.916-4.453z"/>
        <path fill="#D38884" fill-rule="nonzero" d="M201.176 204.825c-1.964 8.635-9.776-4.421-11.556-7.554-.23-.41-.359-.65-.359-.65l.847-3.97 4.476-1.84c.709.37 1.38.808 2.006 1.307 2.452 1.928 6.1 6.017 4.586 12.707zM261.78 190.696s0 .065-.051.194c0 .055-.037.128-.06.207-.769 2.696-5.323 17.873-9.721 13.659-4.812-4.6-2.475-15.237-2.475-15.237h.032l10.121-1.035 2.006 2.06.147.152z"/>
        <path fill="#444053" fill-rule="nonzero" d="M255.923 265.386l.257 28.983c-3.97 6.58-3.643 12.422-3.643 12.422l-13.084.515c-3.193-2.148-.92-8.134-.92-8.134v-14.924s-2.02-14.579-1.045-18.618c.976-4.04-4.099-11.502-4.099-11.502l-.717-8.138c-2.475-3.252-3.649-21.217-3.649-21.217l-2.654-9.073c.074.391 1.454 7.964 0 9.358-1.454 1.394-2.02 7.55-2.02 7.55s1.431 17.058 0 20.504c-1.43 3.446.387 5.405.387 5.405l.262 17.708s-1.238 4.752.129 11.455c1.366 6.703 0 17.059 0 17.059H211.09l.064-7.228-2.273-6.118s-1.564-25.257-2.801-30.727a13.728 13.728 0 0 1 1.297-9.57s-2.6-4.163-2.47-7.093c.128-2.93-2.006-8.52-2.006-8.52l-3.028-20.57a39.96 39.96 0 0 0-1.5-11.717c-1.757-5.861-4.36-13.544-4.36-13.544l2.94.262 14.831 1.32s36.064-2.424 37.679-.409c.34.659.57 1.37.68 2.103 1.62 7.273 3.76 30.06 3.76 30.06s4.36 17.771 2.488 19.529c-1.872 1.757-1.642 7.48-1.642 7.48 2.806 5.406 1.173 15.389 1.173 15.389z"/>
        <path fill="#B07473" fill-rule="nonzero" d="M225.435 315.73c-.101 1.614-1.9 1.71-1.9 1.71-5.272.829-6.395 2.88-6.395 2.88s-5.06 5.03-12.693 4.298c-6.486-.626-5.856-1.78-5.52-3.92.065-.398.1-.801.106-1.205 0-2.93 2.245-3.763 5.76-5.98 3.514-2.218 3.418-4.054 4.88-5.664 1.464-1.61 1.615-4.734 1.615-4.734 1.657-2.885 5.857.46 5.857.46.198 1.021 6.44.879 6.44.879s.829 3.321 1.257 3.514c.28.13.492 2.733.575 4.969.046 1.173.055 2.236.018 2.793z"/>
        <path fill="#000" fill-rule="nonzero" d="M225.435 315.73c-.101 1.614-1.9 1.71-1.9 1.71-5.272.829-6.395 2.88-6.395 2.88s-5.06 5.03-12.693 4.298c-6.486-.626-5.856-1.78-5.52-3.92 2.898.718 8.437 1.72 11.671-.037 4.495-2.438 7.72-4.14 7.72-4.14l7.103-3.575c.042 1.164.05 2.227.014 2.784z" opacity=".1"/>
        <path fill="#B07473" fill-rule="nonzero" d="M265.17 324.42a2.806 2.806 0 0 1-1.62 1.339l-.124.032c-2.148.46-10.452.46-10.452.46s-8.396-6.491-10.936-6.639c-2.54-.147-3.906-2.346-3.906-2.346s.051-1.509.212-3.266c.198-2.08.543-4.495 1.155-5.13 1.122-1.173 1.38-2.76 3.906-1.757 0 0 3.606-6.358 7.857-1.445l4.398 6.671s.829 2.76 6.4 5.755c2.226 1.196 3.22 2.604 3.5 3.888a3.427 3.427 0 0 1-.39 2.438z"/>
        <path fill="#000" fill-rule="nonzero" d="M265.17 324.42c-.497.419-1.045.87-1.62 1.339l-.124.032c-2.148.46-10.452.46-10.452.46s-8.396-6.491-10.936-6.639c-2.54-.147-3.906-2.346-3.906-2.346s.051-1.509.212-3.266c2.586.773 6.5 2.139 7.55 3.611 1.61 2.24 6.5 5.369 6.5 5.369s9.118-.879 13.167-.998a3.427 3.427 0 0 1-.391 2.438z" opacity=".1"/>
        <path fill="#D38884" fill-rule="nonzero" d="M229.686 97.25l-12.007 12.693s-14.552-1.072-12.012-5.368c1.292-2.19 1.495-6.772 1.38-10.756-.106-3.842-.502-7.113-.502-7.113s20.408-10.158 18.862-.685a15.591 15.591 0 0 0-.055 5.405c.87 4.785 4.334 5.825 4.334 5.825z"/>
        <path fill="#000" fill-rule="nonzero" d="M225.389 86.02a15.591 15.591 0 0 0-.055 5.406 14.98 14.98 0 0 1-10.683 4.458c-2.76 0-5.746-2.268-7.977-3.579a443.369 443.369 0 0 1-.129-5.599s20.408-10.158 18.844-.685z" opacity=".1"/>
        <path fill="#D38884" fill-rule="nonzero" d="M229.686 80.063a15.04 15.04 0 1 1-30.078.01 15.04 15.04 0 0 1 30.078-.01z"/>
        <path fill="#000" fill-rule="nonzero" d="M250.144 192.928c-3.744 8.91-27.833 9.095-27.833 9.095v-9.716l-1.458-.097c.63 2.783-.883 9.57-.883 9.57-19.037 2.686-23.68-8.162-23.68-8.162l.663-3.713 14.832 1.32s36.064-2.424 37.679-.409c.341.662.571 1.375.68 2.112z" opacity=".1"/>
        <path fill="#3129E2" fill-rule="nonzero" d="M222.311 200.85v-9.717l-1.458-.092c.63 2.76-.883 9.57-.883 9.57-14.326 2.02-20.5-3.621-22.676-6.538a8.902 8.902 0 0 1-1.003-1.62l5.815-32.709 1.38-48.14 2.084-8.446.483-4.053v-.046h.05l1.482.634 8.865 3.833 10.07-7.605.148-.106.501-.382.833.667 2.07 1.661 6.639 42.873s11.501 33.008 13.654 46.331c.088.534.157 1.03.212 1.496 1.421 12.163-28.266 12.389-28.266 12.389z"/>
        <circle cx="217.527" cy="104.473" r="1" fill="#67647E" fill-rule="nonzero"/>
        <circle cx="217.922" cy="112.285" r="1" fill="#67647E" fill-rule="nonzero"/>
        <circle cx="218.778" cy="124.932" r="1" fill="#67647E" fill-rule="nonzero"/>
        <circle cx="220.19" cy="138.554" r="1" fill="#67647E" fill-rule="nonzero"/>
        <circle cx="221.046" cy="151.344" r="1" fill="#67647E" fill-rule="nonzero"/>
        <circle cx="221.902" cy="164.966" r="1" fill="#67647E" fill-rule="nonzero"/>
        <circle cx="221.561" cy="178.441" r="1" fill="#67647E" fill-rule="nonzero"/>
        <path fill="#000" fill-rule="nonzero" d="M206.623 164.501s-.956 12.527-2.714 16.17c-1.757 3.645-2.54 13.867-2.54 13.867l-4.08-.46a8.902 8.902 0 0 1-1.003-1.62l5.815-32.71 1.38-48.14 2.089-8.45.483-4.053.055-.023c.462-.219 1-.21 1.454.023l.193.1c-.058.166-.113.337-.165.511-1.592 4.983-2.186 14.165-2.186 14.165s2.3 16.797 2.54 24.609c.239 7.811-1.32 26.011-1.32 26.011z" opacity=".1"/>
        <path fill="#000" fill-rule="nonzero" d="M196.59 192.132a2.36 2.36 0 0 1-.157.303c-1.582 2.673-5.594 4.37-6.813 4.836-.23-.41-.359-.65-.359-.65l.847-3.97 4.476-1.84c.71.375 1.381.817 2.006 1.32z" opacity=".1"/>
        <path fill="#67647E" fill-rule="nonzero" d="M185.746 128.203l-3.712 2.213-3.382 15.039s-4.232 12.757-.98 21.87c3.253 9.114 5.144 14.331 5.144 14.331s1.302 10.352 3.257 11.198c1.955.847 2.797 1.302 2.797 1.302l.391 2.475s5.3-1.799 7.172-4.968c1.873-3.17-1.38-11.042-1.38-11.042s-2.797-6.707-2.08-9.831c.718-3.124-1.435-11.327-1.435-11.501 0-.175-.193-4.56 1.38-7.913 1.574-3.354.525-4.785.525-4.785l-.98-9.569-6.717-8.82z"/>
        <path fill="#000" fill-rule="nonzero" d="M250.453 190.112s-9.832 3.708-12.955.46c-3.124-3.248-2.802-18.49-2.802-18.49s-2.99-28.122-4.881-32.741c-1.891-4.62-.92-37.955-.92-37.955s-1.27-4.31-2.379-5.437a1.205 1.205 0 0 0-.234-.189l.381.083 1.335.285 2.07 1.66 6.638 42.873s11.502 33.009 13.655 46.332l.092 3.12z" opacity=".1"/>
        <path fill="#000" fill-rule="nonzero" d="M261.78 191.087h-.111c-1.238.161-12.16 1.482-12.205-.79a6.657 6.657 0 0 1 .041-.787l10.121-1.036 2.006 2.061c.037.134.064.249.092.34l.055.212z" opacity=".1"/>
        <path fill="#67647E" fill-rule="nonzero" d="M251.3 113.14l7.176 3.746s5.98 15.485 6.938 22.124c0 0 4.43 17.785 1.38 25.1-3.05 7.315-2.797 21.834-2.797 21.834s-1.758 2.668-2.475 1.955c-.718-.713.262 2.797.262 2.797s-12.27 1.629-12.32-.782c-.051-2.41 2.815-13.93 2.815-13.93s.782-27.405-.327-31.702c-1.108-4.297-.653-31.141-.653-31.141z"/>
        <path fill="#000" fill-rule="nonzero" d="M229.884 142.331s-4.04 9.891-5.341 10.545c-1.302.653.262 3.252.262 3.252s7.356-10.282 5.079-13.797zM227.473 107.634c.046-.189-4.817 4.77-6.119 5.52-1.302.75 4.753-.045 6.119-5.52zM213.934 141.549s-7.421 4.798-6.441 6.698c.98 1.9 6.44-6.698 6.44-6.698zM227.409 211.592s6.316 4.062 16.143 5.06l-16.143-5.06zM212.24 221.359s5.857 7.36 8.53 7.55c2.673.188-8.53-7.55-8.53-7.55zM220.443 250.204c-.262.13-3.321 6.639-6.44 6.837-3.12.197 6.44-6.837 6.44-6.837zM247.587 264.466s5.805-1.302 7.098 2.861c0-.013-.39-1.315-7.098-2.861zM243.68 288.278s7.035-1.435 8.53.52c1.495 1.955-8.53-.52-8.53-.52zM223.783 291.609c0 .064-7.158 1.435-6.9 2.346.257.911 7.637.782 7.899-.653a1.38 1.38 0 0 0-.999-1.693zM241.339 297.783s11.764-1.435 11.041 1.04c-.722 2.475-11.041-1.04-11.041-1.04zM179.756 152.876c.065.193 7.748 1.237 8.787 3.712 0 0-7.55-3.52-8.74-3.52M190.563 172.989s-6.38 2.02-5.925 5.06c.455 3.042-.65-1.407 5.925-5.06zM187.591 188.484s2.323-3.189 4.536-2.604c2.213.584-4.536 2.604-4.536 2.604zM224.027 68.313a3.62 3.62 0 0 1-.745.557c-1.84 1.072-2.346 2.723-3.22 4.628-.815 1.744-1.712 3.588-3.354 4.578-2.121 1.278-4.914.81-7.117 1.923a5.52 5.52 0 0 0-2.945 5.442c.14.847.35 1.68.626 2.493.501 1.76.728 3.587.672 5.415a.92.92 0 0 1 0 .161 15.035 15.035 0 1 1 16.102-25.197h-.019z" opacity=".1"/>
        <path fill="#585268" fill-rule="nonzero" d="M223.636 63.786c-1.651-3.468-5.244-5.668-8.939-6.74-2.82-.814-5.884-1.08-8.68-.183-1.597.506-3.046 1.38-4.542 2.13-2.787 1.407-5.851 2.52-7.95 4.835-.491.538-.92 1.228-.795 1.941.106.53.52.92.787 1.408.602 1.058.46 2.388.041 3.538-.419 1.15-1.012 2.217-1.297 3.4-.286 1.182-.175 2.567.699 3.408.39.373.892.608 1.316.92.478.414.897.89 1.246 1.418l2.485 3.395a34.435 34.435 0 0 1 3.11 4.78c.616 1.233 1.095 2.548 1.923 3.648.828 1.1 2.116 1.983 3.487 1.863a.676.676 0 0 0 .552-.262.727.727 0 0 0 .069-.345 17.657 17.657 0 0 0-.658-5.397 15.573 15.573 0 0 1-.626-2.493 5.544 5.544 0 0 1 2.945-5.442c2.208-1.114 5-.645 7.117-1.919 1.647-.994 2.544-2.838 3.354-4.6.887-1.905 1.38-3.557 3.22-4.629 1.84-1.071 2.052-2.847 1.136-4.674z"/>
        <path fill="#000" fill-rule="nonzero" d="M216.901 309.579s2.3 2.93 1.702 4.6c-.598 1.67-1.702-4.6-1.702-4.6zM248.024 316.912s.51-3.929 2.557-3.966c2.048-.037 2.149-.211 3.713.391 1.564.603 3.032 1.537 2.563 1.675-.47.138-2.692-2.245-4.974-1.026a16.433 16.433 0 0 0-3.86 2.926zM210.037 108.453l6.44-4.513s-9.421-5.567-10.544-4.785c-1.122.782-1.895 7.821-1.895 7.821l5.999 1.477z" opacity=".1"/>
        <path fill="#E1E7EF" fill-rule="nonzero" d="M210.01 108.163l6.44-4.6s-9.422-5.567-10.544-4.785c-1.123.782-1.896 8.207-1.896 8.207l6 1.178z"/>
        <path fill="#3129E2" fill-rule="nonzero" d="M210.01 108.163l6.44-4.6s-9.422-5.567-10.544-4.785c-1.123.782-1.896 8.207-1.896 8.207l6 1.178z"/>
        <path fill="#67647E" fill-rule="nonzero" d="M206.973 98.815l-.193-.097a1.67 1.67 0 0 0-1.808.189L185.65 114.58s-4.2 5.81-3.616 15.835l11.395 16.143s1.302-5.465 2.862-4.426c0 0 2.213 27.994 0 32.03-2.213 4.034-3.188 19.137-3.188 19.137l7.485.847s.782-10.223 2.54-13.866c1.756-3.644 2.713-16.171 2.713-16.171s1.583-18.2 1.32-26.011c-.262-7.812-2.539-24.609-2.539-24.609s.64-9.845 2.351-14.675z"/>
        <path fill="#000" fill-rule="nonzero" d="M226.222 105.6l-8.028-2.971s10.222-11.198 11.501-4.987l-3.473 7.958z" opacity=".1"/>
        <path fill="#E1E7EF" fill-rule="nonzero" d="M226.222 105.21l-8.028-2.972s10.222-11.198 11.501-4.987l-3.473 7.958z"/>
        <path fill="#3129E2" fill-rule="nonzero" d="M226.222 105.21l-8.028-2.972s10.222-11.198 11.501-4.987l-3.473 7.958z"/>
        <path fill="#000" fill-rule="nonzero" d="M225.96 95.682a.46.46 0 0 1 .33.073l-.33-.073z" opacity=".1"/>
        <path fill="#67647E" fill-rule="nonzero" d="M226.732 94.904l21.3 4.6s5.862 1.303 10.094 16.015c4.233 14.713-5.796 32.738-5.796 32.738l-2.213-1.882 1.109 42.964s-9.832 3.708-12.956.46c-3.123-3.248-2.797-18.503-2.797-18.503s-2.995-28.118-4.885-32.742c-1.891-4.623-.92-37.95-.92-37.95s-1.74-5.957-2.936-5.7z"/>
        <path fill="#000" fill-rule="nonzero" d="M246.22 122.282c-.299.276-.648 13.277.653 23.173a126.284 126.284 0 0 0 3.68 17.836l-1.931-39.643s-1.49-2.212-2.402-1.366zM243.616 111.084c.52.327 2.802 5.728 1.758 7.94-1.045 2.214-1.758-7.94-1.758-7.94zM223.512 63.786a11.759 11.759 0 0 0-4.683-4.904 11.138 11.138 0 0 1 3.51 4.14c.92 1.84.649 3.681-1.141 4.689-1.79 1.007-2.346 2.723-3.22 4.628-.815 1.743-1.712 3.588-3.359 4.6-2.116 1.28-4.909.805-7.117 1.919a5.557 5.557 0 0 0-2.944 5.447c.141.845.352 1.678.63 2.489.501 1.76.728 3.586.672 5.414a.727.727 0 0 1-.074.345.658.658 0 0 1-.547.263 3.17 3.17 0 0 1-1.606-.3 3.736 3.736 0 0 0 2.76 1.082.543.543 0 0 0 .617-.608 17.652 17.652 0 0 0-.667-5.414 15.113 15.113 0 0 1-.63-2.494 5.544 5.544 0 0 1 2.944-5.442c2.208-1.114 5-.644 7.117-1.919 1.647-.993 2.544-2.838 3.354-4.6.888-1.905 1.38-3.556 3.22-4.628 1.84-1.072 2.084-2.88 1.164-4.707z" opacity=".1"/>
        <path fill="url(#b)" fill-rule="nonzero" d="M354.567 121.56c-6.34-.124-11.934-4.6-15.103-10.07a10.121 10.121 0 0 1-1.528-4.312c.022-.348.08-.694.175-1.03.194-.513.348-1.041.46-1.578a2.76 2.76 0 0 0 0-.644v-.037c.152-1.164-.533-2.3-1.38-3.096-.846-.796-1.91-1.38-2.793-2.172-2.723-2.392-3.551-6.229-3.602-9.881v-.194c.032-1.564.157-3.133.143-4.697a19.75 19.75 0 0 0-.115-2.659c-.262-2.213-1.104-4.467-2.843-5.88-4.536-3.68-12.164.152-16.861-3.326-1.141-.85-2.066-2.107-3.45-2.438-1.045-.253-2.13.088-3.152.428-3.46 1.14-7.32 2.64-8.672 5.98-.773 1.92-.557 4.109-1.265 6.05-.46 1.302-1.339 2.42-1.978 3.653a5.718 5.718 0 0 0-.736 3.05c-.057.552.02 1.11.225 1.624a4.14 4.14 0 0 0 1.127 1.615 5.36 5.36 0 0 1-.672 1.077c-.883 1.08-2.24 1.84-3.16 2.916-1.702 1.974-1.638 4.656-.8 6.975.837 2.318 2.35 4.43 3.395 6.689.46.98.81 2.075.345 3.05-.327.676-1.003 1.192-1.528 1.776a5.58 5.58 0 0 0-1.38 3.082c-10.356 2.365-10.365 10.687-10.365 10.687l-5.594 14.069s-.897 2.369-1.95 5.497l-6.62-1.187 4.6 7.702c-.87 3.137-1.486 6.045-1.284 7.508 0 0-2.056 9.66 1.601 11.35l8.07 3.629c.349.214.725.383 1.117.501l.327.148a.865.865 0 0 0 .754 0H280.186c.156.01.313-.013.46-.07a.92.92 0 0 0 .405-.436.138.138 0 0 1 0-.046l2.415-.7 2.047 2.425c.92.649 1.84 1.21 2.71 1.716l-3.17 31.477s-.51 41.864-2.056 51.406c-.57 3.533-.575 5.944-.359 7.582l-.06.1c.382 2.692 1.38 3.221 1.38 3.221v-.037a.299.299 0 0 0 .06.037 27.102 27.102 0 0 1 1.656-3.551v.69c-.032 3.551-.142 8.524-.51 11.759-.626 5.52 1.6 23.715 1.6 23.715l.769 16.562a15.31 15.31 0 0 1-1.886 8.07c-1.84 3.307-4.191 7.963-4.362 10.029a2.07 2.07 0 0 0 0 .336l-3.947 4.747s-1.541 2.383 1.942 3.345c1.872.52 5.102 0 7.696-.612a5.143 5.143 0 0 0 3.989-5.005 17.712 17.712 0 0 1 3.257-6.253l.649 3.814 4.343 1.077.556-10.453a4.6 4.6 0 0 0 .3-1.84c.855-7.434-2.016-6.767-2.016-6.767a.4.4 0 0 1 .138.257l-.138-.253c-1.762-3.478-.92-9.2-.92-9.2s2.3-16.562 3.087-20.938c.566-3.091.331-13.212.143-18.862 0-.234 0-.46-.023-.685 6.735-.088 14.988-.313 20.78-.874v.68l-1.067 39.128a21.48 21.48 0 0 1-1.5 7.278c0 .046-.032.087-.05.133a31.744 31.744 0 0 0-2.121 10.255l-.497 12.421v.346c-.865.33-2.231 1.292-2.268 4.08-.06 4.085 7.14 2.724 7.14 2.724 7.195 0 7.255-7.49 7.255-7.49s.225-6.869.57-11.464c.345-4.596-1.085-3.584-1.085-3.584l-.11 13.074v.102-11.46l.11-1.661V327.36l.906-13.484s6.63-22.47 7.655-26.78c.732-3.064.428-12.293.189-17.395 0-.234 0-.46-.037-.676a53.724 53.724 0 0 1 4.6-.202h.336s-.34-36.087-1.2-49.686c-.86-13.6-2.227-26.044-5.654-29.789-2.07-2.263-4.955-9.251-6.901-14.427a72.173 72.173 0 0 0 12.684 4.14c10.852 2.273 9.366-7.149 9.366-7.149l-1.1-17.817h.074a90.851 90.851 0 0 0-1.196-13.93c-.575-3.534-1.454-7.187-2.797-10.122a83.887 83.887 0 0 0 3.483-1.458c2.949-1.302 6.27-3.147 6.693-6.326h-.142c.057-.23.094-.463.11-.7zm-67.273 25.763c.023 1.84-.046 5.033-.157 8.561l-3.446-4.6 3.455-5.604.148 1.643zm47.606 16.304l-5.742-1.84a25.763 25.763 0 0 1 3.547-4.39l.497-.46-.18.038.277-.253.166-.037-.263.253.313-.065a9.795 9.795 0 0 0 1.955 3.934c2.061 2.25-.565 2.82-.565 2.82h-.005z"/>
        <path fill="#A27772" fill-rule="nonzero" d="M300.023 329.241l-.671 12.735-4.283-1.072-.902-5.296z"/>
        <path fill="#000" fill-rule="nonzero" d="M300.023 329.241l-.671 12.735-4.283-1.072-.902-5.296z" opacity=".1"/>
        <path fill="#FBBEBE" fill-rule="nonzero" d="M315.743 343.664l6.533 1.353 4.844-4.279V328.68l.11-1.647V326.633l.903-13.402s6.537-22.307 7.554-26.59c.717-3.037.418-12.201.18-17.266-.098-2.075-.18-3.465-.18-3.465l-14.423-3.491-.304 11.087-1.053 38.847a21.526 21.526 0 0 1-1.477 7.227l-.05.134a31.615 31.615 0 0 0-2.094 10.176l-.487 12.352v.34l-.056 1.082z"/>
        <path fill="#000" fill-rule="nonzero" d="M327.23 326.642v.34-.35zM315.743 343.664l6.533 1.353 4.844-4.279v-1.026a1.38 1.38 0 0 1-.694 1.104l-.07.042a13.02 13.02 0 0 1-7.332 1.449l-2.55-.216c-.231.021-.46.077-.675.165v.34l-.056 1.068z" opacity=".1"/>
        <path fill="#B07473" fill-rule="nonzero" d="M326.357 341.193l.069-.036c.432-.244.701-.7.704-1.196l.105-12.979s1.408-1.007 1.068 3.557c-.34 4.563-.561 11.381-.561 11.381s-.056 7.435-7.154 7.435c0 0-7.099 1.352-7.044-2.705.056-4.058 2.93-4.224 2.93-4.224l2.55.221c2.534.245 5.084-.26 7.333-1.454z"/>
        <path fill="#FBBEBE" fill-rule="nonzero" d="M281.718 340.904c.165 2.93 8.787 1.237 8.787 1.237l5.801-11.262s4.844-3.722 2.42-6.988a5.212 5.212 0 0 1-.354-.557l-.023-.027a3.521 3.521 0 0 1-.143-.263c-1.739-3.45-.883-9.109-.883-9.109s2.25-16.451 3.04-20.79c.557-3.063.327-13.116.143-18.737-.073-2.337-.142-3.906-.142-3.906l-14.312-3.832v4.269c-.033 3.528-.143 8.465-.507 11.676-.616 5.46 1.578 23.545 1.578 23.545l.76 16.457a15.242 15.242 0 0 1-1.84 8.01c-1.795 3.284-4.141 7.912-4.302 9.96a2.02 2.02 0 0 0-.023.317z"/>
        <path fill="#000" fill-rule="nonzero" d="M281.718 340.904c.165 2.93 8.787 1.237 8.787 1.237l5.801-11.262s4.844-3.722 2.42-6.988a5.212 5.212 0 0 1-.354-.557c-.078 1.707-1.95 5.98-1.95 5.98s-4.79 9.584-6.313 11.778c-1.523 2.195-8.138-.41-8.387-.501-.01.104-.01.208-.004.313z" opacity=".1"/>
        <path fill="#B07473" fill-rule="nonzero" d="M298.206 323.03s2.834-.657 1.988 6.722a4.752 4.752 0 0 1-2.24 4.219c-2.03 1.274-5.158 4.016-6.74 9.348a5.097 5.097 0 0 1-3.934 4.968c-2.558.599-5.746 1.123-7.591.608-3.437-.957-1.914-3.322-1.914-3.322l3.943-4.679s6.873 2.706 8.391.506c1.518-2.199 6.312-11.772 6.312-11.772s2.627-5.976 1.785-6.597z"/>
        <path fill="#000" fill-rule="nonzero" d="M321.264 263.785l-.304 11.087c3.842-.372 6.593-.892 7.062-1.624 1.017-1.573 4.706-2.236 7.844-2.507a295.49 295.49 0 0 0-.18-3.464l-14.422-3.492zM286.052 272.287a5.263 5.263 0 0 1 1.578-1.905c1.518-.842 1.352 5.41 1.352 5.41s5.06.046 11.524-.036c-.073-2.337-.142-3.91-.142-3.91l-14.312-3.829s.027 1.776 0 4.27z" opacity=".1"/>
        <path fill="#444053" fill-rule="nonzero" d="M284.418 273.768s1.693-4.6 3.22-5.42c1.528-.818 1.353 5.406 1.353 5.406s37.182.34 39.04-2.535c1.859-2.875 12.675-2.705 12.675-2.705s-.336-35.829-1.183-49.345c-.846-13.516-2.194-25.86-5.575-29.577-2.186-2.406-5.296-10.19-7.219-15.38-1.044-2.833-1.739-4.899-1.739-4.899l-35.488 2.024-.29 2.876-3.768 37.687s-.506 41.575-2.029 51.039c-1.522 9.463 1.003 10.83 1.003 10.83z"/>
        <g fill="#000" fill-rule="nonzero" opacity=".1">
            <path d="M325.142 271.22c1.84-2.871 12.675-2.706 12.675-2.706s-.336-35.829-1.183-49.345c-.846-13.516-2.194-25.86-5.575-29.577-2.195-2.415-5.296-10.19-7.219-15.38a185.457 185.457 0 0 1-1.684-4.742l2.76-.157s.695 2.066 1.744 4.9c1.923 5.19 5.029 12.973 7.214 15.38 3.381 3.717 4.734 16.055 5.576 29.576.842 13.521 1.187 49.345 1.187 49.345s-10.816-.165-12.68 2.705c-1.586 2.453-28.946 2.568-36.886 2.545 10.19-.023 32.636-.327 34.071-2.545zM284.75 268.349c.685-.382 1.026.676 1.196 1.96a26.536 26.536 0 0 0-1.597 3.46s-.98-.53-1.38-3.221c.561-.962 1.183-1.868 1.78-2.2z"/>
        </g>
        <path fill="#585268" fill-rule="nonzero" d="M295.386 82.625c-2.457 3.35.028 8.111-2.608 11.368-.87 1.077-2.209 1.84-3.115 2.899-1.68 1.96-1.615 4.623-.791 6.923.823 2.3 2.3 4.399 3.349 6.644.46.97.8 2.06.34 3.027-.322.671-.989 1.182-1.509 1.762-1.693 1.89-1.739 4.518-.828 6.744.911 2.227 2.65 4.14 4.366 6.027.676.74 1.532 1.56 2.66 1.537a3.687 3.687 0 0 0 1.67-.548c8.108-4.142 11.521-13.93 7.747-22.216-1.427-3.418-3.805-6.694-3.828-10.305 0-2.866 1.472-5.604 1.734-8.456.318-3.469-1.734-8.976-5.92-10.49.275 2.228-2.02 3.364-3.267 5.084z"/>
        <path fill="#000" fill-rule="nonzero" d="M295.386 82.625c-2.457 3.35.028 8.111-2.608 11.368-.87 1.077-2.209 1.84-3.115 2.899-1.68 1.96-1.615 4.623-.791 6.923.823 2.3 2.3 4.399 3.349 6.644.46.97.8 2.06.34 3.027-.322.671-.989 1.182-1.509 1.762-1.693 1.89-1.739 4.518-.828 6.744.911 2.227 2.65 4.14 4.366 6.027.676.74 1.532 1.56 2.66 1.537a3.687 3.687 0 0 0 1.67-.548c8.108-4.142 11.521-13.93 7.747-22.216-1.427-3.418-3.805-6.694-3.828-10.305 0-2.866 1.472-5.604 1.734-8.456.318-3.469-1.734-8.976-5.92-10.49.275 2.228-2.02 3.364-3.267 5.084zM322.63 204.452c-4.918.258-9.546 2.374-13.852 4.766-4.306 2.392-8.474 5.102-13.107 6.8M319.576 216.04a20.275 20.275 0 0 0-12.767 6.211c-1.196 1.266-2.227 2.683-3.473 3.897a15.43 15.43 0 0 1-6.846 3.878M320.583 224.86a22.322 22.322 0 0 0-10.268 6.192c-.755.815-1.44 1.684-2.195 2.498-4.071 4.37-9.822 6.69-15.375 8.884" opacity=".1"/>
        <path fill="#FBBEBE" fill-rule="nonzero" d="M320.164 102.555c.109 3.93.447 7.85 1.013 11.74.46 2.76 1.104 5.245 2.028 6.345 2.706 3.22-13.18 7.521-13.18 7.521l-9.38-7.268s7.434-6.846 3.97-13.521c-3.465-6.676 15.55-4.817 15.55-4.817z"/>
        <path fill="#000" fill-rule="nonzero" d="M289.203 174.213h37.517a201.328 201.328 0 0 1-1.739-4.9l-35.488 2.024-.29 2.876z" opacity=".1"/>
        <path fill="#2EE2C4" fill-rule="nonzero" d="M286.788 173.536H326.9c-1.127-4.034 0-7.765 1.605-10.636a23.509 23.509 0 0 1 4.2-5.447l.277-.253 14.004-3.1.754-.166s.115-25.464-8.902-28.96c-9.017-3.497-14.423-8.222-14.423-8.222l-12.389 3.828-9.127-4.6c-2.93 3.15-10.706 1.913-10.706 1.913-12.73 1.463-12.73 11.041-12.73 11.041s7.435 17.349 8 17.349c.567 0-.675 27.253-.675 27.253z"/>
        <path fill="#000" fill-rule="nonzero" d="M300.635 157.347s-8.18-1.812-10.963-4.982M341.879 147.847l-9.486 7.775c.068.619.173 1.233.312 1.84l.277-.253 14.004-3.1-5.107-6.262zM316.194 170.831s2.075 1.169 5.254 2.705h5.452c-1.127-4.034 0-7.765 1.605-10.636l-9.61-3.11c3.27 3.041-2.7 11.041-2.7 11.041z" opacity=".1"/>
        <path fill="#2EE2C4" fill-rule="nonzero" d="M285.095 125.88l-5.631 3.04-5.521 13.972s-5.746 15.32-5.185 19.378c0 0-2.024 9.578 1.578 11.266l9.385 4.251a.874.874 0 0 0 1.127-1.205c-1.338-2.535-2.81-6.5-.46-8.681l-2.705-5.631 9.776-16 3.267-5.521-5.631-14.87z"/>
        <path fill="#000" fill-rule="nonzero" d="M297.622 154.15c.488 1.987 2.135 5.06 7.586 6.206l5.98 4.9 6.363 2.884 2.595 1.173 1.1-7.945-2.499-1.38-2.912-1.592s-6.57-11.901-16.971-6.9a2.3 2.3 0 0 0-1.242 2.654z" opacity=".1"/>
        <path fill="#FBBEBE" fill-rule="nonzero" d="M297.962 153.474c.488 1.992 2.13 5.06 7.582 6.206l5.98 4.9 6.368 2.884 2.59 1.173 1.1-7.945-2.499-1.38-2.889-1.578s-6.574-11.902-16.976-6.878a2.3 2.3 0 0 0-1.256 2.618z"/>
        <circle cx="309.684" cy="98.327" r="14.533" fill="#000" fill-rule="nonzero" opacity=".1"/>
        <circle cx="309.684" cy="97.991" r="14.533" fill="#FBBEBE" fill-rule="nonzero"/>
        <path fill="#000" fill-rule="nonzero" d="M318.688 129.045l-4.37-8.493s6.394-2.585 6.859-5.58c.464-2.995 6.127 3.51 4.904 5.668-1.224 2.157-7.393 8.405-7.393 8.405z" opacity=".1"/>
        <path fill="#3129E2" fill-rule="nonzero" d="M318.688 128.368l-4.37-8.492s6.394-2.586 6.859-5.58c.464-2.995 6.127 3.514 4.904 5.667-1.224 2.153-7.393 8.405-7.393 8.405z"/>
        <path fill="#F6F8FB" fill-rule="nonzero" d="M282.919 150.308l24.148 32.466s-8.902 4.845-21.163-3.827l-5.295-6.312-15.117-25.483 17.427 3.156z"/>
        <path fill="#FBBEBE" fill-rule="nonzero" d="M278.166 167.96l2.2-.06s13.433-13.037 16.731-6.44c3.299 6.597-8.368 12.762-8.368 12.762l-3.547 1.914-4.623 1.38-2.959-3.97.566-5.585z"/>
        <path fill="#000" fill-rule="nonzero" d="M281.41 175.004c.202.75.395 1.578.055 2.273a.92.92 0 0 1-.4.437 1.026 1.026 0 0 1-.46.064 4.624 4.624 0 0 1-3.032-1.5 13.848 13.848 0 0 1-1.965-2.843c-.598-1.044-1.219-2.199-1.007-3.386.24-1.292 1.38-2.19 2.498-2.916 2.227-1.473 2.3.243 2.788 2.139.488 1.895 1.012 3.818 1.523 5.732z" opacity=".1"/>
        <path fill="#3129E2" fill-rule="nonzero" d="M281.074 175.004c.198.75.395 1.578.055 2.273a.92.92 0 0 1-.4.437 1.035 1.035 0 0 1-.46.064 4.6 4.6 0 0 1-3.032-1.5 13.687 13.687 0 0 1-1.97-2.843c-.597-1.044-1.218-2.199-1.002-3.386.235-1.292 1.38-2.19 2.493-2.916 2.232-1.473 2.3.243 2.793 2.139a669.778 669.778 0 0 0 1.523 5.732z"/>
        <path fill="#000" fill-rule="nonzero" d="M287.464 146.27l1.122-1.9-.98 3.528zM317.91 167.464l2.59 1.173 1.1-7.945-2.498-1.38c1.725 1.978.216 5.635-1.192 8.152zM328.307 158.24s-8.363.51-11.915-1.771" opacity=".1"/>
        <g fill="#000" fill-rule="nonzero" opacity=".1">
            <path d="M327.268 163.576a23.545 23.545 0 0 1 4.2-5.451c.398-.25.811-.474 1.237-.672l13.038-2.677.755-.166s.115-25.464-8.898-28.96a54.157 54.157 0 0 1-14.059-7.918l.99-.304s5.405 4.73 14.422 8.222c9.017 3.491 8.897 28.96 8.897 28.96h-1.352l-13.342 2.553s-.575.557-.75.718a25.855 25.855 0 0 0-4.264 5.64 14.142 14.142 0 0 0-1.118 10.692h-1.38c-1.114-4.035.036-7.766 1.624-10.637zM291.66 118.63c.216-.033.423-.065.648-.088.915.13 1.837.205 2.76.225a25.091 25.091 0 0 1-3.408-.138zM310.784 121.256l-8.253-4.177c.163-.135.317-.28.46-.437l8.612 4.356-.819.258z"/>
        </g>
        <path fill="#2EE2C4" fill-rule="nonzero" d="M342.206 147.152l5.52 6.763 1.127 18.366s1.463 9.348-9.238 7.094c-10.7-2.255-23.085-9.22-23.085-9.22s5.98-8 2.705-11.041l15.325 4.96s2.59-.567.56-2.816c-2.028-2.25-2.387-6.312-2.387-6.312l9.473-7.794z"/>
        <path fill="#000" fill-rule="nonzero" d="M344.7 166.553l3.04 3.492a4.384 4.384 0 0 1-3.04-3.492zM339.514 165.987l4.734 6.082-2.364.566zM292.327 91.32c-.52-1.274-.12-2.76.506-3.96.625-1.201 1.486-2.338 1.955-3.63.695-1.923.483-4.1 1.242-5.981 1.339-3.335 5.143-4.826 8.552-5.98 1.008-.337 2.08-.672 3.11-.424 1.38.327 2.278 1.578 3.405 2.42 4.628 3.45 12.154-.35 16.63 3.303 1.712 1.38 2.545 3.639 2.802 5.833.258 2.195 0 4.422-.027 6.634-.074 3.874.653 8.111 3.551 10.678.875.773 1.905 1.353 2.76 2.153.856.8 1.528 1.919 1.38 3.078a10.669 10.669 0 0 1-.46 1.564c-.574 2.02.286 4.14 1.335 5.98 3.128 5.416 8.644 9.878 14.897 10.002-.42 3.156-3.68 4.987-6.602 6.28-3.68 1.652-7.6 3.271-11.653 3.064-4.053-.207-8.281-2.802-8.99-6.795-.244-1.38-.211-3.04-1.38-3.758-.718-.438-1.647-.327-2.42-.654-1.118-.46-1.67-1.716-2.038-2.87a25.837 25.837 0 0 1-1.2-7.361c-.051-2.963.34-6.197-1.34-8.635-1.554-2.26-4.315-3.405-6.109-5.48-1.656-1.923-3.455-4.241-6.17-4.6-3.753-.53-11.519 4.573-13.736-.86z" opacity=".1"/>
        <path fill="#585268" fill-rule="nonzero" d="M292.327 90.644c-.52-1.274-.12-2.76.506-3.96.625-1.202 1.486-2.338 1.955-3.63.695-1.924.483-4.1 1.242-5.981 1.339-3.34 5.143-4.83 8.552-5.981 1.008-.336 2.08-.672 3.11-.423 1.38.326 2.278 1.578 3.405 2.42 4.628 3.45 12.154-.35 16.63 3.303 1.712 1.38 2.545 3.639 2.802 5.838.258 2.199 0 4.416-.027 6.63-.074 3.873.653 8.11 3.551 10.677.875.773 1.905 1.353 2.76 2.153.856.8 1.528 1.918 1.38 3.078a10.669 10.669 0 0 1-.46 1.564c-.574 2.02.286 4.14 1.335 5.98 3.138 5.397 8.63 9.873 14.883 9.998-.419 3.156-3.68 4.987-6.602 6.284-3.68 1.647-7.6 3.266-11.653 3.06-4.053-.208-8.281-2.802-8.99-6.796-.243-1.38-.211-3.04-1.38-3.758-.717-.437-1.647-.327-2.42-.654-1.118-.46-1.67-1.716-2.038-2.87a25.809 25.809 0 0 1-1.2-7.361c-.051-2.963.34-6.197-1.34-8.635-1.554-2.26-4.314-3.405-6.109-5.48-1.656-1.923-3.455-4.241-6.169-4.6-3.74-.525-11.506 4.587-13.723-.856z"/>
        <path fill="#000" fill-rule="nonzero" d="M302.641 127.991l8.332-6.763s-5.705-3.091-6.386-5.727c-.68-2.636-5.245 1.251-4.78 3.616.465 2.365 2.834 8.874 2.834 8.874z" opacity=".1"/>
        <path fill="#3129E2" fill-rule="nonzero" d="M302.968 126.975l8.331-6.759s-5.704-3.091-6.358-5.727c-.653-2.636-5.244 1.251-4.78 3.616.465 2.364 2.807 8.87 2.807 8.87z"/>
        <circle cx="311.626" cy="125.875" r="1" fill="#000" fill-rule="nonzero" opacity=".1"/>
        <circle cx="311.626" cy="129.555" r="1" fill="#000" fill-rule="nonzero" opacity=".1"/>
        <circle cx="311.626" cy="133.231" r="1" fill="#000" fill-rule="nonzero" opacity=".1"/>
        <g fill="#000" fill-rule="nonzero" opacity=".1">
            <path d="M295.69 81.25c.658-1.808.515-3.837 1.131-5.659a6.183 6.183 0 0 0-.703 1.298c-.764 1.9-.548 4.076-1.247 5.98l-.046.11c.34-.548.63-1.127.865-1.73zM348.25 126.79c-3.68 1.648-7.6 3.267-11.652 3.06-4.054-.207-8.281-2.802-8.99-6.79-.244-1.38-.212-3.046-1.38-3.764-.718-.437-1.647-.326-2.42-.653-1.118-.46-1.67-1.716-2.038-2.87a25.809 25.809 0 0 1-1.2-7.362c-.051-2.958.344-6.192-1.335-8.635-1.56-2.259-4.32-3.4-6.114-5.479-1.656-1.918-3.455-4.242-6.17-4.6-3.721-.507-11.5 4.6-13.7-.838a4.278 4.278 0 0 1 .143-3.142c-.161.271-.317.543-.46.819-.626 1.224-1.021 2.691-.502 3.966 2.213 5.428 9.979.326 13.7.837 2.715.368 4.514 2.691 6.17 4.6 1.794 2.08 4.555 3.22 6.11 5.484 1.683 2.438 1.288 5.673 1.338 8.63a25.809 25.809 0 0 0 1.201 7.362c.368 1.159.92 2.401 2.038 2.87.773.327 1.702.221 2.42.654 1.187.717 1.155 2.397 1.38 3.763.718 3.989 4.941 6.583 8.99 6.79 4.048.207 7.95-1.408 11.653-3.06 2.668-1.186 5.64-2.828 6.44-5.52-1.278 1.748-3.542 2.954-5.621 3.879z"/>
        </g>
        <path fill="url(#c)" fill-rule="nonzero" d="M429.556 152.756c-9.74-5.604-13.42-6.984-13.438-6.984l-.203-.142a8.102 8.102 0 0 1-2.452-3.101 6.473 6.473 0 0 1 0-.667.28.28 0 0 0 0 .064c.152-2.967 2.264-5.668 4.265-8.023l5.12-6.022a5.935 5.935 0 0 0 1.32-2.089c.104-.42.15-.851.139-1.283v-.525a243.75 243.75 0 0 0-.125-4.49c-.046-1.306-.381-2.953-1.688-3.22-.68-.138-1.583.106-1.941-.46a1.118 1.118 0 0 1-.088-.778.267.267 0 0 0 0 .065v-.074c.253-1.01.415-2.04.483-3.078a4.196 4.196 0 0 0-.211-1.56c-.755-2.166-3.363-3.059-5.668-3.468-2.305-.41-4.89-.76-6.335-2.563a18.738 18.738 0 0 0-1.26-1.734 4.973 4.973 0 0 0-2.356-1.164 13.342 13.342 0 0 0-8.571.745c-1.113.497-2.231 1.169-3.455 1.095-1.224-.073-2.355-.957-3.607-1.168-2.024-.345-3.96 1.14-4.96 2.903a7.099 7.099 0 0 0-.92 3.422v.203a5.005 5.005 0 0 0 1.316 3.496c.875.92 2.172 1.528 2.535 2.72.148.482.11 1.007.244 1.499.014.061.033.12.055.18l-.064.087a15.182 15.182 0 0 0-3.22 9.357 15.531 15.531 0 0 0 10.912 14.722v.46c0 1.84-.529 3.759-2.116 5.153l-13.797 5.511s-8.318-.99-11.317 11.165a20.725 20.725 0 0 0-.516 6.165c.11 1.84-.142 5.06-2.3 9.233-3.409 6.68-2.631 22.014 4.343 23.532 6.583 1.435 9.16.837 9.431.768v.267c-.11 2.88-1.155 27.695-4.95 30.695-1.05.833-.856 1.38 0 1.771 0 0 0 .161-.023.46-.115 1.84-.7 8.741-3.22 12.66-2.95 4.555-2.641 30.824-2.641 30.824l-2.01 15.486s1.237 9.564 0 11.234c-1.11 1.486-2.582 36.869-2.89 44.543h-.129a3.736 3.736 0 0 0-2.98 1.84c-1.63 2.645-7.334 7.535-7.334 7.535-1.238 1.758-5.815 3.442-8.235 4.233-.32.104-.627.24-.92.405a4.909 4.909 0 0 0-2.08 2.19 2.35 2.35 0 0 0-.22 1.84c.616 1.513 13.484 2.58 16.741 1.058 2.558-1.192 12.697-2.76 16.907-3.377a3.469 3.469 0 0 0 3.009-3.009 1.983 1.983 0 0 0-.387-1.504c-.805-.998-1.214-3.726-1.38-5.52.342-.14.661-.329.948-.562a40.416 40.416 0 0 1 2.3-16.244c3.1-8.198 4.03-23.38 3.257-33.248 0 0 9.454-40.687 16.898-44.483.115.147 3.726 4.78 4.186 19.13.46 14.574 5.733 24.138 5.733 24.138s-2.328 24.746 0 34.007l-3.041 14.607a5.28 5.28 0 0 1-.368-.336s.092.405.216 1.054l-.064.312.133.028c.345 1.84.856 5.01.644 6.9-.12 1.064-.419 2.522-.621 3.953-.322 2.25-.41 4.43.773 4.908 1.941.783 13.341 1.84 15.274-.662a3.584 3.584 0 0 0 .56-3.75 3.795 3.795 0 0 0-.56-.956s-3.028-4.946-2.172-8.433a2.567 2.567 0 0 0-.363-2.001c.133-1.712.823-9.634 2.608-16.36 1.942-7.305 6.031-23.325 3.023-33.855a15.563 15.563 0 0 0-.387-1.215 45.472 45.472 0 0 1-1.706-17.762 36.202 36.202 0 0 1 0-15.486c1.863-8.501 3.165-16.851 3.165-16.851s1.026-11.235.128-18.122c0-.147-.04-.294-.06-.46l.488-.11s-2.636-11.69-3.565-19.13c-.22-1.757-.506-3.979-.819-6.353a16.217 16.217 0 0 0 2.526-.63c8.368-2.884 11.004-28.983 11.004-28.983v-8.281s2.816-12.73-6.951-18.347zM367.19 354.369a8.74 8.74 0 0 1-.41-.216l.41.216z"/>
        <path fill="#65617D" fill-rule="nonzero" d="M424.504 303.437c3.63 10.439-.607 27.382-2.576 34.964-1.969 7.582-2.572 16.645-2.572 16.645-7.715 1.21-13.314-.304-13.314-.304l3.18-15.582c-2.273-9.229 0-33.892 0-33.892s-5.144-9.532-5.6-24.056c-.46-14.294-3.97-18.918-4.08-19.06-7.26 3.781-16.488 44.33-16.488 44.33.754 9.832-.157 24.963-3.18 33.124a40.945 40.945 0 0 0-2.267 16.185c-1.058.92-2.53 1.049-4.14.791-4.32-.699-9.5-4.42-9.5-4.42s1.66-44.166 2.874-45.84c1.215-1.675 0-11.198 0-11.198l1.965-15.43s-.304-26.177 2.572-30.713c2.484-3.92 3.054-10.812 3.165-12.62v-.46l4.38-5.244s42.361-3.18 45.545 0c.777.777 1.26 2.553 1.545 4.784.874 6.864-.128 18.057-.128 18.057s-1.27 8.323-3.087 16.792a36.86 36.86 0 0 0 0 15.435 46.203 46.203 0 0 0 1.706 17.712z"/>
        <path fill="#A27772" fill-rule="nonzero" d="M421.855 369.777c-1.891 2.498-13.01 1.44-14.906.662-1.155-.46-1.068-2.654-.755-4.895.198-1.422.488-2.875.608-3.933.299-2.724-.92-8.25-.92-8.25s2.493 2.65 3.096 0c.266-1.158 1.196-1.752 2.162-2.051a5.65 5.65 0 0 1 3.929.244c1.964.856 5.24 2.673 4.655 5.13-.832 3.473 2.117 8.405 2.117 8.405.228.287.414.607.552.947a3.63 3.63 0 0 1-.538 3.74z"/>
        <path fill="#000" fill-rule="nonzero" d="M421.855 369.777c-1.891 2.498-13.01 1.44-14.906.662-1.155-.46-1.068-2.654-.755-4.895 1.196.561 3.22 1.026 6.611.713.79-.075 1.585-.1 2.379-.073 2.408.108 4.82.059 7.223-.148a3.63 3.63 0 0 1-.552 3.74zM383.05 306.464c.754 9.831-.157 24.963-3.18 33.124a40.945 40.945 0 0 0-2.268 16.185c-1.058.92-2.53 1.048-4.14.79.92-6.38 4.803-33.873 7.291-55.597 2.839-24.737 16.102-41.754 16.102-41.754l2.646 2.912c-7.223 3.791-16.452 44.34-16.452 44.34z" opacity=".1"/>
        <path fill="#FBBEBE" fill-rule="nonzero" d="M417.314 147.451l-1.84 9.077-9.05 15.205-11.156-4.766s-15.182-15.886-5.636-18.154a8.447 8.447 0 0 0 3.166-1.408c1.872-1.412 2.46-3.464 2.47-5.474a16.783 16.783 0 0 0-1.537-6.505l19.516-6.128a31.325 31.325 0 0 0-1.38 7.904c-.152 5.318 1.84 7.935 3.446 9.2a5.861 5.861 0 0 0 2 1.05z"/>
        <path fill="#000" fill-rule="nonzero" d="M413.229 129.298a31.325 31.325 0 0 0-1.38 7.904 15.44 15.44 0 0 1-16.566 4.73 16.783 16.783 0 0 0-1.552-6.506l19.498-6.128z" opacity=".1"/>
        <path fill="#FBBEBE" fill-rule="nonzero" d="M415.47 126.8a15.435 15.435 0 1 1-15.436-15.43 15.362 15.362 0 0 1 15.435 15.43z"/>
        <path fill="#000" fill-rule="nonzero" d="M417.314 147.451l-1.84 9.077-9.05 15.205-11.156-4.766s-15.182-15.886-5.636-18.154a8.447 8.447 0 0 0 3.166-1.408c-1.721 4.73 5.382 14.57 5.382 14.57.828 1.22 2.724.46 2.724.46 4.577-.694 13-13.856 14.376-16.046a5.861 5.861 0 0 0 2.034 1.062zM426.05 235.45c-2.687.612-17.55 3.902-23.186 3.078-6.202-.92-18.26-1.509-18.26-1.509s-7.678.414-10.043-.667v-.46l4.38-5.245s42.361-3.179 45.545 0c.796.796 1.279 2.572 1.564 4.803z" opacity=".1"/>
        <path fill="#3129E2" fill-rule="nonzero" d="M398.176 162.43s-7.982-11.04-4.974-15.365l-13.484 5.52s-8.115-.984-11.041 11.13a21.075 21.075 0 0 0-.501 6.146c.11 1.84-.138 5.06-2.222 9.2-3.327 6.658-2.572 21.94 4.237 23.463 6.808 1.523 9.224.755 9.224.755s-.92 27.686-4.84 30.865c-3.92 3.179 10.029 2.42 10.029 2.42s12.058.607 18.264 1.513c6.206.907 23.6-3.179 23.6-3.179s-2.57-11.648-3.482-19.06c-.91-7.411-3.032-23.2-3.032-23.2l15.43-20.905s2.724-12.633-6.808-18.232-13.116-6.97-13.116-6.97-9.579 15.596-14.57 16.35c.01 0-1.886.764-2.714-.45z"/>
        <path fill="#000" fill-rule="nonzero" d="M380.473 166.815s-.147 4.996.759 6.96c.906 1.965 4.237 12.882 4.237 12.882H377.9s4.085-4.389 3.786-6.51c-.299-2.12-1.214-13.332-1.214-13.332z" opacity=".1"/>
        <path fill="#FBBEBE" fill-rule="nonzero" d="M402.868 204.489s-16.709-4.085-18.264-7.563c-1.555-3.478-5.847-11.267-5.847-11.267l1.762-2.374 8.124 6.376s9.661 7.715 14.225 8.474c4.564.76 0 6.354 0 6.354z"/>
        <path fill="#000" fill-rule="nonzero" d="M402.868 204.489s-16.709-4.085-18.264-7.563c-1.555-3.478-5.847-11.267-5.847-11.267l1.762-2.374 8.124 6.376s9.661 7.715 14.225 8.474c4.564.76 0 6.354 0 6.354z" opacity=".05"/>
        <path fill="#FBBEBE" fill-rule="nonzero" d="M417.314 184.822v9.063h-1.454a42.357 42.357 0 0 0-20.574 5.327l-2.732 1.514-.732.409-4.692-10.581 4.389-3.934h.225c1.072.106 5.714.493 7.683-.17 1.868-.635 4.186-2.645 9.689-1.242 2.71.695 5.028 3.731 7.655 2.783l.543-3.17z"/>
        <path fill="#000" fill-rule="nonzero" d="M431.916 168.315l3.022 3.404v8.249s-2.571 26.02-10.737 28.896c-8.166 2.875-22.754-1.665-22.754-1.665s-3.768-9.984-2.006-10.582c1.762-.598 15.573-4.25 15.573-4.25s-.194-15.265 2.829-19.806c0 0-1.965-14.22 4.844-14.524 6.809-.303 9.229 10.278 9.229 10.278z" opacity=".1"/>
        <path fill="#3129E2" fill-rule="nonzero" d="M432.376 168.315l3.027 3.404v8.249s-2.572 26.02-10.742 28.896c-8.17 2.875-22.754-1.665-22.754-1.665s-3.768-9.984-2.002-10.582c1.767-.598 15.573-4.25 15.573-4.25s-.198-15.265 2.83-19.806c0 0-1.97-14.22 4.84-14.524 6.808-.303 9.228 10.278 9.228 10.278z"/>
        <path fill="#000" fill-rule="nonzero" d="M411.236 133.35c.13-.996.012-2.009-.345-2.948-.427-.92-1.426-1.615-2.401-1.38-1.293.303-1.84 1.987-3.12 2.392-1.071.34-2.24-.419-2.76-1.417-.52-.998-.524-2.171-.524-3.294v-3.79c0-1.38-.046-2.862-.892-3.943-1.054-1.344-3.534-1.933-5.19-1.877a4.403 4.403 0 0 0-2.963 1.191c-.883.755-1.909 1.307-3.114 1.109a2.682 2.682 0 0 1-2.172-1.877v-.046a15.43 15.43 0 1 1 22.939 20.481c.266-1.522.447-3.058.542-4.6z" opacity=".1"/>
        <path fill="#7C5C5C" fill-rule="nonzero" d="M389.927 118.947a2.705 2.705 0 0 1-2.176-1.882c-.124-.488-.092-1.008-.235-1.49-.354-1.192-1.624-1.809-2.475-2.715-1.702-1.808-1.592-4.78-.386-6.956.975-1.753 2.861-3.22 4.84-2.889 1.223.212 2.3 1.081 3.523 1.164 1.224.083 2.3-.594 3.373-1.09a12.707 12.707 0 0 1 8.382-.746 4.83 4.83 0 0 1 2.3 1.164c.44.553.85 1.13 1.228 1.725 1.408 1.795 3.934 2.149 6.183 2.554 2.25.405 4.794 1.297 5.521 3.46.492 1.435 0 2.99-.267 4.48-.088.304-.067.63.06.92.354.58 1.233.336 1.895.46 1.275.272 1.601 1.914 1.652 3.22.052 1.491.092 2.983.12 4.477a5.7 5.7 0 0 1-.134 1.656 5.847 5.847 0 0 1-1.283 2.084l-4.996 6.004c-2.218 2.66-4.569 5.76-4.14 9.201-1.05.46-2.301-.437-2.642-1.537-.34-1.099-.069-2.3.166-3.409.407-1.948.675-3.924.8-5.911a6.063 6.063 0 0 0-.345-2.945c-.427-.92-1.426-1.614-2.401-1.38-1.297.304-1.84 1.988-3.12 2.393-1.071.34-2.24-.42-2.76-1.417-.52-.999-.524-2.167-.524-3.29v-3.795c0-1.38-.046-2.862-.892-3.943-1.054-1.343-3.534-1.932-5.19-1.877a4.403 4.403 0 0 0-2.958 1.192c-.888.759-1.914 1.315-3.12 1.118z"/>
        <path fill="#000" fill-rule="nonzero" d="M393.41 166.438l4.738 19.465s3.736-.023-4.739-19.465zM409.599 163.185s-6.202 10.158-3.782 20.666l1.155.083s-2.061-4.863 2.627-20.749zM413.514 220.678s7.618-2.521 8.17 3.326c.019 0-1.417-4.007-8.17-3.326zM391.519 187.09s-1.514 10.58 1.21 14.827c0 0-5.521 2.268-13.314 1.817l-.92-16.644h13.024z" opacity=".1"/>
        <path fill="#000" fill-rule="nonzero" d="M392.554 200.726l-.732.409-4.692-10.581 4.389-3.934h.225c-.069.525-1.293 9.62.81 14.106z" opacity=".1"/>
        <path fill="#3129E2" fill-rule="nonzero" d="M391.519 186.639s-1.514 10.581 1.21 14.823c0 0-5.521 2.272-13.314 1.817l-5.296-16.64h17.4z"/>
        <path fill="#A27772" fill-rule="nonzero" d="M378.435 363.336a3.427 3.427 0 0 1-2.94 3c-4.108.611-14.004 2.175-16.502 3.367-3.18 1.514-15.734.46-16.341-1.058-.177-.618-.1-1.28.216-1.84a4.849 4.849 0 0 1 2.029-2.181c.293-.163.601-.299.92-.405 2.365-.787 6.832-2.461 8.037-4.219 0 0 5.571-4.872 7.159-7.503a3.634 3.634 0 0 1 2.907-1.813c1.325-.06 2.802.608 3.41 3.51 0 0 7.254 4.141 9.2.511 0 0 .304 5.576 1.51 7.103.332.435.475.986.395 1.528z"/>
        <path fill="#000" fill-rule="nonzero" d="M378.435 363.336a3.427 3.427 0 0 1-2.94 3c-4.108.611-14.004 2.175-16.502 3.367-3.18 1.514-15.734.46-16.341-1.058-.177-.618-.1-1.28.216-1.84a4.849 4.849 0 0 1 2.029-2.181c2.047 1.38 6.592 2.687 16.59 1.127 9.536-1.49 14.261-2.949 16.561-3.943.33.436.47.987.387 1.528z" opacity=".1"/>
        <g fill="#000" fill-rule="nonzero" opacity=".1">
            <path d="M419.715 115.938v-.074c.216-1.131.543-2.3.46-3.436-.096.928-.25 1.85-.46 2.76a1.675 1.675 0 0 0 0 .75zM410.887 130.098c.24.545.367 1.134.372 1.73a5.217 5.217 0 0 0-.372-2.41c-.423-.92-1.422-1.615-2.397-1.38-1.297.303-1.84 1.987-3.124 2.392-1.067.34-2.236-.42-2.76-1.417-.525-.999-.525-2.172-.525-3.294v-3.791c0-1.38-.046-2.862-.892-3.943-1.058-1.348-3.533-1.932-5.19-1.882a4.407 4.407 0 0 0-2.962 1.197c-.888.754-1.91 1.306-3.12 1.108a2.696 2.696 0 0 1-2.17-1.877c-.125-.487-.093-1.012-.235-1.495-.355-1.187-1.624-1.808-2.476-2.71a4.955 4.955 0 0 1-1.274-3.22 5.157 5.157 0 0 0 1.274 3.878c.852.92 2.121 1.523 2.476 2.71.142.46.11 1.008.234 1.495a2.696 2.696 0 0 0 2.172 1.877c1.21.198 2.23-.354 3.119-1.108A4.407 4.407 0 0 1 396 116.76c1.656-.05 4.14.534 5.189 1.882.846 1.081.888 2.567.892 3.943v3.79c0 1.123 0 2.3.525 3.29.524.989 1.68 1.762 2.76 1.421 1.27-.404 1.84-2.088 3.124-2.392.975-.211 1.974.515 2.397 1.403zM423.322 125.935a5.815 5.815 0 0 1-1.288 2.08l-4.996 6.003c-2.103 2.526-4.325 5.452-4.14 8.677.151-2.959 2.212-5.65 4.14-7.996l4.996-6.004a5.815 5.815 0 0 0 1.288-2.08c.125-.543.17-1.103.133-1.66a4.37 4.37 0 0 1-.133.98zM410.293 141.682a3.538 3.538 0 0 1-.151-.81 4.08 4.08 0 0 0 .151 1.491c.34 1.095 1.588 2.002 2.641 1.532a6.44 6.44 0 0 1-.055-.662c-1.049.418-2.264-.474-2.586-1.55z"/>
        </g>
        <path fill="#000" fill-rule="nonzero" d="M360.005 353.882s1.583 2.76 7.315.331M408.453 354.553s4.941 5.82 11.17 1.91M422.834 285.734s-3.491 2.18-3.602 3.428c-.11 1.246 1.804-.92 1.804-.92l1.798-2.508zM424.215 302.462a7.301 7.301 0 0 1-4.302 1.679c-2.613.115-2.392 3.52-.685 2.498 1.706-1.021 4.987-4.177 4.987-4.177zM424.877 304.647s-1.675 8.23-3.036 6.643" opacity=".1"/>
        <path fill="url(#d)" fill-rule="nonzero" d="M101.359 366.33s10.512 2.885 15.573-.952c5.06-3.836 7.255-2.603 7.255-2.603s12.067-.668 13.06-3.52c.994-2.852-4.628-13.213-4.628-13.213-.4-.92-.984-2.088-1.246-2.088l.055-4.37 1.748-18.288c4.035-10.346.074-23.716.074-23.716l-.723-3.317a8.391 8.391 0 0 1 .686-5.52l7.328-14.722c.393-.973.854-1.917 1.38-2.825a71.902 71.902 0 0 1 1.84-3.128c.226-.359.46-.731.719-1.122.887-1.38 1.964-2.945 3.266-4.748 3.243-4.495 4.95-10.121 5.833-14.262l.391 1.298h.088l.106.023h.174l.19.032h.068l2.254 28.689c.138 11.188 4.247 17.38 4.247 17.38l-.566 24.7c.773 5.95-.92 13.88-1.698 17.046l-1.776 4.007a4.817 4.817 0 0 0-2.617 3.643c-.35 2.958-3.465 9.335-3.465 9.335-1.205 1.527-3.823 5.654-3.823 5.654s-1.232 3.984-.469 5.474c.764 1.491 7.15 1.34 7.15 1.34 7.291 1.614 12.88-2.301 12.527-4.997-.355-2.696 1.136-3.381 1.136-3.381 2.898-.92 2.618-2.885 2.618-2.885a18.052 18.052 0 0 0-2.195-11.75l-.46 1.063a16.18 16.18 0 0 1 .874-6.27l-.267.184-.082.05h-.028c.46-4.034 4.697-11.501 4.697-11.501 7.784-13.655 4.955-32.158 4.955-32.158l-1.205-5.769-.07-2.176a72.629 72.629 0 0 1 1.174-15.504c.418-2.263.85-4.996 1.182-8.01.7-6.366 2.954-12.936 3.993-15.72l.309-.054h.036c.424-.074.851-.148 1.284-.23h.083s.248-1.344.46-3.63c.124-1.459.225-3.308.225-5.434a61.127 61.127 0 0 0-2.903-18.912l.235-.336s.557-.755 1.573-2.061a236.374 236.374 0 0 1 8.36-10.048c6.417-7.32 4.53-14.721 4.53-14.721s-4.646-17.027-6.716-27.25c-1.182-5.824-3.4-9.785-5.097-12.122.383-1.611.598-3.257.644-4.913.138-3.027.032-6.183-1.33-8.902-1.361-2.719-4.26-4.867-7.287-4.504-.43.104-.877.104-1.306 0a1.987 1.987 0 0 1-.86-.75c-1.772-2.443-1.887-5.728-1.335-8.69.552-2.963 1.684-5.797 2.19-8.769.506-2.972.276-6.27-1.615-8.626-2.222-2.76-6.096-3.538-8.985-5.613-2.029-1.458-3.551-3.551-5.69-4.844-2.14-1.293-4.141-.8-6.464-.313-3.906.824-7.619 1.201-11.313 2.88a30.129 30.129 0 0 0-9.859 7.172 9.357 9.357 0 0 0-2.199 3.47c-.92 3.04.879 6.279.502 9.426-.267 2.231-1.583 4.172-2.627 6.164-1.045 1.992-1.84 4.357-1.022 6.441 1.288 3.257 5.489 3.947 8.543 5.682.409.2.758.502 1.013.879.754 1.315-.787 2.682-1.758 3.85a5.801 5.801 0 0 0-1.15 2.337 8.336 8.336 0 0 0-5 6.036c-1.036 4.633.556 10.48 1.96 14.345-1.533 8.607.46 12.002 1.927 13.304a7.384 7.384 0 0 1 2.558 5.033v.161c.096 1.564.262 3.124.483 4.679-.05-.363-.102-.75-.13-.92-1.2 2.222-3.486 7.899-4.774 17.45a52.446 52.446 0 0 1-1.164 6.077 33.234 33.234 0 0 0-.976 10.866l.23 3.097a.975.975 0 0 1-.625-.207l1.614 2.958v4.991a18.402 18.402 0 0 1-1.223 6.584c-.115.303-.24.607-.373.92a5.355 5.355 0 0 0-.543 2.71c-3.473 5.322-11.437 35.152-11.437 35.152-4.32 9.78.354 16.102.354 16.102s2.264 27.23 2.687 28.638c.423 1.408 1.362 18.007 1.362 18.007v1.32a3.096 3.096 0 0 0-.787-.225c-3.786-.212-4.812 5.769-4.812 5.769l-7.747 7.397s-3.538-.598-8.741 3.308c-5.203 3.906 3.363 7.467 3.363 7.467zm77.358-157.379l-.023-.082-.212.124-.087.05-.042.028-3.57-12.6a20.923 20.923 0 0 1-.262-10.366l2.76-12.09v-2.908l8.774 23.38c.56 3.152-4.652 10.784-7.338 14.464z"/>
        <path fill="#FDC2CC" fill-rule="nonzero" d="M182.567 246.984s-3.542 8.617-4.444 16.884c-.326 2.981-.75 5.677-1.164 7.913a72.311 72.311 0 0 0-1.131 15.306l.069 2.148 1.15 5.691s2.76 18.278-4.863 31.744c0 0-4.518 8.064-4.656 11.883l-3.06 1.182-6.182-1.734s2.985-10.706 2.015-18.21l.556-24.382s-4.016-6.1-4.154-17.142l-2.36-30.299 28.224-.984zM154.343 242.669s-.759 11.814-6.602 19.957c-5.842 8.143-7.084 11.676-7.084 11.676l-7.196 14.547a8.332 8.332 0 0 0-.676 5.442l.708 3.276s3.893 13.203-.069 23.421l-1.877 19.736h-10.976s-.92-16.4-1.32-17.79c-.401-1.39-2.641-28.284-2.641-28.284s-4.601-6.257-.35-15.913c0 0 9.592-36.137 12.16-35.512 2.566.626 25.923-.556 25.923-.556z"/>
        <path fill="#000" fill-rule="nonzero" d="M132.38 297.59l-.704-3.276a8.28 8.28 0 0 1 .672-5.465l7.195-14.561s1.247-3.542 7.085-11.676c5.608-7.821 6.533-19.028 6.597-19.888l1.118-.055s-.759 11.814-6.602 19.957c-5.842 8.143-7.084 11.676-7.084 11.676l-7.196 14.547a8.332 8.332 0 0 0-.676 5.442l.708 3.276s3.893 13.203-.069 23.421l-1.877 19.736h-1.113l1.877-19.736c3.961-10.218.07-23.398.07-23.398zM166.433 338.567c.138-3.819 4.656-11.884 4.656-11.884 7.646-13.48 4.863-31.743 4.863-31.743l-1.178-5.696-.069-2.148a72.311 72.311 0 0 1 1.132-15.306c.41-2.236.832-4.932 1.16-7.913.869-7.959 4.186-16.24 4.43-16.847l1.14-.046s-3.542 8.617-4.444 16.884c-.326 2.981-.75 5.677-1.164 7.913a72.311 72.311 0 0 0-1.131 15.306l.069 2.148 1.15 5.691s2.76 18.278-4.863 31.744c0 0-4.518 8.064-4.656 11.883l-3.06 1.182-.643-.18 2.608-.988z" opacity=".1"/>
        <path fill="#D39999" fill-rule="nonzero" d="M162.89 338.429c1.684.666 3.591.43 5.061-.626a16.332 16.332 0 0 0-.414 9.173c1.252 5.006-11.676-4.03-11.676-4.03l2.76-6.307s1.072 1.997 4.27 1.79z"/>
        <path fill="#000" fill-rule="nonzero" d="M163.852 338.71a5.166 5.166 0 0 0 4.109-.92 16.332 16.332 0 0 0-.414 9.173c1.25 5.005-11.677-4.03-11.677-4.03l2.76-6.308s.801 1.537 3.152 1.776c.713.083 1.394.18 2.07.308z" opacity=".1"/>
        <path fill="#FDC2CC" fill-rule="nonzero" d="M133.562 221.515h5.402v-30.644l-4.054-.727z"/>
        <path fill="#000" fill-rule="nonzero" d="M133.562 221.515h5.402v-30.644l-4.054-.727z" opacity=".05"/>
        <path fill="#7E5659" fill-rule="nonzero" d="M159.832 340.793s3.404-.211 4.931 2.848l1.877 1.458.92-2.153a17.942 17.942 0 0 1 2.126 11.607s.276 1.942-2.572 2.848c0 0-1.458.695-1.113 3.336.345 2.64-5.139 6.532-12.297 4.931 0 0-6.257.143-7.02-1.32-.764-1.463.487-5.35.487-5.35s2.572-4.077 3.75-5.58c0 0 3.059-6.304 3.408-9.202.35-2.898 3.694-5.024 5.503-3.423z"/>
        <path fill="#D39999" fill-rule="nonzero" d="M131.653 343.365l.055-4.32s-6.215 1.79-11.248-.235c0 0 .423 4.343-.276 4.937-.7.593 2.328 6.183 2.328 6.183l3.381 3.542 5.815-2.116 1.578-4.969s-1.219-3.022-1.633-3.022z"/>
        <path fill="#000" fill-rule="nonzero" d="M131.653 343.365l.055-4.32s-6.215 1.79-11.248-.235c0 0 .423 4.343-.276 4.937-.7.593 2.328 6.183 2.328 6.183l3.381 3.542 5.815-2.116 1.578-4.969s-1.219-3.022-1.633-3.022z" opacity=".1"/>
        <path fill="#7E5659" fill-rule="nonzero" d="M119.802 341.8s3.303.383 2.885 4.601c-.419 4.219.175 0 .175 0s3.51 1.422 4.761 3.405c1.252 1.982 3.51-1.772 3.68-2.848.17-1.077 1.579-1.523 1.579-1.523s5.52 10.236 4.545 13.052c-.975 2.815-12.826 3.464-12.826 3.464s-2.158-1.214-7.127 2.572c-4.968 3.786-15.287.92-15.287.92s-8.41-3.51-3.299-7.361c5.112-3.85 8.58-3.266 8.58-3.266l7.61-7.334s1.007-5.893 4.724-5.681z"/>
        <path fill="#3F3D56" fill-rule="nonzero" d="M159.252 99.808c2.102 1.275 3.597 3.345 5.59 4.785 2.833 2.047 6.638 2.81 8.819 5.544 1.84 2.327 2.08 5.58 1.582 8.515-.497 2.935-1.61 5.737-2.148 8.663s-.428 6.17 1.311 8.58c.202.324.495.582.842.74.422.102.862.102 1.283 0 2.972-.358 5.825 1.767 7.159 4.45 1.334 2.681 1.44 5.8 1.302 8.791-.115 2.452-.391 4.955-1.468 7.163-1.84 3.754-5.668 6.073-9.445 7.848a73.148 73.148 0 0 1-7.54 3.046c-1.767.598-3.63 1.136-5.465.824-3.143-.543-5.37-3.4-8.35-4.518-2.443-.92-5.153-.59-7.752-.359-2.218.193-4.753.189-6.28-1.43-1.96-2.08-1.076-5.434-.074-8.112a5.774 5.774 0 0 1-4.085-9.44c.948-1.155 2.461-2.502 1.72-3.804a2.521 2.521 0 0 0-.993-.865c-2.995-1.712-7.122-2.397-8.382-5.608-.81-2.066-.028-4.403.998-6.368 1.026-1.964 2.3-3.887 2.581-6.086.368-3.11-1.38-6.307-.492-9.307a9.33 9.33 0 0 1 2.158-3.432 29.609 29.609 0 0 1 9.66-7.08c3.63-1.66 7.27-2.034 11.106-2.843 2.3-.488 4.205-1.003 6.363.303z"/>
        <path fill="#FDC2CC" fill-rule="nonzero" d="M138.959 146.122s-8.8-.46-10.466 7.043c-1.666 7.504 3.611 18.25 3.611 18.25l6.855-25.293z"/>
        <path fill="#000" fill-rule="nonzero" d="M138.959 146.122s-8.8-.46-10.466 7.043c-1.666 7.504 3.611 18.25 3.611 18.25l6.855-25.293z" opacity=".05"/>
        <path fill="#FDC2CC" fill-rule="nonzero" d="M133.342 168.453l3.335 2.64 15.564.695 9.716-6.67 9.882-16.958c-6.04-1.541-8.483-5.714-9.394-9.615a21.052 21.052 0 0 1-.194-8.033s-15.844-8.202-13.898 4.6a17.39 17.39 0 0 1 .147 4.758c-.92 7.499-8.198 6.086-8.198 6.086l-2.792 4.306-3.198 10.582-.97 7.609z"/>
        <path fill="#000" fill-rule="nonzero" d="M148.367 135.094a17.39 17.39 0 0 1 .147 4.757 14.045 14.045 0 0 0 13.944-1.306 21.052 21.052 0 0 1-.193-8.033s-15.844-8.202-13.898 4.582z" opacity=".1"/>
        <circle cx="154.352" cy="126.528" r="14.036" fill="#FDC2CC" fill-rule="nonzero"/>
        <path fill="#2EE2C4" fill-rule="nonzero" d="M144.424 165.775c.34 0 .677.051 1.012.083 1.84.184 9.528.598 13.908-4.633 4.9-5.851 11.423-13.079 11.69-13.373l6.638 2.006s-5.253-1.868-8.74 7.903a10.121 10.121 0 0 0 3.418 11.644 10.517 10.517 0 0 0 4.342 1.84.023.023 0 0 1 0 .023v4.288l-2.714 11.961c-.771 3.38-.683 6.9.258 10.237l4.14 14.634c-.625.432-26.315 17.905-43.475 5.838.065-.524 2.185-17.698.713-26.103a58.04 58.04 0 0 1-.768-6.496v-.161a7.324 7.324 0 0 0-2.516-4.969c-1.546-1.38-3.64-5.06-1.57-14.786a35.728 35.728 0 0 1 2.301-7.007l5.755-13.005 5.305.105c-.46.571-6.611 8.254-7.278 13.204-.654 4.743-1.459 6.188 7.581 6.767z"/>
        <path fill="#FDC2CC" fill-rule="nonzero" d="M182.14 152.144s5.189 4.449 7.227 14.547c2.038 10.098 6.579 26.872 6.579 26.872s1.84 7.319-4.45 14.546c-6.288 7.228-10.47 12.882-10.47 12.882l-4.14 6.1a5.194 5.194 0 0 1-2.981 2.107c-1.887.497-4.785.856-7.297-.52a4.25 4.25 0 0 1-1.84-5.368l.92-2.13s-8.525 5.373-9.265 2.406c-.741-2.968 9.914-5.93 9.914-5.93s8.8-1.482 10.58-5.65c0 0 9.45-12.14 8.71-16.309l-9.128-24.46s-11.414-1.51-7.522-14.331c3.892-12.822 13.162-4.762 13.162-4.762z"/>
        <path fill="#3F3D56" fill-rule="nonzero" d="M127.563 244.43s20.85 4.169 25.763 3.612l.53 1.762s7.912 1.771 25.804-1.067c1.168-.184 2.381-.391 3.639-.621l.418-.074s.244-1.325.437-3.584c.428-5.13.58-15.062-3.031-25.23l-3.009-9.265s-18.595 11.148-30.906 10.122c-1.1-.092-2.19-.18-3.29-.217-2.525-.096-6.44 0-8.985-2.038l-5.336.92v15.182a18.19 18.19 0 0 1-1.205 6.496c-.116.304-.235.603-.369.92a4.83 4.83 0 0 0-.46 3.083z"/>
        <path fill="#000" fill-rule="nonzero" d="M153.85 245.08v4.724s9.11 2.038 29.863-1.762c0 0 .244-1.325.437-3.584-6.367 1.022-23.927 3.478-30.3.621z" opacity=".1"/>
        <path fill="#000" fill-rule="nonzero" d="M127.563 244.43s20.85 4.169 25.763 3.612l.53 1.762v-4.725c-2.374.985-19.323-3.1-25.464-4.632-.116.303-.235.602-.369.92a4.83 4.83 0 0 0-.46 3.064z" opacity=".1"/>
        <path fill="#65617D" fill-rule="nonzero" d="M178.11 239.163l1.545 9.587c1.169-.184 2.382-.39 3.64-.62-.484-2.802-1.537-9.202-1.248-10.264l-1.946-1.666-1.992 2.963z"/>
        <path fill="#000" fill-rule="nonzero" d="M178.326 238.956l1.545 9.592a186.58 186.58 0 0 0 3.64-.621c-.484-2.802-1.537-9.201-1.247-10.264l-1.946-1.67-1.992 2.963z" opacity=".1"/>
        <g fill="#000" fill-rule="nonzero" opacity=".05">
            <path d="M146.09 220.08a65.407 65.407 0 0 0-3.29-.216c-2.456-.092-6.206 0-8.764-1.882l.893-.156c2.558 2.029 6.44 1.941 8.985 2.038 1.1.037 2.19.124 3.29.216.358.032.726.05 1.099.06-.739.02-1.477 0-2.213-.06zM178.542 248.737c1.168-.184 2.381-.39 3.639-.617l.423-.078s.244-1.325.433-3.584c.432-5.13.584-15.062-3.032-25.23l-2.834-8.74c.603-.34.92-.538.92-.538l3.009 9.265c3.611 10.167 3.46 20.1 3.031 25.23-.193 2.258-.437 3.583-.437 3.583l-.418.078a159.26 159.26 0 0 1-3.64.617c-8.358 1.325-14.532 1.647-18.746 1.61 5.915-.09 11.816-.623 17.652-1.596zM152.204 248.042v.05h-.598c.227-.015.426-.032.598-.05z"/>
        </g>
        <ellipse cx="180.699" cy="239.333" fill="#D39999" fill-rule="nonzero" rx="1" ry="1.619"/>
        <path fill="#FDC2CC" fill-rule="nonzero" d="M130.49 206.54c1.27-9.43 3.51-15.034 4.692-17.228.046.299.165 1.27.22 1.568.24 1.38.028 3.12.102 4.872l-1.178 21.328 1.578 6.671c1.482 5.282-4.007 1.109-4.007 1.109-1.136 2.503-3.22 2.227-3.22 2.227l-.285-3.828a33.06 33.06 0 0 1 .956-10.733c.5-1.97.88-3.97 1.141-5.985z"/>
        <path fill="#000" fill-rule="nonzero" d="M130.49 206.54c1.27-9.43 3.51-15.034 4.692-17.228.046.299.165 1.27.22 1.568.24 1.38.028 3.12.102 4.872l-1.178 21.328 1.578 6.671c1.482 5.282-4.007 1.109-4.007 1.109-1.136 2.503-3.22 2.227-3.22 2.227l-.285-3.828a33.06 33.06 0 0 1 .956-10.733c.5-1.97.88-3.97 1.141-5.985z" opacity=".05"/>
        <path fill="#FDC2CC" fill-rule="nonzero" d="M183.294 218.047c-.998 1.292-1.546 2.033-1.546 2.033l-4.14 6.096a5.171 5.171 0 0 1-2.981 2.107c-1.886.497-4.785.86-7.297-.52a4.242 4.242 0 0 1-1.84-5.364l.92-2.135s-8.525 5.373-9.265 2.41c-.74-2.962 9.914-5.93 9.914-5.93s8.8-1.48 10.581-5.653c0 0 .768-.985 1.84-2.494"/>
        <path fill="#65617D" fill-rule="nonzero" d="M178.11 228.264s-10.08-.98-13.273-6.744l-1.463 4.762s10.581 7.305 12.996 6.357l1.74-4.375z"/>
        <path fill="#000" fill-rule="nonzero" d="M177.75 228.218s-10.075-.98-13.272-6.749l-1.458 4.748s10.58 7.306 12.992 6.358l1.739-4.357z" opacity=".1"/>
        <path fill="#65617D" fill-rule="nonzero" d="M132.228 225.573s-3.528 1.251-4.223.557l1.587 2.921 3-2.3-.364-1.178z"/>
        <path fill="#000" fill-rule="nonzero" d="M132.228 225.573s-3.528 1.251-4.223.557l1.587 2.921 3-2.3-.364-1.178zM153.85 245.08v-6.096l-1.448 6.242zM168.145 119.117c-.851 1.196-2.328 1.803-3.782 1.992-1.454.188-2.926.027-4.393 0-2.3-.037-4.748.317-6.63 1.67-1.2.86-2.102 2.07-3.04 3.22-2.844 3.474-6.791 6.726-11.272 6.363a2.921 2.921 0 0 1-2.093-.884 3.358 3.358 0 0 1-.534-1.904 43.54 43.54 0 0 1 .271-8.585c.18-1.76.617-3.486 1.298-5.12a17.482 17.482 0 0 1 3.119-4.453 19.078 19.078 0 0 1 5.442-4.362 9.762 9.762 0 0 1 6.81-.878c2.681.731 4.77 2.829 7.328 3.91 2.921 1.228 10.678 4.509 7.476 9.03z" opacity=".1"/>
        <path fill="#3F3D56" fill-rule="nonzero" d="M168.145 118.56c-.851 1.196-2.328 1.804-3.782 1.992-1.454.189-2.926.028-4.393 0-2.3-.041-4.748.313-6.63 1.666-1.2.86-2.102 2.07-3.04 3.22-2.844 3.473-6.791 6.726-11.272 6.362a2.903 2.903 0 0 1-2.093-.883 3.345 3.345 0 0 1-.534-1.904 43.54 43.54 0 0 1 .271-8.585c.18-1.761.617-3.486 1.298-5.12a17.362 17.362 0 0 1 3.119-4.45 19.014 19.014 0 0 1 5.442-4.365 9.762 9.762 0 0 1 6.81-.879c2.681.732 4.77 2.83 7.328 3.91 2.921 1.234 10.678 4.505 7.476 9.036z"/>
        <path fill="#FDC2CC" fill-rule="nonzero" d="M134.933 217.821l-.036 1.68-.378-1.606z"/>
        <path fill="#000" fill-rule="nonzero" d="M134.933 217.821l-.036 1.68-.378-1.606zM170.413 156.027c-3.897 12.822 7.462 14.326 7.462 14.326l9.127 24.46c.74 4.169-8.713 16.31-8.713 16.31-.658 1.555-2.3 2.737-4.095 3.611a6.413 6.413 0 0 0 2.43-2.668s9.449-12.136 8.708-16.304l-9.127-24.466s-11.354-1.504-7.462-14.326c1.302-4.283 3.22-6.234 5.162-6.933-1.34 1.077-2.568 2.94-3.492 5.99z" opacity=".05"/>
        <g fill="#000" fill-rule="nonzero" opacity=".1">
            <path d="M170.606 167.675a9.587 9.587 0 0 0 1.84 1.744 10.457 10.457 0 0 0 4.343 1.84V171.742c-1.42-.3-2.761-.894-3.938-1.743a9.546 9.546 0 0 1-2.245-2.324zM135.31 186.018v.16c.144 2.187.408 4.363.792 6.52 1.38 7.931-.428 23.679-.685 25.855-.148-.097-.295-.189-.46-.295.068-.524 2.19-17.698.717-26.099a58.298 58.298 0 0 1-.768-6.496v-.16a7.099 7.099 0 0 0-1.238-3.52 7.154 7.154 0 0 1 1.643 4.035zM143.78 146.324l-4.5-.087a.023.023 0 0 0-.022 0l-5.75 13.001a35.843 35.843 0 0 0-2.301 7.007c-1.675 7.867-.621 11.786.658 13.723-1.44-1.698-2.926-5.567-1.072-14.262a35.465 35.465 0 0 1 2.277-7.01l5.792-13.002 5.305.106c-.042.087-.184.262-.387.524zM177.686 149.853l.078.023-.078-.023z"/>
            <path d="M176.035 149.78l-4.509-1.358c-.267.295-6.786 7.522-11.685 13.374-4.38 5.23-12.058 4.821-13.908 4.637a25.02 25.02 0 0 0-1.012-.087c-5.028-.322-7.006-.92-7.669-2.19.943.92 3.018 1.38 7.25 1.638.341 0 .677.05 1.013.083 1.84.184 9.527.593 13.907-4.633 4.9-5.857 11.423-13.084 11.69-13.378l6.56 1.987a4.1 4.1 0 0 0-1.637-.074z"/>
        </g>
        <path fill="#000" fill-rule="nonzero" d="M122.655 348.485s-6.35 1.735-7.577-.989M162.96 347.183s-7.361 1.9-9.063-1.04" opacity=".1"/>
        <path fill="url(#e)" fill-rule="nonzero" d="M269.103 343.066c.106-.92.258-1.84.423-2.76.727-3.975-.381-7.766-.92-9.33a9.954 9.954 0 0 0-.294-.755c-2.93-.8-14.483 8.162-18.692 11.538-1.458 0-3.041.065-4.77.18-.755.055-1.51.073-2.264.06h-2.76c-3.906-3.147-15.997-12.61-19.005-11.792 0 0-.125.272-.295.755-.561 1.564-1.67 5.355-.943 9.33.166.92.318 1.84.423 2.76.226 2.02 1.072 5.898 4.14 8.516.659 4.784 3.12 11.073 5.015 14.892.142.72.358 1.425.645 2.102-.783 3.018-1.684 6.956-1.427 8.28 0 0-4.085-.988-4.499 3.93v.152c-1.477.676-3.322 2.226-1.247 5.474.25.4.625.706 1.068.87.368.129.726.129.69-.387l2.553 2.876s4.628.533 4.683-2.153l.272.041c.62.092 1.27.17 1.937.24l.322 1.062s-3.474-.074-2.526 2.066c0 0 .874.81 1.173.515 0 0-.46 1.403 1.353 1.403 0 0 1.946 1.03 2.705.294.759-.736 2.332-1.84 2.48-2.3.04-.124.06-1.214.068-2.723h.3c3.878.092 7.995-.033 11.74-.235h.304c0 1.633.023 2.839.064 2.967.152.46 1.73 1.55 2.484 2.3.755.75 2.7-.294 2.7-.294 1.804 0 1.353-1.403 1.353-1.403.304.294 1.178-.515 1.178-.515.948-2.14-2.53-2.066-2.53-2.066l.414-1.38 1.918-.161.304-.028c-.184 2.922 4.679 2.36 4.679 2.36l2.558-2.875c-.042.515.317.515.685.387.432-.171.796-.48 1.035-.88 3.133-4.899-2.654-5.938-2.654-5.938a2.838 2.838 0 0 0-.548-.088c0-.083 0-.17.023-.253.075-.644.087-1.294.037-1.941-.216-.888-1.642-2.3-3.446-2.508-1.178-.147-1.2-5.557-1.08-9.306.132-.704.193-1.42.183-2.135a11.262 11.262 0 0 0-.46-3.418c2.3-3.902 4.14-7.991 4.348-9.201 3.031-2.641 3.878-6.505 4.103-8.525z"/>
        <path fill="#3129E2" fill-rule="nonzero" d="M264.65 380.353c-.184 2.549-.676 6.639-.676 6.639s-2.048.248-5.213.533l-2.148.184c-1.647.134-3.497.263-5.452.373-3.611.198-7.577.322-11.317.23a71.301 71.301 0 0 1-5.36-.304 45.9 45.9 0 0 1-2.167-.262c-4.287-.64-7.36-1.863-7.623-4.011a12.421 12.421 0 0 1-.096-2.76c.4-4.831 4.333-3.856 4.333-3.856-.253-1.334.7-5.48 1.473-8.479.487-1.89.92-3.326.92-3.326l27.658-1.84h.092a1.353 1.353 0 0 1 1.353 1.421c-.166 3.317-.4 10.913.957 11.083 1.739.216 3.114 1.592 3.326 2.461.04.639.02 1.28-.06 1.914zM241.16 343.945s-10.43 12.554-15.454 9.076a6.67 6.67 0 0 1-.345-.253c-3.376-2.557-4.264-6.68-4.499-8.773a39.885 39.885 0 0 0-.41-2.705c-.694-3.906.369-7.623.92-9.16.166-.46.281-.74.281-.74 3.474-.966 19.507 12.555 19.507 12.555z"/>
        <path fill="#536DFE" fill-rule="nonzero" d="M235.556 345.104s-3.285 2.3-7.917 6.082c-.722.59-1.491 1.12-2.3 1.582-3.377-2.557-4.265-6.68-4.5-8.773a39.885 39.885 0 0 0-.41-2.705c-.694-3.906.369-7.623.92-9.16 6.497.451 14.207 12.974 14.207 12.974z"/>
        <path fill="#FFF" fill-rule="nonzero" d="M235.556 345.104s-3.285 2.3-7.917 6.082c-.722.59-1.491 1.12-2.3 1.582-3.377-2.557-4.265-6.68-4.5-8.773a39.885 39.885 0 0 0-.41-2.705c-.694-3.906.369-7.623.92-9.16 6.497.451 14.207 12.974 14.207 12.974z" opacity=".5"/>
        <path fill="#000" fill-rule="nonzero" d="M231.982 343.866s-1.753 1.238-4.228 3.248c-.381.314-.787.596-1.215.842-1.799-1.38-2.3-3.565-2.401-4.678-.05-.488-.13-.967-.217-1.45a10.057 10.057 0 0 1 .511-4.885c3.437.239 7.55 6.923 7.55 6.923z" opacity=".1"/>
        <path fill="#3129E2" fill-rule="nonzero" d="M247.918 343.945s10.43 12.554 15.453 9.076c.115-.082.235-.165.345-.253 3.377-2.557 4.265-6.68 4.5-8.773.1-.92.248-1.808.404-2.705.7-3.906-.368-7.623-.92-9.16-.166-.46-.285-.74-.285-.74-3.464-.966-19.497 12.555-19.497 12.555z"/>
        <path fill="#536DFE" fill-rule="nonzero" d="M253.517 345.104s3.289 2.3 7.922 6.082c.714.59 1.475 1.119 2.277 1.582 3.377-2.557 4.265-6.68 4.5-8.773.1-.92.248-1.808.404-2.705.7-3.906-.368-7.623-.92-9.16-6.464.451-14.183 12.974-14.183 12.974z"/>
        <path fill="#FFF" fill-rule="nonzero" d="M253.517 345.104s3.289 2.3 7.922 6.082c.714.59 1.475 1.119 2.277 1.582 3.377-2.557 4.265-6.68 4.5-8.773.1-.92.248-1.808.404-2.705.7-3.906-.368-7.623-.92-9.16-6.464.451-14.183 12.974-14.183 12.974z" opacity=".5"/>
        <path fill="#000" fill-rule="nonzero" d="M257.119 343.857s1.743 1.233 4.2 3.22c.378.314.783.595 1.21.838 1.79-1.357 2.264-3.543 2.388-4.651.05-.46.129-.962.216-1.44.24-1.635.074-3.303-.483-4.858-3.441.248-7.531 6.891-7.531 6.891zM258.964 363.483c-1.316 2.08-2.715 3.956-3.994 5.088-4.14 3.68-22.018 2.218-23.177 2.029-.244-.041-.75-.764-1.38-1.937.487-1.89.92-3.326.92-3.326l27.63-1.854z" opacity=".1"/>
        <path fill="#3129E2" fill-rule="nonzero" d="M244.812 342.891c-.726.05-1.453.07-2.185.055-3.73-.064-16.3.101-17.693 5.176-1.643 5.98 5.7 21.995 6.854 22.188 1.155.193 19.028 1.643 23.182-2.029 4.155-3.67 9.56-15.181 9.27-16.226 0 0 5.153-10.866-19.428-9.164z"/>
        <path fill="#000" fill-rule="nonzero" d="M244.417 352.589s-9.201-1.417-13.517 7.637a11.041 11.041 0 0 0 .815 11.129c1.435 2.02 3.542 3.524 6.473 2.3 6.514-2.682 6.229-21.066 6.229-21.066z" opacity=".1"/>
        <path fill="#000" fill-rule="nonzero" d="M244.127 352.01s-9.201-1.418-13.516 7.636a11.041 11.041 0 0 0 .814 11.129c1.435 2.02 3.542 3.524 6.473 2.3 6.514-2.682 6.229-21.066 6.229-21.066z" opacity=".1"/>
        <path fill="#536DFE" fill-rule="nonzero" d="M244.127 352.3s-9.201-1.418-13.516 7.636a11.041 11.041 0 0 0 .814 11.129c1.435 2.02 3.542 3.524 6.473 2.3 6.514-2.682 6.229-21.066 6.229-21.066z"/>
        <path fill="#FFF" fill-rule="nonzero" d="M244.127 352.3s-9.201-1.418-13.516 7.636a11.041 11.041 0 0 0 .814 11.129c1.435 2.02 3.542 3.524 6.473 2.3 6.514-2.682 6.229-21.066 6.229-21.066z" opacity=".5"/>
        <path fill="#3F2B3B" fill-rule="nonzero" d="M234.204 360.217s-1.256 1.159-.773 1.449c.483.29.773-1.45.773-1.45zM235.556 361.698s-.685 1.514-.198 1.68c.488.165.778-1.087.778-1.087l-.58-.593zM232.524 363.984s-.671 1.785 0 1.785c.672 0 0-1.785 0-1.785z"/>
        <path stroke="#3F2B3B" stroke-width=".655" d="M231.692 368.764s1.343 3.432 4.84 3.189M234.834 369.777s1.38 1.352 2.894.386"/>
        <path fill="#000" fill-rule="nonzero" d="M245.595 352.589s9.2-1.417 13.516 7.637a11.041 11.041 0 0 1-.814 11.129c-1.431 2.02-3.543 3.524-6.473 2.3-6.533-2.682-6.23-21.066-6.23-21.066z" opacity=".1"/>
        <path fill="#000" fill-rule="nonzero" d="M245.866 352.01s9.201-1.418 13.516 7.636a11.041 11.041 0 0 1-.814 11.129c-1.43 2.02-3.542 3.524-6.473 2.3-6.5-2.682-6.229-21.066-6.229-21.066z" opacity=".1"/>
        <path fill="#536DFE" fill-rule="nonzero" d="M245.866 352.3s9.201-1.418 13.516 7.636a11.041 11.041 0 0 1-.814 11.129c-1.43 2.02-3.542 3.524-6.473 2.3-6.5-2.682-6.229-21.066-6.229-21.066z"/>
        <path fill="#FFF" fill-rule="nonzero" d="M245.866 352.3s9.201-1.418 13.516 7.636a11.041 11.041 0 0 1-.814 11.129c-1.43 2.02-3.542 3.524-6.473 2.3-6.5-2.682-6.229-21.066-6.229-21.066z" opacity=".5"/>
        <path fill="#3F2B3B" fill-rule="nonzero" d="M255.79 360.217s1.255 1.159.772 1.449c-.483.29-.773-1.45-.773-1.45zM254.437 361.698s.685 1.514.198 1.68c-.488.165-.778-1.087-.778-1.087l.58-.593zM257.473 363.984s.667 1.785 0 1.785 0-1.785 0-1.785z"/>
        <path stroke="#3F2B3B" stroke-width=".655" d="M258.301 368.764s-1.343 3.432-4.84 3.189M255.164 369.777s-1.38 1.352-2.899.386"/>
        <path fill="#3F2B3B" fill-rule="nonzero" d="M240.626 378.518c.244-.046 4.83-2.03 9.56 0h-9.56z"/>
        <path fill="#000" fill-rule="nonzero" d="M232.317 387.76c-4.287-.64-7.36-1.863-7.623-4.012a12.421 12.421 0 0 1-.096-2.76 6.192 6.192 0 0 1 1.638-.598c.777-.216 1.739-.07 3.767.51 2.03.58 1.882 2.968 2.3 6.083.045.256.05.519.014.777z" opacity=".1"/>
        <path fill="#3129E2" fill-rule="nonzero" d="M225.946 380.689s-5.576 1.021-2.558 5.833c.239.391.602.69 1.03.852.355.124.695.124.658-.382l2.466 2.824s4.923.58 4.49-2.534c-.432-3.115-.29-5.521-2.3-6.082-2.01-.562-3-.727-3.786-.511z"/>
        <path stroke="#3F2B3B" stroke-width=".655" d="M227.275 383.928s1.183 2.7 2.825.432M224.56 385s.613 2.558 2.931.653"/>
        <path fill="#000" fill-rule="nonzero" d="M264.65 380.353c-.184 2.549-.676 6.639-.676 6.639s-2.048.248-5.213.533a2.673 2.673 0 0 1 0-.533c.433-3.115.29-5.52 2.3-6.082 1.887-.51 2.848-.7 3.589-.557z" opacity=".1"/>
        <path fill="#3129E2" fill-rule="nonzero" d="M265.156 380.689s5.58 1.021 2.562 5.833c-.24.39-.602.69-1.03.852-.354.124-.7.124-.663-.382l-2.46 2.824s-4.928.58-4.49-2.534c.436-3.115.289-5.521 2.3-6.082 2.01-.562 3.008-.727 3.781-.511z"/>
        <path stroke="#3F2B3B" stroke-width=".655" d="M263.831 383.928s-1.187 2.7-2.825.432M266.545 385s-.616 2.558-2.935.653"/>
        <path fill="#000" fill-rule="nonzero" d="M239.844 388.312a71.301 71.301 0 0 1-5.36-.304l-1.67-5.621c-.099-.333-.15-.679-.152-1.026a3.58 3.58 0 0 1 7.154-.023c.019 2.19.037 4.964.028 6.974z" opacity=".1"/>
        <path fill="#3129E2" fill-rule="nonzero" d="M232.524 382.387l1.97 6.634s-3.35-.074-2.434 2.028c0 0 .842.796 1.132.506 0 0-.438 1.38 1.301 1.38 0 0 1.877 1.017 2.604.29.727-.726 2.25-1.812 2.397-2.245.092-.285.065-5.833.032-9.66a3.57 3.57 0 0 0-3.574-3.543 3.575 3.575 0 0 0-3.428 4.61z"/>
        <path stroke="#3F2B3B" stroke-width=".655" d="M235.184 390.737s-1.463 1.38-.69 2.194M234.553 389.858s-1.352.46-1.352 1.697"/>
        <path fill="#000" fill-rule="nonzero" d="M258.343 381.36c0 .348-.05.693-.148 1.027l-1.56 5.322c-1.646.134-3.496.263-5.45.373 0-1.987 0-4.633.031-6.744a3.575 3.575 0 0 1 7.15.023h-.023z" opacity=".1"/>
        <path fill="#3129E2" fill-rule="nonzero" d="M258.476 382.387l-1.969 6.634s3.354-.074 2.438 2.028c0 0-.842.796-1.131.506 0 0 .432 1.38-1.307 1.38 0 0-1.877 1.017-2.604.29-.727-.726-2.245-1.812-2.392-2.245-.092-.285-.065-5.833-.032-9.66a3.57 3.57 0 0 1 3.574-3.543 3.575 3.575 0 0 1 3.423 4.61z"/>
        <path stroke="#3F2B3B" stroke-width=".655" d="M255.821 390.737s1.463 1.38.69 2.194M256.466 389.858s1.352.46 1.352 1.697"/>
        <path fill="#000" fill-rule="nonzero" d="M244.132 350.85s-6.814-.216-7.03 5.06c-.216 5.277 10.646 3.042 10.646 3.042s4.563-.612 3.767-3.819c-.795-3.207-2.456-3.993-7.383-4.283z" opacity=".1"/>
        <path fill="#000" fill-rule="nonzero" d="M244.132 350.27s-6.814-.216-7.03 5.06c-.216 5.278 10.646 3.042 10.646 3.042s4.563-.612 3.767-3.819c-.795-3.206-2.456-3.993-7.383-4.283z" opacity=".1"/>
        <path fill="#3F2B3B" fill-rule="nonzero" d="M244.132 350.56s-6.814-.216-7.03 5.06c-.216 5.278 10.646 3.042 10.646 3.042s4.563-.612 3.767-3.819c-.795-3.206-2.456-3.993-7.383-4.283z"/>
        <path fill="#000" fill-rule="nonzero" d="M228.931 377.142s2.3.819 2.76 2.388M261.365 375.983s-1.633.685-1.518 3.547" opacity=".1"/>
        <ellipse cx="229.899" cy="389.102" fill="#536DFE" fill-rule="nonzero" rx="1.066" ry="1.768" transform="rotate(-29.887 229.9 389.102)"/>
        <ellipse cx="262.273" cy="387.522" fill="#536DFE" fill-rule="nonzero" rx="1.762" ry="1.063" transform="rotate(-60 262.273 387.522)"/>
        <ellipse cx="229.899" cy="389.102" fill="#FFF" fill-rule="nonzero" opacity=".5" rx="1.066" ry="1.768" transform="rotate(-29.887 229.9 389.102)"/>
        <ellipse cx="262.273" cy="387.522" fill="#FFF" fill-rule="nonzero" opacity=".5" rx="1.762" ry="1.063" transform="rotate(-60 262.273 387.522)"/>
        <ellipse cx="89.066" cy="329.425" fill="#ECF6FC" fill-rule="nonzero" rx="12.389" ry="2.093"/>
        <ellipse cx="40.259" cy="359.113" fill="#ECF6FC" fill-rule="nonzero" rx="12.389" ry="2.093"/>
        <ellipse cx="474.236" cy="346.935" fill="#ECF6FC" fill-rule="nonzero" rx="12.389" ry="2.093"/>
        <path fill="#A8A8A8" fill-rule="nonzero" d="M465.918 337.205s7.067-.216 9.201-1.735c2.135-1.518 10.867-3.326 11.396-.892.529 2.434 10.623 12.095 2.64 12.16-7.981.064-18.535-1.243-20.66-2.54-2.126-1.298-2.577-6.993-2.577-6.993z"/>
        <path fill="#000" fill-rule="nonzero" d="M489.294 345.895c-7.978.065-18.536-1.242-20.661-2.54-1.62-.984-2.264-4.522-2.48-6.155h-.235s.46 5.7 2.572 6.993c2.112 1.293 12.684 2.604 20.661 2.54 2.3 0 3.1-.838 3.055-2.052-.318.754-1.196 1.214-2.912 1.214z" opacity=".2"/>
    </g>
</svg>
