<svg xmlns="http://www.w3.org/2000/svg" width="126" height="126" viewBox="0 0 126 126">
    <g fill="none" fill-rule="evenodd" stroke="#322AE3" stroke-width="2.496">
        <path fill="#2EE2C4" d="M56.021 27.851c2.484-2.303.152-7.317 1.478-9.243 1.325-1.927 2.905-3.335 5.136-1.668 2.232 1.668 9.992 8.608 11.013 8.608 1.02 0 4.298.987 5.533 2.303 1.235 1.316 1.863 4.058 3.123 4.058 1.26 0 8.78 1.003 8.78 2.572 0 1.57 6.604 2.706 8.632 2.706 2.028 0-2.834 7.003-2.834 8.365s-3.5 5.177-1.75 7.145c1.75 1.967-6.728 3.843-6.728 6.32 0 2.476-2.68 6.482 0 6.482s4.169 1.217 4.169 3.99c0 2.772-2.978 10.886-1.49 12.61 1.49 1.725 5.799.687 5.799 3.946 0 3.26-4.883 5.623-7.527 6.766-2.644 1.143-5.832-1.405-14.637-3.003s-5.365 5.147-8.25 8.73c-2.887 3.584-7.492 1.204-8.97 0-1.477-1.203-3.832-4.838-7.475-3.02-3.644 1.817-7.732-.115-9.522-1.411s-5.56-2.071-4.635-4.3c.502-1.21 2.522-3.014 3.255-7.708.616-3.947 0-10.789 0-12.61 0-3.99-.61-7.076-3.255-7.076s-1.904-4.286-2.275-5.76c-.37-1.473-1.243-3.956-4.508-3.956-3.264 0-4.978-2.339-7.59-2.339s-2.432-.05-3.347-2.428-2.506-4.62 0-6.39c2.506-1.769 3.467-2.662 4.501-1.769 1.034.893 2.37-1.744 3.676-1.744 1.307 0 2.345 1.744 3.938 1.744 1.592 0 7.415 3.54 7.415 1.77s-5.065-8.388-1.81-9.632c3.255-1.244 1.888.022 4.635 1.297s6.028 2.55 6.028 1.275.607-4.523 3.494-5.576c2.886-1.054 3.514 1.249 5.998-1.054z"/>
        <path d="M104.779 108.751c0-1.023-.582-2.03-1.342-4.074-.76-2.045.118-4.945 1.342-6.631 1.224-1.686 3.155-2.45 4.313-2.45s2.216.309 2.216 3.443c0 3.135-2.216 1.764-2.216 4.172 0 2.408 1.862 5.54 0 5.54-1.861 0-4.313 1.023-4.313 0z"/>
    </g>
</svg>
