<svg xmlns="http://www.w3.org/2000/svg" width="340" height="240" viewBox="0 0 340 240">
    <defs>
        <linearGradient id="a" x1=".006%" x2="99.948%" y1="50.008%" y2="50.008%">
            <stop offset="0%" stop-color="gray" stop-opacity=".25"/>
            <stop offset="54%" stop-color="gray" stop-opacity=".12"/>
            <stop offset="100%" stop-color="gray" stop-opacity=".1"/>
        </linearGradient>
        <linearGradient id="b" x1="50.001%" x2="50.001%" y1="100.006%" y2="-.001%">
            <stop offset="0%" stop-color="gray" stop-opacity=".25"/>
            <stop offset="54%" stop-color="gray" stop-opacity=".12"/>
            <stop offset="100%" stop-color="gray" stop-opacity=".1"/>
        </linearGradient>
    </defs>
    <g fill="none" fill-rule="evenodd" transform="translate(20 10)">
        <ellipse cx="161.128" cy="195.767" fill="#ECF6FC" fill-rule="nonzero" rx="108.959" ry="31.131"/>
        <path fill="#322AE3" fill-rule="nonzero" d="M264.794 74.665s-19.301 19.3-8.405 47.941c10.896 28.64-18.679 76.271-18.679 76.271s.311-.046.906-.15c39.642-6.997 59.339-52.337 37.295-86.017-8.184-12.521-14.924-27.212-11.117-38.045z"/>
        <path stroke="#535461" stroke-width=".623" d="M264.794 74.665s-10.896 23.66 0 42.96c10.896 19.302 1.868 73.47-27.084 81.252"/>
        <path fill="#5397FE" fill-rule="nonzero" d="M299.169 152.732s-22.025-3.509-24.033 16.232c-2.008 19.74-42.338 22.473-42.338 22.473s.261.18.756.504c33.31 21.867 65.154 13.928 60.357-15.108-1.796-10.793-1.653-21.636 5.258-24.101z"/>
        <path stroke="#535461" stroke-width=".623" d="M299.169 152.732s-17.097 3.754-15.693 19.301c1.404 15.547-25.4 34.176-50.69 19.398"/>
        <path fill="#ECF6FC" fill-rule="nonzero" d="M47.444.336c-2.51-.087-5.08 0-7.434.878-6.404 2.388-9.44 10.199-8.452 16.963.986 6.765 5.046 12.64 9.258 18.022 4.212 5.383 8.776 10.697 11.086 17.122 1.151 3.21 1.69 6.805.52 10.009-1.806 4.94-7.25 7.702-12.478 8.274-5.227.573-10.475-.544-15.721-.934-2.2-.155-4.464-.174-6.537.548-2.276.788-4.172 2.394-5.915 4.07C4.969 81.855-.476 90.821.405 100.235c.996 10.671 9.88 19.108 19.612 23.631 3.222 1.5 6.631 2.715 9.467 4.857 7.472 5.647 9.15 16.228 8.406 25.57-.744 9.343-3.279 18.695-1.868 27.956 1.659 10.772 9.003 20.5 18.909 25.045 8.825 4.047 19.87 3.795 27.706-1.93 3.82-2.802 6.709-6.665 9.221-10.672a92.107 92.107 0 0 0 9.168-19.264c1.093-3.21 2.12-6.662 4.67-8.894 1.557-1.373 3.574-2.141 5.57-2.74 6.014-1.799 12.349-2.294 18.42-3.894 6.07-1.6 12.178-4.582 15.478-9.915 4.67-7.568 2.49-17.246 2.512-26.15.038-20.285 12.175-38.447 16.655-58.215 1.463-6.463 2.008-13.614-1.26-19.376-2.223-3.932-5.968-6.734-9.906-8.913-8.655-4.806-18.492-6.945-28.17-9.028-13.453-2.889-29.787-3.262-40.213-12.608C74.777 6.731 61.088.336 47.444.336z"/>
        <path fill="url(#a)" fill-rule="nonzero" d="M63.55 69.201c0-4.89-.766-9.748-2.269-14.401l-3.735-11.584v-.573c.115-7.424-5.672-11.13-7.901-10.727-2.282.41-8.614-2.765-8.614-2.765v.087a11.86 11.86 0 0 1-1.17-1.6 10.155 10.155 0 0 0 2.088-14.376 4.461 4.461 0 0 0 1.504-2.017c.516-1.454.121-3.114-.72-4.409a8.542 8.542 0 0 0-1.245-1.485 15.765 15.765 0 0 0-2.322-1.899C37.089 2.014 34.808.778 32.317.34a2.852 2.852 0 0 0-1.31 0c-.375.151-.73.343-1.062.573-1.706.971-3.83.551-5.797.448-1.967-.102-4.358.449-4.98 2.295-.194.57-.181 1.186-.312 1.771-.311 1.432-1.416 2.544-2.27 3.736-.852 1.192-1.49 2.802-.78 4.097.242.436.622.837.622 1.335 0 .358-.212.679-.311 1.021-.215.779.19 1.557.812 2.12.268.29.584.53.934.713.987.505 2.123.66 3.129 1.127a5.14 5.14 0 0 1 1.363.934 5.36 5.36 0 0 1 1.482 3.87l.209.021v.184c.218.025.448.047.675.056.327.528.701 1.025 1.118 1.485-.07.266-.15.536-.24.81-.732.507-6.715 4.492-13.52 3.533C4.816 29.444.663 61.198.663 61.198c-.27 1.815-.4 3.649-.392 5.485-.031 4.67.95 10.78 6.413 9.88l2.904-.955v15.705s.414 4.303-1.036 7.16c-1.451 2.858 4.567 1.844 4.567 1.844s.23.24.653.647l-.134.377.178.18a41.183 41.183 0 0 1-3.185 7.811l.171.087a6.283 6.283 0 0 1-.17.312s2.234 1.142 5.31 2.615c2.472 8.355 7.883 27.706 6.102 31.392l.05.106c.333.691 2.194 4.766 1.818 8.499-.34 3.337 4.28 18.5 6.005 24.008l-.816.165 2.905 10.447-.623 6.762s-3.527 9.423 4.773 7.58c8.3-1.842 6.017-9.423 6.017-9.423l.209-15.366s-.8-.445-1.787-.872c-.679-1.833-2.158-6.167-2.158-9.165 0-3.891-2.699-20.692-2.699-20.692V145.668l-.015-.224v-.037c0-.209-.034-.495-.06-.844v-.019c-.31-4.542-1.245-19.973-.563-28.018.6-.408 1.224-.78 1.868-1.114 2.02 5.105 7.229 18.9 6.896 24.687-.414 7.16-.103 1.538 0 .622.03-.283.053.06.062.829V144.579c0 .622 0 1.313-.022 2.032v.436c0 .44 0 .888-.022 1.342 0 .623-.025 1.227-.037 1.852-.031 1.401-.072 2.818-.122 4.144 0 .147-.005.294-.015.439-.01.29-.022.575-.034.853l-.038.815c-.012.264-.026.52-.04.77-.016.292-.034.572-.05.84l-1.127-.162-.24 2.59a28.161 28.161 0 0 0 1.557 12.141c.386 1.065.685 1.946.75 2.26.209 1.025 0 8.406 0 8.406s1.245 9.629 7.058 7.782c2.615-.83 3.885-3.359 4.492-5.893a14.613 14.613 0 0 0-.72-8.8c-.824-2.074-1.668-4.981-1.073-7.229 1.036-3.891 1.036-9.423 1.036-9.423l-.641-.09c.16-.304.304-.616.433-.935 0 0-.209-14.136 1.659-15.98 1.027-1.014.934-3.452.623-5.444a37.254 37.254 0 0 1-.312-8.717c.128-1.497.312-2.801.526-3.265.548-1.084 1.096-12.004-1.329-17.26l.498-.155-.078-.386.078-.025c.366.977.782 1.934 1.246 2.867.122.096.263.166.414.206 6.72-1.18 6.992-7.453 6.618-10.877.283.137.439.224.439.224l.623-9.028c.638-1.442.874-3.281.859-5.27.028-7.111-3.384-16.438-3.384-16.438zm-7.408 25.661c-.461-3.931-1.1-7.633-1.1-7.633L51.93 76.165v-4.028l4.937 18.43-.725 4.295z" opacity=".5" transform="translate(32.688 9.65)"/>
        <path fill="#5A5773" fill-rule="nonzero" d="M74.833 164.948l-.23 2.53a27.853 27.853 0 0 0 1.51 11.877c.37 1.043.66 1.902.721 2.21.2 1.003 0 8.21 0 8.21s1.202 9.41 6.809 7.608c2.521-.81 3.736-3.284 4.333-5.76.648-2.87.405-5.87-.697-8.598-.797-2.026-1.613-4.875-1.037-7.063 1.003-3.804 1.003-9.209 1.003-9.209l-12.412-1.805z"/>
        <path fill="#605D82" fill-rule="nonzero" d="M68.828 121.501s7.807 19.021 7.406 26.026c-.402 7.004-.1 1.5 0 .6.177-1.603 0 17.434-.601 19.613 0 0 8.209 6.005 11.412-2.002 0 0-.199-13.812 1.6-15.615.99-.99.894-3.375.601-5.32a36.875 36.875 0 0 1-.31-8.508c.12-1.463.289-2.752.506-3.191.601-1.202 1.202-14.816-2.403-18.62l-18.211 7.017z"/>
        <path fill="#000" fill-rule="nonzero" d="M76.635 167.75c.601-2.202.778-21.226.601-19.613-.1.9-.402 6.407 0-.6.402-7.009-7.406-26.026-7.406-26.026l17.468-6.719a4.64 4.64 0 0 0-.25-.289l-18.217 7.008s7.807 19.02 7.406 26.025c-.402 7.005-.1 1.5 0 .6.177-1.602 0 17.434-.601 19.613 0 0 3.278 2.398 6.5 2.142-2.867-.215-5.5-2.142-5.5-2.142z" opacity=".1"/>
        <path fill="#5A5773" fill-rule="nonzero" d="M62.02 183.166l2.801 10.21-.6 6.606s-3.403 9.209 4.603 7.407c8.007-1.803 5.806-9.209 5.806-9.209l.2-15.014s-3.204-1.803-4.605-1.6c-1.4.202-8.206 1.6-8.206 1.6z"/>
        <path fill="#605D82" fill-rule="nonzero" d="M48.206 116.698s9.209 29.83 7.008 34.434c0 0 2.2 4.405 1.802 8.405-.398 4 6.407 25.425 6.407 25.425l10.012-1.803s-2.403-6.005-2.403-9.81c0-3.803-2.603-20.234-2.603-20.234s-2.2-30.032.402-33.236l-20.625-3.181z"/>
        <g fill="#000" fill-rule="nonzero" opacity=".1">
            <path d="M68.052 122.32c-1.659 6.799.175 31.819.175 31.819s2.602 16.415 2.602 20.235c0 2.905 1.398 7.089 2.061 8.907l.542-.097s-2.403-6.005-2.403-9.81c0-3.803-2.603-20.234-2.603-20.234s-1.675-22.866-.374-30.82zM55.214 151.132l.05.102c.015-.102.03-.211.04-.31-.026.07-.056.14-.09.208zM68.376 120.863c.091-.345.244-.671.452-.962l-20.622-3.203s.122.389.33 1.083l19.84 3.082z"/>
        </g>
        <path fill="#A1616A" fill-rule="nonzero" d="M96.254 105.886s3.004 11.207-6.005 12.813a1.096 1.096 0 0 1-.402-.199s-5.205-10.21-1.201-14.214l7.608 1.6zM59.417 31.417s.6 8.406-6.006 12.412c-6.606 4.007 14.01 15.015 14.01 15.015l10.811-17.219s-4.6.595-7.403-7.406l-11.412-2.802z"/>
        <path fill="#000" fill-rule="nonzero" d="M55.012 44.424s10.21 21.222 19.42 1.202l14.214 70.468s-22.026 6.808-22.222 10.011c-.196 3.204-22.218-8.206-22.218-8.206s4.804-8.81 3.605-14.214c-1.199-5.404 7.2-59.261 7.2-59.261z" opacity=".1"/>
        <path fill="#E1E7EF" fill-rule="nonzero" d="M55.012 44.022s10.21 21.222 19.42 1.202l14.214 70.471s-22.026 6.809-22.222 10.012c-.196 3.203-22.218-8.21-22.218-8.21s4.804-8.81 3.605-14.214c-1.199-5.404 7.2-59.26 7.2-59.26z"/>
        <path fill="#5A5773" fill-rule="nonzero" d="M65.023 188.772s-2.602-5.806 3.403-5.806 5.006 5.205 5.006 5.205l-8.409.601zM78.637 173.755s-2.403-6.208 3.605-6.407c6.008-.2 3.004 5.603 3.004 5.603l-6.61.804z"/>
        <path fill="#000" fill-rule="nonzero" d="M73.531 39.511s6.105 3.114 8.31 2.703c2.203-.411 8.006 3.402 7.608 11.01l3.617 11.351a46.354 46.354 0 0 1 2.18 14.074s5.204 14.414 2.403 20.82l-.601 8.81s-4.604-2.602-9.411-1.802l1.21-7.194-5.416-20.425-9.01-21.823-.89-17.524z" opacity=".1"/>
        <path fill="#67647E" fill-rule="nonzero" d="M73.531 39.116s6.105 3.113 8.31 2.702c2.203-.41 8.006 3.403 7.608 11.011l3.617 11.35a46.354 46.354 0 0 1 2.18 14.075s5.204 14.414 2.403 20.82l-.601 8.81s-4.604-2.602-9.411-1.802l1.202-7.207-5.408-20.419-9-21.822-.9-17.518z"/>
        <path fill="#000" fill-rule="nonzero" d="M83.643 63.442v22.623l3.004 10.812s2.002 11.81 1.4 15.416c-.6 3.605-10.21 4.405-12.813 1.4-2.602-3.004-1.201-28.64-1.201-28.64l-.502-37.528.402-1.202 9.71 17.119z" opacity=".1"/>
        <path fill="#67647E" fill-rule="nonzero" d="M84.054 62.443v22.622l3.004 10.812s2.002 11.811 1.4 15.416c-.6 3.605-10.21 4.405-12.813 1.401-2.602-3.004-1.201-28.64-1.201-28.64l-.502-37.538 10.112 15.927z"/>
        <path fill="#000" fill-rule="nonzero" d="M43.702 81.261l6.406 19.924-3.004 8.508s14.215 15.015 23.224 7.808c0 0 1.002-30.633-1.002-37.84C67.32 72.454 57.714 48.22 57.714 48.22l-1.99-6.398-10.609 6.006-1.413 33.434z" opacity=".1"/>
        <path fill="#67647E" fill-rule="nonzero" d="M43.2 80.259V99.87s.402 4.206-1.002 7.008c-1.404 2.802 4.405 1.802 4.405 1.802s14.215 15.015 23.224 7.808c0 0 1.002-30.633-1.003-37.84-2.004-7.206-11.611-31.442-11.611-31.442L55.21 40.8 44.6 46.805l-1.4 33.454z"/>
        <path fill="#000" fill-rule="nonzero" d="M58.716 37.317s-6.105 4.504-13.112 3.502c-7.008-1.002-11.011 30.032-11.011 30.032s-2.603 16.017 5.806 14.616l18.62-6.207s-4.004-4.206-3.403-9.61l-9.013 3.601.405-17.215 11.708-18.72z" opacity=".1"/>
        <path fill="#000" fill-rule="nonzero" d="M34.991 70.45s-2.602 16.016 5.806 14.615l18.62-6.207s-4.004-4.203-3.403-9.61l-9.006 3.605-12.017-2.404z" opacity=".1"/>
        <path fill="#A1616A" fill-rule="nonzero" d="M55.572 71.358s6.248-8.215 10.85-4.27c4.6 3.944-9.2 11.172-9.2 11.172l-1.65-6.902z"/>
        <path fill="#67647E" fill-rule="nonzero" d="M58.716 36.915s-6.105 4.505-13.112 3.502C38.596 39.415 34.593 70.45 34.593 70.45s-2.603 16.017 5.806 14.616l18.62-6.207s-4.004-4.206-3.403-9.61l-9.013 3.605.405-17.219 10.21-8.405 1.498-10.314z"/>
        <path fill="#000" fill-rule="nonzero" d="M71.029 34.611L59.616 31.81s.594.672-.1 3.303c1.837 2.107 4.094 4.906 7.107 4.906a9.962 9.962 0 0 0 5.984-1.983 18 18 0 0 1-1.578-3.425z" opacity=".1"/>
        <circle cx="66.424" cy="29.609" r="10.012" fill="#A1616A" fill-rule="nonzero"/>
        <path fill="#000" fill-rule="nonzero" d="M70.22 25.263c2.321-.396 4.874-1.426 5.652-3.649.499-1.422.119-3.041-.694-4.308-.812-1.267-2.008-2.242-3.24-3.113-2.002-1.407-4.21-2.615-6.619-3.039-.415-.1-.848-.1-1.264 0a5.218 5.218 0 0 0-1.024.56c-1.647.95-3.695.54-5.604.44-1.908-.1-4.196.438-4.797 2.241-.187.557-.174 1.158-.311 1.73-.312 1.402-1.367 2.491-2.18 3.659-.812 1.167-1.438 2.746-.753 4.003.234.427.623.819.623 1.305-.06.345-.165.68-.311.999-.284 1.033.541 2.076 1.494 2.568.952.492 2.048.645 3.02 1.102a5.292 5.292 0 0 1 2.948 4.9c.884.103 1.914.156 2.512-.504.268-.296.398-.691.641-1.006.312-.41.797-.653 1.196-.983 2.095-1.722.607-4.1 1.793-5.956.622-.955 1.612-.663 2.615-.647 1.44.033 2.88-.068 4.302-.302z" opacity=".1"/>
        <path fill="#3F3D56" fill-rule="nonzero" d="M70.02 25.064c2.322-.396 4.875-1.426 5.653-3.649.498-1.423.119-3.041-.694-4.309-.812-1.267-2.008-2.24-3.24-3.113-2.002-1.407-4.21-2.615-6.62-3.038-.415-.1-.848-.1-1.263 0a5.218 5.218 0 0 0-1.024.56c-1.647.95-3.696.539-5.604.44-1.908-.1-4.196.438-4.797 2.24-.187.558-.174 1.159-.311 1.732-.312 1.4-1.367 2.49-2.18 3.658-.812 1.167-1.438 2.745-.753 4.003.233.426.623.819.623 1.304-.06.346-.165.681-.312 1-.283 1.033.542 2.076 1.495 2.568.952.492 2.048.644 3.02 1.102a5.292 5.292 0 0 1 2.957 4.912c.884.103 1.914.156 2.512-.504.268-.296.398-.691.641-1.005.312-.411.797-.654 1.196-.984 2.095-1.722.607-4.1 1.793-5.955.623-.956 1.612-.664 2.615-.648a23.105 23.105 0 0 0 4.293-.314z"/>
        <path fill="#000" fill-rule="nonzero" d="M82.14 58.738s2.2 11.413 1.2 15.818c-.61 2.562-.52 5.242.262 7.757M46.56 63.541s-.96 7.609.638 9.209" opacity=".1"/>
        <path fill="#000" fill-rule="nonzero" d="M102.461 157.305a.467.467 0 1 0 0-.934.467.467 0 0 0 0 .934z"/>
        <path fill="url(#b)" fill-rule="nonzero" d="M170.287 65.858v-.259L85.349.286a.311.311 0 0 0-.37 0L.036 65.6v101.238H.2V167h170.253V65.761l-.165.097z" opacity=".5" transform="translate(75.96 37.046)"/>
        <path fill="#FFF" fill-rule="nonzero" d="M243.314 201.06H78.942v-97.752l82.186-63.196 82.186 63.196z"/>
        <path fill="#FFF4D9" fill-rule="nonzero" d="M237.399 195.266H84.857V104.55l76.27-58.647L237.4 104.55z"/>
        <path fill="#322AE3" fill-rule="nonzero" d="M93.953 68.942l93.05-24.394 31.026 118.345-93.051 24.394z"/>
        <path fill="#FFF" fill-rule="nonzero" d="M113.497 62.527h96.195v122.345h-96.195z"/>
        <path fill="#000" fill-rule="nonzero" d="M79.72 103.464l82.186 48.876-82.186 48.875z" opacity=".05"/>
        <path fill="#FFF" fill-rule="nonzero" d="M79.098 103.464l82.186 48.876-82.186 48.875z"/>
        <path fill="#000" fill-rule="nonzero" d="M242.847 103.464L160.66 152.34l82.186 48.875z" opacity=".05"/>
        <path fill="#FFF" fill-rule="nonzero" d="M243.47 103.464l-82.186 48.876 82.185 48.875z"/>
        <path fill="#000" fill-rule="nonzero" d="M79.098 199.659l82.186-64.13 82.185 64.13z" opacity=".05"/>
        <path fill="#FFF" fill-rule="nonzero" d="M79.098 201.215l82.186-64.13 82.185 64.13z"/>
        <path stroke="#535461" stroke-width=".623" d="M95.8 208.64s-4.129-14.009.775-24.326a22.131 22.131 0 0 0 1.79-13.884 37.223 37.223 0 0 0-1.965-6.516"/>
        <path fill="#2EE2C4" fill-rule="nonzero" d="M99.448 157.395c0 1.719-3.113 6.697-3.113 6.697s-3.113-4.981-3.113-6.697a3.113 3.113 0 1 1 6.226 0zM104.6 166.909c-.934 1.441-6.25 3.932-6.25 3.932s.096-5.872 1.03-7.313a3.113 3.113 0 0 1 5.22 3.38zM104.364 183.162c-1.535.772-7.382.24-7.382.24s3.048-5.018 4.58-5.79a3.113 3.113 0 1 1 2.802 5.554v-.004zM101.425 195.425c-1.382 1.021-7.235 1.482-7.235 1.482s2.154-5.46 3.536-6.482a3.113 3.113 0 0 1 3.699 5zM91.808 171.17c1.246 1.196 6.97 2.438 6.97 2.438s-1.403-5.7-2.636-6.895a3.113 3.113 0 0 0-4.334 4.46v-.002zM88.552 185.556c1.535.772 7.381.24 7.381.24s-3.047-5.018-4.58-5.79a3.113 3.113 0 0 0-2.8 5.553v-.003zM87.307 199.97c1.382 1.021 7.235 1.482 7.235 1.482s-2.155-5.46-3.537-6.482a3.113 3.113 0 1 0-3.698 5z"/>
        <path fill="#0027FF" fill-rule="nonzero" d="M119.101 73.13h38.602v3.113h-38.602zM119.101 80.583h83.431v3.113h-83.431zM119.101 88.677h83.431v3.113h-83.431z" opacity=".5"/>
        <path fill="#0027FF" fill-rule="nonzero" d="M119.101 96.771h83.431v3.113h-83.431zM119.101 104.865h83.431v3.113h-83.431z" opacity=".4"/>
        <path fill="#0027FF" fill-rule="nonzero" d="M119.101 112.959h47.63v3.113h-47.63zM119.101 121.053h65.064v3.113h-65.064z" opacity=".3"/>
    </g>
</svg>
