<svg xmlns="http://www.w3.org/2000/svg" width="126" height="126" viewBox="0 0 126 126">
    <g fill="none" fill-rule="evenodd" stroke="#322AE3" transform="translate(15.72 14.52)">
        <path stroke-width="2.496" d="M14.317 83.443c5.126 5.126 24.298-5.705 43.108-24.261l.881-.876c19.09-19.088 30.343-38.783 25.137-43.99-5.126-5.125-24.298 5.706-43.108 24.262l-.881.876C20.364 58.542 9.11 78.237 14.317 83.444z"/>
        <path stroke-width="2.496" d="M14.317 14.317c-5.126 5.126 5.705 24.298 24.261 43.108l.876.881c19.088 19.09 38.783 30.343 43.99 25.137 5.125-5.126-5.706-24.298-24.262-43.108l-.876-.881C39.218 20.364 19.523 9.11 14.316 14.317z"/>
        <path stroke-width="2.496" d="M0 48.88c0 7.362 21.884 13.33 48.88 13.33l2.44-.015c25.862-.347 46.44-6.176 46.44-13.315 0-7.25-21.226-13.15-47.657-13.327l-1.223-.004C21.884 35.55 0 41.518 0 48.88z"/>
        <ellipse cx="48.88" cy="48.88" stroke-width="2.496" rx="13.331" ry="48.88"/>
        <circle cx="48.88" cy="48.88" r="7.406" fill="#2EE2C4" stroke-width="2.962"/>
    </g>
</svg>
