<svg xmlns="http://www.w3.org/2000/svg" width="340" height="240" viewBox="0 0 340 240">
    <defs>
        <linearGradient id="a" x1="50.03%" x2="50.03%" y1="99.998%" y2="-.004%">
            <stop offset="0%" stop-color="gray" stop-opacity=".25"/>
            <stop offset="54%" stop-color="gray" stop-opacity=".12"/>
            <stop offset="100%" stop-color="gray" stop-opacity=".1"/>
        </linearGradient>
    </defs>
    <g fill="none" fill-rule="nonzero" transform="translate(22 16)">
        <path fill="#ECF6FC" d="M174.234 33.34c-19.215-.667-37.515-6.871-54.991-13.658C101.766 12.895 84.457 5.376 65.7 1.78 53.639-.534 39.842-.86 30.122 5.607c-9.353 6.223-12.374 16.966-14 26.936-1.223 7.501-1.94 15.393 1.408 22.416 2.325 4.874 6.454 8.971 9.3 13.64 9.935 16.249 2.923 36.281-7.855 52.148-5.049 7.44-10.91 14.54-14.806 22.461-3.895 7.921-5.692 16.998-2.266 25.092 3.38 8.01 11.426 14.025 20.16 18.258 17.708 8.58 38.59 11.04 58.953 12.433 45.077 3.083 90.396 1.749 135.593.412 16.724-.497 33.526-.996 49.98-3.585 9.137-1.434 18.57-3.72 25.206-9.217 8.42-6.986 10.509-18.816 4.865-27.577-9.465-14.695-35.636-18.335-42.25-34.113-3.643-8.679.098-18.349 5.392-26.397 11.351-17.272 30.38-32.418 31.381-52.159.691-13.552-8.458-27.135-22.602-33.55-14.827-6.723-35.383-5.878-46.323 5.253-11.264 11.461-31.058 15.87-48.024 15.282z"/>
        <path fill="#536DFE" d="M239.851 181.464a8.19 8.19 0 0 0-3.345-.356c-1.374.149-1.18 2.24.199 2.142a9.88 9.88 0 0 0 2.035-.375l1.111-1.41zM240.268 181.483a8.176 8.176 0 0 1 .819 3.265c.045 1.382-2.054 1.48-2.15.101a10 10 0 0 1 .09-2.067l1.241-1.3zM243.393 177.008s-.672-2.11-4.783-1.291c-1.86.369-1.81 3.037.053 3.318h.08c2.713.378 3.656-.698 4.65-2.027zM243.821 176.883s2.208.173 2.346 4.358c.064 1.884-2.543 2.455-3.241.707 0-.027-.019-.05-.03-.077-.975-2.554-.143-3.718.925-4.988zM246.77 171.489a4.392 4.392 0 0 0-2.965-3.311c-2.782-.877-4.251 3.284-1.533 4.342a8.684 8.684 0 0 0 3.518.51l.98-1.541zM250.164 164.54s-1.124-2.657-4.04-3.188c-3.09-.566-4.025 4.076-.972 4.817 1.37.298 2.787.31 4.162.035l.85-1.664zM252.213 157.698a6.595 6.595 0 0 0-4.252-2.923c-2.657-.5-3.553 3.478-.943 4.159 1.638.4 3.352.376 4.98-.07l.215-1.166zM254.144 151.028a6.858 6.858 0 0 0-3.72-2.957c-2.657-.816-3.97 3.212-1.328 4.09a7.565 7.565 0 0 0 4.82-.02l.228-1.113zM254.957 144.951s-1.062-2.492-3.228-3.81c-2.413-1.47-4.711 2.126-2.392 3.744 1.43 1.002 3.26 1.693 5.4 1.23l.22-1.164zM255.359 137.742s-1.172-2.516-3.42-3.72c-2.514-1.328-4.7 2.344-2.333 3.928 1.549 1.033 3.483 1.703 5.537.895l.216-1.103zM255.109 131.168a16.302 16.302 0 0 0-3.189-3.627c-1.759-1.437-3.986 1.15-2.32 2.687 1.54 1.41 3.455 2.596 5.435 2.5l.074-1.56zM254.442 124.86a23.888 23.888 0 0 0-3.603-4.655c-1.377-1.329-3.412.696-2.126 2.096 1.485 1.594 3.489 3.247 5.896 3.97l-.167-1.41zM253.153 117.441a21.298 21.298 0 0 0-2.878-3.563c-1.387-1.358-3.478.685-2.147 2.096 1.414 1.502 3.242 2.907 5.387 3.386l-.362-1.919zM252.027 110.519a33.967 33.967 0 0 0-2.767-3.287c-1.11-1.145-2.885.465-1.838 1.671 1.23 1.42 2.808 2.676 4.623 2.878l-.018-1.262zM250.857 104.1a34.624 34.624 0 0 0-2.657-4.372c-.832-1.137-2.564.08-1.78 1.249 1.026 1.533 2.45 3.05 4.32 3.781l.117-.659zM249.893 95.567s-.657-1.114-1.595-2.408c-.866-1.193-2.694.04-1.891 1.276.903 1.384 2.035 2.564 3.353 2.798l.133-1.666zM249.433 89.912l-.832-4.158c-.22-1.1-1.86-.837-1.727.265.298 2.222 1.063 4.457 2.73 5.923l-.17-2.03zM249.927 78.093a.816.816 0 0 0-1.557.446c.185 1.156.466 2.293.84 3.402l.717-3.848zM246.957 171.407a4.392 4.392 0 0 1 4.347.935c2.126 1.985-.75 5.314-3.016 3.484a8.732 8.732 0 0 1-2.187-2.804l.856-1.615zM250.353 164.288s2.795-.675 4.958 1.35c2.293 2.147-.877 5.662-3.292 3.65a10.174 10.174 0 0 1-2.506-3.323l.84-1.677zM252.396 158.166a6.598 6.598 0 0 1 5.049-1.122c2.657.532 1.995 4.552-.68 4.21a9.94 9.94 0 0 1-4.592-1.927l.223-1.161zM254.277 151.066a6.85 6.85 0 0 1 4.55-1.358c2.779.242 2.481 4.464-.3 4.288a7.55 7.55 0 0 1-4.465-1.82l.215-1.11z"/>
        <path fill="#536DFE" d="M254.923 145.124s1.475-2.275 3.829-3.205c2.612-1.033 4.289 2.88 1.751 4.085-1.594.752-3.515 1.132-5.556.305l-.024-1.185zM255.016 137.633s1.49-2.338 3.874-3.23c2.657-.997 4.355 2.935 1.802 4.198-1.672.823-3.678 1.232-5.607.164l-.07-1.132zM254.516 131.1a16.294 16.294 0 0 1 2.339-4.226c1.408-1.783 4.148.266 2.84 2.126-1.2 1.709-2.806 3.274-4.783 3.606l-.396-1.507zM254.312 124.85a23.79 23.79 0 0 1 2.157-5.49c.954-1.653 3.47-.285 2.615 1.421-.978 1.953-2.444 4.092-4.554 5.46l-.218-1.392zM252.77 117.096a21.316 21.316 0 0 1 2.195-4.19c1.095-1.595 3.521-.033 2.52 1.615-1.09 1.796-2.626 3.603-4.685 4.517l-.03-1.942zM251.543 110.482c.296-1.402.68-2.784 1.15-4.137.532-1.507 2.82-.779 2.368.754-.531 1.802-1.443 3.6-3.008 4.539l-.51-1.156zM250.69 103.974c.41-1.659.943-3.285 1.594-4.865.553-1.297 2.52-.508 2.02.81-.649 1.728-1.69 3.53-3.343 4.666l-.271-.61zM249.412 96.151s.25-1.267.704-2.8c.42-1.414 2.556-.859 2.208.574-.388 1.594-1.063 3.095-2.232 3.754l-.68-1.528zM249.71 89.63l1.445-3.985c.383-1.063 1.977-.548 1.666.531-.624 2.153-1.709 4.252-3.582 5.448l.47-1.993zM251.511 78.51s.226-.18.571-.465c.705-.584 1.624.436.96 1.063a13.552 13.552 0 0 1-3.93 2.493l2.4-3.09zM251.415 76.201a52.347 52.347 0 0 1 2.883-5.134.531.531 0 0 0-.86-.608c-.85 1.164-1.685 2.867-2.318 5.37l.295.372z"/>
        <path fill="#444053" d="M249.768 97.3l.308-.033c-1.328-12.385-.768-20.022 1.555-21.502l-.168-.265c-2.46 1.575-3.045 9.111-1.695 21.8z"/>
        <path fill="#444053" d="M254.338 126.582l.46-.07a82.326 82.326 0 0 0-.595-3.454c-1.935-10.052-3.439-19.344-4.19-26.402l-.338-.265c.755 7.07 2.126 16.684 4.073 26.75.218 1.137.418 2.298.59 3.44z"/>
        <path fill="#444053" d="M232.815 189.18c.069-.055 7.148-5.47 13.363-15.858a66.962 66.962 0 0 0 7.865-19.607c1.964-8.639 2.02-18.7.604-28.122l-.415.333c3.189 21.146-2.894 37.565-8.57 47.056-6.154 10.292-13.15 15.651-13.222 15.704l.375.495z"/>
        <ellipse cx="51.555" cy="185.732" fill="#2B24BE" opacity=".083" rx="17.684" ry="3.401"/>
        <ellipse cx="51.258" cy="184.286" fill="#3F3D56" rx="2.059" ry="2.694"/>
        <ellipse cx="51.258" cy="180.991" fill="#3F3D56" rx="2.059" ry="2.694"/>
        <ellipse cx="51.258" cy="177.699" fill="#3F3D56" rx="2.059" ry="2.694"/>
        <ellipse cx="51.258" cy="174.404" fill="#3F3D56" rx="2.059" ry="2.694"/>
        <ellipse cx="51.258" cy="171.109" fill="#3F3D56" rx="2.059" ry="2.694"/>
        <ellipse cx="51.258" cy="167.817" fill="#3F3D56" rx="2.059" ry="2.694"/>
        <ellipse cx="51.258" cy="164.522" fill="#3F3D56" rx="2.059" ry="2.694"/>
        <path fill="#322AE3" d="M58.964 141.978c.282-.358.538-.735.768-1.13l-5.41-.887 5.845.043a9.869 9.869 0 0 0 .19-7.813l-7.85 4.071 7.238-5.314a9.864 9.864 0 1 0-16.289 11.035 9.962 9.962 0 0 0-1.124 1.8l7.023 3.647-7.483-2.513a9.866 9.866 0 0 0 1.595 9.26 9.864 9.864 0 1 0 15.502 0 9.856 9.856 0 0 0 0-12.194l-.005-.005z"/>
        <path fill="#000" d="M41.352 148.076a9.832 9.832 0 0 0 2.11 6.096 9.864 9.864 0 1 0 15.502 0c1.323-1.677-17.612-7.204-17.612-6.096z" opacity=".112"/>
        <path fill="#FFF" d="M61.64 69.683v117.372a4.097 4.097 0 0 0 4.097 4.097H234.17a4.097 4.097 0 0 0 4.097-4.097V69.683H61.64z"/>
        <rect width="42.223" height="24.784" x="75.616" y="80.19" fill="#000" opacity=".1" rx="2.298"/>
        <rect width="42.223" height="24.784" x="128.843" y="80.19" fill="#000" opacity=".1" rx="2.298"/>
        <rect width="41.035" height="24.085" x="76.209" y="80.538" fill="#322AE3" rx="2.298"/>
        <rect width="41.035" height="24.085" x="182.663" y="80.538" fill="#FFF7E3" rx="2.298" transform="rotate(-180 203.18 92.58)"/>
        <rect width="41.035" height="24.085" x="129.436" y="80.538" fill="#322AE3" rx="2.298" transform="rotate(-180 149.953 92.58)"/>
        <rect width="41.035" height="24.085" x="76.209" y="115.329" fill="#FFF7E3" rx="2.298"/>
        <rect width="41.035" height="24.085" x="182.663" y="115.329" fill="#FFF7E3" rx="2.298" transform="rotate(-180 203.18 127.371)"/>
        <rect width="41.035" height="24.085" x="129.436" y="115.329" fill="#FFF7E3" rx="2.298" transform="rotate(-180 149.953 127.371)"/>
        <rect width="41.035" height="24.085" x="76.209" y="150.12" fill="#FFF7E3" rx="2.298"/>
        <rect width="41.035" height="24.085" x="182.663" y="150.122" fill="#FFF7E3" rx="2.298" transform="rotate(-180 203.18 162.165)"/>
        <rect width="41.035" height="24.085" x="129.436" y="150.122" fill="#FFF7E3" rx="2.298" transform="rotate(-180 149.953 162.165)"/>
        <path fill="#322AE3" d="M61.64 48.954v21.324h176.627V48.954a4.1 4.1 0 0 0-4.097-4.1H65.737a4.097 4.097 0 0 0-4.097 4.1zm43.71 6.308a3.271 3.271 0 1 1 0-6.542 3.271 3.271 0 0 1 0 6.542zm89.206 0a3.271 3.271 0 1 1 2.311-.956 3.271 3.271 0 0 1-2.316.956h.005z"/>
        <path fill="#000" d="M105.35 48.125a3.866 3.866 0 1 0-.005 7.732 3.866 3.866 0 0 0 .006-7.732zm0 7.137a3.271 3.271 0 1 1 0-6.542 3.271 3.271 0 0 1 0 6.542zM194.55 48.125a3.866 3.866 0 1 0 0 7.732 3.866 3.866 0 0 0 0-7.732zm0 7.137a3.271 3.271 0 1 1 0-6.542 3.271 3.271 0 0 1 0 6.542z" opacity=".1"/>
        <circle cx="274.517" cy="111.853" r="4.058" fill="#ECF6FC"/>
        <circle cx="289.034" cy="93.757" r="6.802" fill="#ECF6FC"/>
        <circle cx="280.028" cy="126.765" r="6.802" fill="#ECF6FC"/>
        <circle cx="9.632" cy="92.089" r="9.632" fill="#ECF6FC"/>
        <path fill="url(#a)" d="M245.965 196.998a8.503 8.503 0 0 0-1.971-1.108.407.407 0 0 0-.173-.045 30.335 30.335 0 0 1-4.065-3.502c.265-.213.51-.42.77-.625-1.594-.76-2.48-2.5-3.34-4.07a40.161 40.161 0 0 0-8.86-11.039c-.087-.337-.6-.265-.873-.483a.702.702 0 0 1-.194-.678c.042-.244.154-.47.215-.71.146-.56.018-1.15-.045-1.726-.064-.577-.038-1.22.345-1.65.122-.141.28-.25.399-.394.254-.342.35-.776.265-1.193a4.236 4.236 0 0 0-.265-1.209 7227.95 7227.95 0 0 0 3.903-10.647c.912-2.482 1.831-5.017 1.924-7.664.074-2.126-.473-4.334-1.76-5.957.235-.056.469-.115.7-.181-1.52-2.014-1.685-4.682-1.725-7.22-.021-1.265-.064-2.53-.13-3.797.441.194.888.367 1.345.516l.425.13a14.655 14.655 0 0 0 3.056.552c-.458-1.144-.914-2.29-1.369-3.438a4.698 4.698 0 0 1-.425-1.613v-.106c0-.064 0-.128.013-.191a2.1 2.1 0 0 1 .104-.447c.023-.071.05-.141.082-.21.095-.21.209-.41.34-.598.096-.146.202-.287.309-.43.396-.462.717-.983.954-1.544.093-.284.142-.58.146-.88a4.329 4.329 0 0 0-.08-.903 7.252 7.252 0 0 0-.138-.587c-.035-.12-.072-.24-.11-.356l-.031-.096a7.787 7.787 0 0 0-.09-.266l-.032-.09c-.035-.096-.07-.189-.107-.284l-.02-.056c-.508-1.305-1.183-2.548-1.595-3.89-.108-.357-.197-.72-.266-1.087-.018-.093-.032-.189-.048-.282-.016-.093-.024-.16-.034-.239a16.12 16.12 0 0 1-.035-.279l-.024-.266c0-.085-.013-.17-.018-.265 0-.162-.016-.325-.019-.487v-.172-.37-.196c0-.123.019-.245.03-.364 0-.059 0-.117.018-.173.018-.177.042-.354.072-.532.026-.156.055-.316.087-.475.097-.437.146-.882.15-1.329 0-.085 0-.173-.02-.266-.018-.093-.02-.143-.034-.212a.531.531 0 0 1 0-.064c0-.048-.024-.096-.035-.143-.01-.048-.013-.046-.02-.067-.009-.021-.03-.093-.046-.138l-.021-.061a2.454 2.454 0 0 0-.059-.141l-.018-.048a3.914 3.914 0 0 0-.441-.723c-.875-1.147-2.328-2.022-3.128-3.287a7.318 7.318 0 0 1-.895-2.657c-.04-.212-.075-.425-.112-.635-.037-.21-.07-.417-.106-.624-.024-.128-.048-.266-.075-.383l-.016-.082c-.02-.101-.042-.205-.066-.306l-.016-.072c-.024-.106-.048-.212-.074-.318l-.016-.056a15.442 15.442 0 0 0-.085-.335.22.22 0 0 1 0-.04c-.032-.117-.067-.234-.101-.35v-.025a14.36 14.36 0 0 0-.115-.361c-.04-.122-.082-.247-.127-.37-.048-.124-.093-.25-.144-.371a9.832 9.832 0 0 0-1.344-2.392c-1.217-1.562-3.099-2.684-5.049-2.61-1.047.04-2.051.407-3.037.771l-2.56.944.716-.33c-.744.067-1.504.136-2.177.465-.672.33-1.24.975-1.262 1.73-.013.438.16.874.104 1.31-.093.72-.755 1.21-1.098 1.847-.2.384-.292.816-.265 1.249V102.816a.234.234 0 0 0 0 .042v.085a84.817 84.817 0 0 1-3.189-1.459c-1.756-.863-3.534-1.878-4.629-3.515-.35-.531-.622-1.105-.97-1.632-.399-.566-.843-1.099-1.328-1.594l-3.26-3.529c-.25.47.071 1.026.324 1.494.268.49.47 1.014.603 1.557a.739.739 0 0 1-.016.545 1.063 1.063 0 0 1-.447.316 1.594 1.594 0 0 0-.672 1.825 2.02 2.02 0 0 0 1.507 1.313c.23.026.456.082.672.165.393.194.58.645.86.983.514.616 1.33.848 2.108 1.05 1.206 1.392 2.46 2.726 3.667 4.118 1.826 2.107 3.694 4.252 6.074 5.676.248.149.5.287.755.415 0 .042 0 .085-.013.127a1.44 1.44 0 0 0 .114.93c.213.338.651.439 1.042.508l1.801.321a6.154 6.154 0 0 1-.087.696c-.024.141-.054.28-.08.42l-.032.18v.027c0 .008 0 .096-.019.147-.018.05 0 .034 0 .05v.353c.062.707.532 1.292 1.002 1.831l.253.306a4.252 4.252 0 0 0-.821 1.722c-.08.394-.12.796-.117 1.198a2.08 2.08 0 0 0-.532.83 3.79 3.79 0 0 0-.138 1.341v.532c-.03.634.074 1.269.308 1.86.024.047.05.09.075.135-.399.781-1.063 1.39-1.539 2.126a4.613 4.613 0 0 0 .423 5.282c.364.42.831.824.874 1.382a5.184 5.184 0 0 1-.075.755c-.042.6.234 1.169.383 1.751.125.484.13 1.063-.146 1.45-.28.408-.408.9-.364 1.393.135.752-.175 1.504-.229 2.267-.024.327 0 .659-.029.986a5.556 5.556 0 0 1-.194.924c0 .032-.016.067-.026.101-.657.29-1.308.59-1.935.938-.339.151-.618.409-.797.734-.106.326-.12.675-.043 1.01l.566 3.937-.098-.042c.044.645.09 1.292.138 1.942.035.492.08 1.013.372 1.406.149.159.283.33.402.513.223.452-.043.978-.24 1.44-.196.462-.265 1.119.168 1.369.226.157.47.287.725.387-.531 2.217-.042 4.539.452 6.763.377 1.7.755 3.4 1.135 5.097.148.72.231 1.453.25 2.19v.318c.053 1.012.231 2.013.53 2.981.59 1.988.025 4.374.21 6.54.124 1.042.332 2.072.623 3.08 1.283 5.09 2.428 10.081 2.87 15.316a3.848 3.848 0 0 0 1.838 1.283c-.053.643.019 1.38 0 1.754 0 .31-.049.619-.143.914-.226.59-.798.975-1.39 1.183a5.962 5.962 0 0 1-.566.159l.212-.18a4.746 4.746 0 0 0-3.536.621 1.4 1.4 0 0 0-.7.824c-.043.337.045.679.245.954a4.35 4.35 0 0 0 2.458 1.746c.99.26 2.007.402 3.03.422l1.876.109a.516.516 0 0 0 .122.667c.2.147.44.233.688.25a8.769 8.769 0 0 0 2.314.034.906.906 0 0 0 .532-.191.343.343 0 0 0 0-.508.56.56 0 0 0 .51-.372 1.51 1.51 0 0 0 .07-.672c-.051-.874-.128-2.144-.583-2.923a.741.741 0 0 0-.82-.361 31.887 31.887 0 0 1-.532-4.714c.468-.176.924-.382 1.365-.617-1.304-2.107-1.328-4.783-.93-7.232.159-.774.275-1.555.349-2.342.087-1.567-.15-3.342-1.018-4.639a16.6 16.6 0 0 1 4.145 3.752c1.836 2.391 2.955 5.288 5.206 7.28.295-.288.595-.575.898-.86.474.804.924 1.625 1.347 2.463a9.37 9.37 0 0 1 .781 1.942 8.984 8.984 0 0 1 .072 3.133 34.19 34.19 0 0 1-.226 1.65 4.49 4.49 0 0 1-.162.691.478.478 0 0 0-.05-.207c-.141-.247-.532-.135-.745.035a3.284 3.284 0 0 0-.916 1.063c-.124.203-.182.44-.165.677.07.29.264.533.531.664.986.577 2.224.16 3.282-.265a3.85 3.85 0 0 0 .83-.417c.53-.383.82-1.013 1.349-1.385a7.82 7.82 0 0 0 .816-.515c.491-.45.531-1.207.89-1.775.595-.98 1.926-1.233 2.447-2.272.603-1.148-.1-2.596-1.01-3.346z"/>
        <path fill="#A1616A" d="M223.058 201.675c-.002.307-.051.612-.147.903-.223.582-.797.962-1.387 1.167-.59.205-1.217.266-1.817.444-.264.06-.508.186-.71.366-.531.532-.212 1.488.41 1.884.621.396 1.413.383 2.152.332a28.35 28.35 0 0 0 4.655-.661c.553-.13 1.199-.385 1.286-.946a1.552 1.552 0 0 0-.042-.532 31.411 31.411 0 0 1-.598-5.774c0-.127-3.082-.21-3.37-.024-.642.423-.398 2.187-.432 2.84zM236.8 194.907c.51.845.99 1.707 1.438 2.585.332.608.594 1.25.781 1.916a8.806 8.806 0 0 1 .072 3.09 31.854 31.854 0 0 1-.228 1.63c-.088.531-.229 1.134-.683 1.44.41.243.908.287 1.355.12.438-.17.843-.418 1.193-.731 2.277-1.88 3.986-4.608 4.07-7.56.025-.23-.018-.463-.124-.67a1.329 1.329 0 0 0-.399-.356 30.624 30.624 0 0 1-4.71-3.956.577.577 0 0 0-.346-.221.598.598 0 0 0-.308.088c-.875.438-2.336 1.063-2.7 2.059.249.125.454.323.59.566z"/>
        <path fill="#3F3D56" d="M226.172 204.76c-1.913.797-3.986 1.084-6.056 1.358-.266.032-.55.053-.725-.133a.553.553 0 0 1-.048-.622 1.62 1.62 0 0 1 .444-.489l1.373-1.15a4.783 4.783 0 0 0-3.491.6 1.39 1.39 0 0 0-.696.797c-.045.335.043.673.244.944a4.342 4.342 0 0 0 2.455 1.722c.99.256 2.005.396 3.027.417l1.86.106a.502.502 0 0 0 .125.659c.202.147.441.235.69.252a8.86 8.86 0 0 0 2.312.032.885.885 0 0 0 .532-.188.335.335 0 0 0 0-.5.56.56 0 0 0 .51-.37c.071-.212.095-.438.07-.66-.051-.862-.128-2.127-.583-2.879-.454-.752-1.4-.162-2.043.104zM245.918 197.163a8.548 8.548 0 0 0-1.972-1.092.234.234 0 0 0-.356.09 20.23 20.23 0 0 0-2.904 5.599c-.38 1.143-.68 2.36-1.451 3.284-.101.123-.266.247-.404.176-.2-.101-.077-.423-.189-.617-.138-.244-.515-.133-.741.035-.38.282-.692.645-.914 1.063a1.063 1.063 0 0 0-.165.667.983.983 0 0 0 .518.653c.986.572 2.224.16 3.28-.265.29-.103.568-.242.826-.412.531-.375.82-1 1.35-1.363.282-.154.554-.324.815-.51.49-.444.532-1.191.888-1.754.595-.965 1.926-1.215 2.447-2.24.582-1.146-.12-2.575-1.028-3.314zM231.088 144.085c2.088 1.568 2.965 4.355 2.872 6.965-.093 2.609-1.01 5.112-1.918 7.56-1.302 3.502-2.603 7.003-3.901 10.503.145.384.234.787.266 1.196a1.47 1.47 0 0 1-.266 1.175c-.122.14-.266.25-.399.388-.382.425-.406 1.062-.345 1.628.06.566.191 1.151.045 1.704-.061.236-.173.46-.215.699a.694.694 0 0 0 .194.67c.265.212.797.143.874.477a39.715 39.715 0 0 1 8.848 10.895c.861 1.55 1.73 3.266 3.338 4.015a58.268 58.268 0 0 0-4.499 3.957c-2.245-1.967-3.364-4.828-5.197-7.175a16.475 16.475 0 0 0-4.14-3.701c.869 1.278 1.105 3.032 1.018 4.575-.074.776-.19 1.547-.349 2.31-.411 2.418-.374 5.048.93 7.137-1.392.723-2.992 1.26-4.546 1.044a3.869 3.869 0 0 1-2.477-1.413c-.44-5.166-1.594-10.098-2.867-15.112-.291-1-.499-2.023-.619-3.059-.186-2.125.38-4.49-.212-6.451a12.03 12.03 0 0 1-.532-2.94v-.315a12.043 12.043 0 0 0-.25-2.158l-1.132-5.027c-.494-2.198-.988-4.489-.454-6.675a3.547 3.547 0 0 1-.723-.38c-.433-.248-.364-.893-.167-1.35.196-.457.46-.975.239-1.422a3.47 3.47 0 0 0-.401-.507c-.293-.388-.338-.901-.372-1.385l-.138-1.918c.802.318 1.47.902 1.892 1.655-1.047-1.62-.532-3.933.241-5.702a2.599 2.599 0 0 1 2.44-1.932c4.26-.728 9.462-2.532 12.922.069z"/>
        <path fill="#000" d="M229.145 154.996s-2.094 1.397-2.094 2.444-.531 10.47-.531 10.47v6.643s.348 3.491 0 4.363c-.348.871 0 4.886 0 5.41 0 .523.531-5.41.531-5.41v-6.292l.532-14.312 1.562-3.316z" opacity=".1"/>
        <path fill="#A1616A" d="M217.467 106.597l-1.22-.476c-2.492-.999-4.987-2-7.4-3.172-1.754-.853-3.532-1.86-4.624-3.468-.35-.531-.622-1.09-.97-1.613-.4-.56-.844-1.087-1.328-1.576l-3.258-3.48c-.25.464.07 1.012.324 1.471.267.485.47 1.002.603 1.539a.712.712 0 0 1-.018.531c-.118.143-.27.25-.444.314a1.56 1.56 0 0 0-.672 1.799c.237.667.809 1.16 1.504 1.297.23.026.455.08.672.162.393.194.58.637.86.97.514.608 1.33.84 2.105 1.036 1.207 1.374 2.458 2.689 3.665 4.063 1.823 2.078 3.688 4.193 6.069 5.601a8.888 8.888 0 0 0 2.74 1.1c.32-2.063.785-4.1 1.392-6.098z"/>
        <path fill="#000" d="M217.467 106.597l-1.22-.476c-2.492-.999-4.987-2-7.4-3.172-1.754-.853-3.532-1.86-4.624-3.468-.35-.531-.622-1.09-.97-1.613-.4-.56-.844-1.087-1.328-1.576l-3.258-3.48c-.25.464.07 1.012.324 1.471.267.485.47 1.002.603 1.539a.712.712 0 0 1-.018.531c-.118.143-.27.25-.444.314a1.56 1.56 0 0 0-.672 1.799c.237.667.809 1.16 1.504 1.297.23.026.455.08.672.162.393.194.58.637.86.97.514.608 1.33.84 2.105 1.036 1.207 1.374 2.458 2.689 3.665 4.063 1.823 2.078 3.688 4.193 6.069 5.601a8.888 8.888 0 0 0 2.74 1.1c.32-2.063.785-4.1 1.392-6.098z" opacity=".15"/>
        <path fill="#536DFE" d="M215.235 113.535c-.39-.07-.83-.165-1.042-.5a1.4 1.4 0 0 1-.114-.916 25.711 25.711 0 0 1 1.328-5.873c.593 1.098 1.76 1.738 2.865 2.315a21.258 21.258 0 0 0 3.077 1.403c-.266-.085-.917 4.001-1.283 4.251-.463.324-1.579-.114-2.092-.202l-2.74-.478z"/>
        <circle cx="218.065" cy="106.743" r="5.585" fill="#A1616A"/>
        <path fill="#FBBEBE" d="M216.93 111.367s3.664 3.14 2.094 5.234c-1.57 2.094-2.445 3.492-.35 3.667 2.093.176 9.074-3.491 9.074-3.491s-6.457-5.235-5.41-8.376c1.046-3.14-5.408 2.966-5.408 2.966z"/>
        <path fill="#536DFE" d="M220.446 116.283a4.334 4.334 0 0 0-3.208 3.225c-.412 1.882.463 3.986-.361 5.719-.388.823-1.108 1.44-1.594 2.213a4.517 4.517 0 0 0 .42 5.211c.363.415.831.816.874 1.363-.007.25-.031.498-.075.744-.042.593.234 1.156.383 1.73.125.476.13 1.047-.146 1.43a2.07 2.07 0 0 0-.362 1.373c.133.744-.178 1.486-.23 2.238-.025.324 0 .648-.03.972a5.673 5.673 0 0 1-.191.912l-.468 1.724c2.535 1.084 5.23 1.475 7.972 1.425 2.455-.048 4.876-.556 7.278-1.063.73-.154 1.461-.309 2.181-.508-1.52-1.987-1.682-4.62-1.724-7.121-.066-4.169-.378-8.33-.933-12.463.736-1.39 1.063-2.938 1.366-4.482a7.581 7.581 0 0 0 .17-1.895c-.074-1.328-.686-2.59-1.284-3.794-.547-1.1-1.14-2.259-2.36-2.735a1.876 1.876 0 0 0-1.814.2c-.922.696-.648 1.897-.885 2.923-.31 1.328-1.536 2.282-2.84 2.657a9.234 9.234 0 0 1-2.987.279.531.531 0 0 1-.377-.872c.427-.473.858-.954 1.225-1.405z"/>
        <path fill="#A1616A" d="M224.771 137.872c-2.067 1.69-4.158 3.396-6.544 4.592-1.4.702-2.889 1.22-4.252 1.974a1.698 1.698 0 0 0-.797.723 1.786 1.786 0 0 0-.042.997l.605 4.177c.168 1.132 1.255 1.86 2.126 2.583-.048-.38-.125-.675.056-1.013.063-.105.13-.207.205-.305.372-.564.385-1.294.294-1.964-.09-.67-.265-1.329-.23-2.014a.659.659 0 0 1 .281-.585c2.968-1.427 6.165-2.522 9.165-3.877a9.712 9.712 0 0 0 2.224-1.262 3.423 3.423 0 0 0 1.291-2.144.42.42 0 0 0-.053-.327.444.444 0 0 0-.226-.133c-1.344-.489-2.763-.938-4.103-1.422z"/>
        <path fill="#000" d="M219.03 120.345c-1.026.173-2.105.705-2.453 1.688a3.75 3.75 0 0 0-.139 1.328 4.32 4.32 0 0 0 .311 1.842 5.2 5.2 0 0 0 .622.903c2.455 3.146 3.688 7.098 6.08 10.294.212.282.6.649.48.98a2.375 2.375 0 0 0-.113.267.531.531 0 0 0 .175.465c.127.117.226.261.29.422.045.168-.067.385-.24.372.287.888 1.167 1.406 2.001 1.826 1.387.698 2.923 1.249 4.467 1.097.29-1.161.694-2.474.532-3.656a9.492 9.492 0 0 0-.89-2.594l-1.04-2.269c-.884-1.937-1.777-3.888-3.01-5.623a8.503 8.503 0 0 1-1.114-1.793c-.316-.821-1.185-1.398-1.71-2.102-.782-1.063-1.595-2.126-2.642-2.894-.42-.324-1.095-.638-1.608-.553z" opacity=".1"/>
        <path fill="#536DFE" d="M219.03 119.822c-1.026.173-2.105.704-2.453 1.685a3.77 3.77 0 0 0-.139 1.328 4.32 4.32 0 0 0 .311 1.842 5.2 5.2 0 0 0 .622.903c2.455 3.146 3.688 7.098 6.08 10.294.212.282.6.649.48.98a2.375 2.375 0 0 0-.113.266.531.531 0 0 0 .175.465c.127.117.226.262.29.423.045.167-.067.385-.24.372.287.887 1.167 1.406 2.001 1.825 1.387.7 2.923 1.25 4.467 1.098.29-1.161.694-2.474.532-3.656a9.492 9.492 0 0 0-.89-2.594l-1.04-2.27c-.884-1.936-1.777-3.887-3.01-5.622a8.46 8.46 0 0 1-1.114-1.796c-.316-.818-1.185-1.395-1.71-2.1-.782-1.062-1.595-2.125-2.642-2.893-.42-.322-1.095-.635-1.608-.55z"/>
        <path fill="#3F3D56" d="M216.688 97.568c-.741.064-1.504.133-2.173.457-.67.324-1.241.962-1.263 1.706 0 .433.16.863.104 1.291-.093.712-.755 1.193-1.095 1.823-.595 1.095-.133 2.487.638 3.454.77.968 1.815 1.712 2.607 2.674a6.909 6.909 0 0 1 1.44 5.558c-.098.38-.146.77-.14 1.162.06.696.53 1.272.998 1.804a83.352 83.352 0 0 1 6.303 8.386c.577.85 1.096 1.737 1.552 2.657.452.952.797 1.967 1.424 2.809a7.416 7.416 0 0 0 2.091 1.794 14.769 14.769 0 0 0 6.697 2.16l-1.369-3.393c-.242-.604-.491-1.239-.412-1.884.152-1.223 1.385-2.025 1.786-3.189.266-.75.146-1.576-.072-2.338-.483-1.72-1.45-3.266-1.971-4.975a10.097 10.097 0 0 1-.298-4.626c.114-.68.3-1.363.215-2.046-.252-2.078-2.689-3.072-3.816-4.833-.728-1.132-.868-2.527-1.113-3.85-.353-1.933-.983-3.862-2.2-5.403-1.217-1.541-3.093-2.657-5.049-2.575-1.047.04-2.049.404-3.034.76l-2.562.933"/>
        <g fill="#000" opacity=".1">
            <path d="M228.122 101.907c.22 1.193.359 2.445.917 3.51-.077-.414-.14-.832-.218-1.24a15.476 15.476 0 0 0-.856-3.046c.067.258.112.516.157.776zM232.836 112.637c-.26 1.545-.157 3.13.298 4.629.125.406.265.797.436 1.195a10.116 10.116 0 0 1-.035-3.555c.114-.68.3-1.363.215-2.046a3.189 3.189 0 0 0-.69-1.594c-.04.462-.147.916-.224 1.37zM235.804 124.507c-.147-.5-.324-.99-.531-1.467a3.26 3.26 0 0 1-.101 1.536c-.401 1.16-1.637 1.966-1.786 3.188-.08.646.168 1.281.412 1.884.09.226.18.455.266.68a2.19 2.19 0 0 1 0-.294c.151-1.223 1.384-2.025 1.785-3.189.287-.75.173-1.576-.045-2.338zM228.478 130.881a7.44 7.44 0 0 1-2.09-1.796c-.63-.842-.976-1.86-1.428-2.809a22.408 22.408 0 0 0-1.552-2.657 83.458 83.458 0 0 0-6.542-8.673 2.732 2.732 0 0 0-.06.75c.06.695.53 1.272.998 1.804a83.352 83.352 0 0 1 6.303 8.386c.577.85 1.096 1.737 1.552 2.657.452.951.797 1.966 1.424 2.809a7.416 7.416 0 0 0 2.091 1.793 14.769 14.769 0 0 0 6.697 2.16l-.93-2.285a14.785 14.785 0 0 1-6.463-2.139zM214.807 106.714c-.797-.962-1.836-1.693-2.607-2.67a5.885 5.885 0 0 1-.202-.282c-.016.93.304 1.834.901 2.548.77.98 1.815 1.711 2.607 2.673.309.374.576.78.797 1.212a6.909 6.909 0 0 0-1.496-3.481z"/>
        </g>
        <path fill="#2EE2C4" d="M111.082 79.438l-1.926-1.938a1.023 1.023 0 0 0-1.454 0L95.604 89.487l-5.118-5.155a1.02 1.02 0 0 0-1.443 0l-1.947 1.927a1.034 1.034 0 0 0 0 1.453l7.772 7.831a1.031 1.031 0 0 0 1.45 0l14.764-14.652a1.023 1.023 0 0 0 0-1.453zM164.492 79.438l-1.926-1.938a1.023 1.023 0 0 0-1.454 0l-12.098 11.987-5.118-5.155a1.02 1.02 0 0 0-1.443 0l-1.947 1.927a1.034 1.034 0 0 0 0 1.453l7.772 7.831a1.031 1.031 0 0 0 1.451 0l14.763-14.652a1.023 1.023 0 0 0 0-1.453z"/>
    </g>
</svg>
