<svg xmlns="http://www.w3.org/2000/svg" width="40" height="40" viewBox="0 0 40 40">
    <defs>
        <linearGradient id="a" x1="67.529%" x2="59.969%" y1="28.95%" y2="43.775%">
            <stop offset="0%" stop-color="#0E10D0" stop-opacity="0"/>
            <stop offset="100%" stop-color="#0E10D0"/>
        </linearGradient>
        <linearGradient id="b" x1="50%" x2="50%" y1="100%" y2="0%">
            <stop offset="0%" stop-color="#0E10D0" stop-opacity="0"/>
            <stop offset="100%" stop-color="#0E10D0"/>
        </linearGradient>
        <linearGradient id="c" x1="50%" x2="50%" y1="0%" y2="100%">
            <stop offset="0%" stop-color="#2025EA" stop-opacity="0"/>
            <stop offset="100%" stop-color="#0E10D0"/>
        </linearGradient>
    </defs>
    <g fill="none" fill-rule="nonzero">
        <circle cx="20" cy="20" r="20" fill="#1700CC"/>
        <path fill="#5456FF" d="M17.074 14.106a3.303 3.303 0 1 1 3.303 3.303v3.303a6.606 6.606 0 0 0 0-13.212c-3.649 0-6.689 2.064-6.689 6.606v7.927h3.386v-7.927z"/>
        <path fill="url(#a)" d="M21.735 17.117c-.427.193-.89.293-1.358.292v3.303a6.593 6.593 0 0 0 5.125-2.438c.077-.04-2.62-1.675-3.767-1.157z" opacity=".3"/>
        <path fill="#5456FF" d="M13.688 23.107v1.733a7.432 7.432 0 0 0 7.432 7.433c4.104 0 7.432-2.667 7.432-7.432 0-4.765-4.07-7.432-8.175-7.432v3.303c2.28 0 4.872 1.848 4.872 4.129a4.128 4.128 0 0 1-4.129 4.128c-2.28 0-4.046-1.848-4.046-4.128v-1.734"/>
        <path fill="#FFF" d="M17.074 20.712v3.138h-3.386v-3.138H7v-3.303h13.294c4.104 0 8.258 2.667 8.258 7.432 0 4.765-3.328 7.431-7.432 7.431V28.97a4.128 4.128 0 0 0 4.13-4.128c0-2.281-2.676-4.13-4.956-4.13h-3.219z"/>
        <path fill="url(#b)" d="M13.688 16.575h3.385v.833h-3.386z" opacity=".3" transform="rotate(-180 15.38 16.992)"/>
        <path fill="url(#b)" d="M13.688 23.85h3.386v.833h-3.386z" opacity=".3"/>
        <path fill="url(#c)" d="M19.038 30.293l3.474.015v.33c0 .112-.03.222-.089.317h-3.385v-.662z" opacity=".3" transform="rotate(-90 20.775 30.624)"/>
    </g>
</svg>
