<svg xmlns="http://www.w3.org/2000/svg" width="126" height="126" viewBox="0 0 126 126">
    <g fill="none" fill-rule="evenodd" stroke="#322AE3" stroke-width="2.496" transform="translate(17.24 19.6)">
        <rect width="91.52" height="64.602" y="18.842" rx="8.075"/>
        <path d="M32.301 13.459V8.075a2.692 2.692 0 0 1 2.692-2.691h21.534a2.692 2.692 0 0 1 2.692 2.691v5.384"/>
        <path d="M26.918 13.459V2.692A2.692 2.692 0 0 1 29.609 0h32.302a2.692 2.692 0 0 1 2.691 2.692v10.767M34.993 28.264h21.534"/>
        <rect width="16.151" height="5.384" x="21.534" y="13.459" rx="2.692"/>
        <rect width="16.151" height="5.384" x="53.835" y="13.459" rx="2.692"/>
        <path d="M30 48.452H16.814a8.075 8.075 0 0 1-7.59-5.316l-6.207-17.07a5.384 5.384 0 0 1 5.06-7.224h76.148a5.384 5.384 0 0 1 5.059 7.224l-6.207 17.07a8.075 8.075 0 0 1-7.59 5.316H62.301m-8.075 0h-16.15"/>
        <rect width="8.075" height="16.151" x="28.712" y="40.376" fill="#2CDDC1" rx="4.038"/>
        <rect width="8.075" height="16.151" x="54.733" y="40.376" fill="#2CDDC1" rx="4.038"/>
    </g>
</svg>
