<svg xmlns="http://www.w3.org/2000/svg" width="126" height="126" viewBox="0 0 126 126">
    <g fill="none" fill-rule="evenodd" stroke="#322AE3" stroke-width="2.496" transform="translate(16.6 17.88)">
        <circle cx="46.699" cy="81.724" r="8.756"/>
        <path d="M72.968 72.968v5.837a2.919 2.919 0 0 1-2.919 2.919H55.455M13.134 40.862h1.46V67.13h-1.46C5.88 67.13 0 61.25 0 53.996c0-7.254 5.88-13.134 13.134-13.134zM20.431 35.025V5.837A5.837 5.837 0 0 1 26.268 0H67.13a5.837 5.837 0 0 1 5.838 5.837v29.188"/>
        <path d="M20.431 14.594a5.837 5.837 0 0 1 5.837-5.838H67.13a5.837 5.837 0 0 1 5.838 5.838M78.805 40.862h1.46c7.253 0 13.134 5.88 13.134 13.134 0 7.254-5.88 13.134-13.134 13.134h-1.46V40.862z"/>
        <rect width="11.675" height="37.943" x="67.13" y="35.025" fill="#2EE2C4" rx="2.919"/>
        <rect width="11.675" height="37.943" x="14.594" y="35.025" fill="#2EE2C4" rx="2.919"/>
    </g>
</svg>
