<svg xmlns="http://www.w3.org/2000/svg" width="340" height="240" viewBox="0 0 340 240">
    <g fill="none" fill-rule="nonzero" transform="matrix(-1 0 0 1 325 29)">
        <path fill="#ECF6FC" d="M295.58 76.72c-10.993-43.227-48.978-74.43-93.563-75.682C178.447.376 138.16 2 120.1 29.356c-32.282 48.902-4.76 98.772 18.106 104.376 13.471 3.301 45.192 17.69 54.148 28.34 16.136 19.148 47.178 42.942 84.148 5.66 26.796-27.022 26.4-62.218 19.078-91.012z"/>
        <path fill="#3F3D56" d="M41.525 109.493a40.254 40.254 0 0 1-.866-1.339l.45-.278c.274.444.561.888.853 1.321l-.437.296zM111.64 76.904a38.834 38.834 0 0 0-.456-1.506l.502-.163c.164.503.32 1.017.463 1.526l-.508.143zM195.574 35.276a44.67 44.67 0 0 0-.453-1.509l.502-.16c.162.504.316 1.017.46 1.526l-.51.143z"/>
        <ellipse cx="41.216" cy="115.388" fill="#536DFE" rx="8.797" ry="1"/>
        <ellipse cx="111.374" cy="83.498" fill="#536DFE" rx="8.797" ry="1"/>
        <ellipse cx="198.028" cy="50.288" fill="#536DFE" rx="8.797" ry="1"/>
        <path fill="#9391AA" d="M168.088 74.576l26.454-26.454.373.374-26.453 26.453zM115.993 77.956h44.426v1h-44.426zM83.036 106.404l24.848-24.848.374.374-24.848 24.848zM45.834 109.846h29.691v1H45.834zM8.26 142.693l29.503-29.504.374.373-29.505 29.505z"/>
        <path fill="#9391AA" d="M41.216 114.993a4.883 4.883 0 1 1 0-9.766 4.883 4.883 0 0 1 0 9.766zm0-9.238a4.355 4.355 0 1 0 0 8.71 4.355 4.355 0 0 0 0-8.71zM80.144 114.993a4.883 4.883 0 1 1 0-9.766 4.883 4.883 0 0 1 0 9.766zm0-9.238a4.355 4.355 0 1 0 0 8.71 4.355 4.355 0 0 0 0-8.71zM111.374 83.102a4.883 4.883 0 1 1 0-9.765 4.883 4.883 0 0 1 0 9.765zm0-9.237a4.354 4.354 0 1 0 0 8.71 4.354 4.354 0 0 0 0-8.71zM165.038 83.102a4.883 4.883 0 1 1 0-9.765 4.883 4.883 0 0 1 0 9.765zm0-9.237a4.354 4.354 0 1 0 0 8.71 4.354 4.354 0 0 0 0-8.71zM198.028 49.893a4.883 4.883 0 1 1 0-9.766 4.883 4.883 0 0 1 0 9.766zm0-9.238a4.355 4.355 0 1 0 0 8.71 4.355 4.355 0 0 0 0-8.71zM5.147 151.062a4.883 4.883 0 1 1 0-9.766 4.883 4.883 0 0 1 0 9.766zm0-9.238a4.355 4.355 0 1 0 0 8.71 4.355 4.355 0 0 0 0-8.71z"/>
        <path fill="#322AE3" d="M41.216 81.299a8.797 8.797 0 0 0-8.798 8.797c0 4.859 8.798 20.894 8.798 20.894s8.797-16.035 8.797-20.894a8.797 8.797 0 0 0-8.797-8.797zm0 13.416a4.619 4.619 0 1 1 0-9.237 4.619 4.619 0 0 1 0 9.237zM111.374 48.309a8.797 8.797 0 0 0-8.797 8.797c0 4.859 8.797 20.894 8.797 20.894s8.797-16.035 8.797-20.894a8.797 8.797 0 0 0-8.797-8.797zm0 13.416a4.619 4.619 0 1 1 0-9.237 4.619 4.619 0 0 1 0 9.237z"/>
        <path fill="#2F2E41" d="M164.307 187.798h119.772v1H164.307z"/>
        <path fill="#3F3D56" d="M263.142 20.128c-1.862 5.513-4.717 10.536-10.536 10.536-5.818 0-10.208-4.726-10.536-10.536-.419-7.423 4.583-10.567 10.536-10.536 7.033.036 12.746 3.994 10.536 10.536z"/>
        <path fill="#2F2E41" d="M242.07 19.296h20.795v26.34H242.07z"/>
        <path fill="#575A89" d="M263.476 38.92h1.769s4.323 5.503 2.358 12.97c-1.965 7.469-.393 8.844-.393 8.844s2.558 8.087-.193 20.272c-2.751 12.185 2.551 15.496 2.551 15.496l-4.913-9.826-2.751-25.942 1.572-21.814z"/>
        <path fill="#000" d="M263.476 39.566h1.769s4.323 5.503 2.358 12.971c-1.965 7.468-.393 8.844-.393 8.844s2.558 8.087-.193 20.272c-2.751 12.184 2.551 15.495 2.551 15.495l-4.913-9.826-2.751-25.941 1.572-21.815z" opacity=".1"/>
        <path fill="#FBBEBE" d="M257.285 29.388s-1.572 6.29-.786 6.29 3.538 3.34 3.538 3.34l1.768 6.485-1.375 4.717-4.717-.983-5.896-6.485-1.768-1.769-1.573-5.699s1.966-2.358.59-4.323c-1.376-1.966 10.22-1.573 10.22-1.573z"/>
        <path fill="#000" d="M257.285 29.388s-1.572 6.29-.786 6.29 3.538 3.34 3.538 3.34l1.768 6.485-1.375 4.717-4.717-.983-5.896-6.485-1.768-1.769-1.573-5.699s1.966-2.358.59-4.323c-1.376-1.966 10.22-1.573 10.22-1.573z" opacity=".1"/>
        <path fill="#FBBEBE" d="M209.726 46.88l-4.324-7.076s-4.667-10.326-8.008-6.592c-3.34 3.734 5.06 11.309 5.06 11.309l4.324 5.7 2.948-3.342zM267.112 108.392l-3.145 22.993s.393 1.77-3.537 8.254c-3.93 6.486-14.543 20.636-14.543 20.636l-3.145-5.896s3.734-18.67 10.22-22.6l-.786-28.3 14.936 4.913z"/>
        <path fill="#000" d="M267.112 108.392l-3.145 22.993s.393 1.77-3.537 8.254c-3.93 6.486-14.543 20.636-14.543 20.636l-3.145-5.896s3.734-18.67 10.22-22.6l-.786-28.3 14.936 4.913z" opacity=".1"/>
        <path fill="#2F2E41" d="M242.742 152.02l4.324 8.255s-3.538 10.023-2.162 11.005c1.376.983 3.145 9.826-.59 8.844-3.733-.983-6.681-4.913-6.681-5.503 0-.59 2.161-8.844.982-10.809-1.179-1.965-1.965-2.555-1.965-2.555l-2.948 4.913-.982-.59 4.913-8.253s.59-1.572 2.948-2.555l2.161-2.751z"/>
        <path fill="#3F3D56" d="M242.742 152.02l4.324 8.255s-3.538 10.023-2.162 11.005c1.376.983 3.145 9.826-.59 8.844-3.733-.983-6.681-4.913-6.681-5.503 0-.59 2.161-8.844.982-10.809-1.179-1.965-1.965-2.555-1.965-2.555l-2.948 4.913-.982-.59 4.913-8.253s.59-1.572 2.948-2.555l2.161-2.751z"/>
        <path fill="#FBBEBE" d="M252.221 105.13s1.527 21.735-1.814 27.435v28.3l-4.52.589s-9.128-14.983-5.788-29.722c3.341-14.74-3.449-28.253-3.449-28.253l15.571 1.65z"/>
        <circle cx="251.095" cy="25.949" r="8.254" fill="#FBBEBE"/>
        <path fill="#2EE2C4" d="M259.447 47.665l-8.254-10.416-4.717-3.144-1.965 2.555-5.503 1.572s-3.537.786-7.271 5.11c-3.734 4.323-10.416 6.878-10.416 6.878l-5.503-.982s-6.485-2.948-6.485-3.734c0-.787-5.7 5.306-4.324 7.664 1.376 2.358 4.324 5.306 5.896 6.878 1.572 1.573 2.162 6.093 11.792 4.717 9.63-1.376 13.167-6.092 13.167-6.092s1.769 9.04 6.878 10.809c5.11 1.768 21.815 2.948 21.815 2.948l3.537-11.792s3.93-5.11-1.375-12.578c0 0-.102-4.176-.673-6.956-.222-1.08-.514-1.95-.9-2.28-1.375-1.18-8.647-3.145-8.647-3.145s1.18 3.93 1.769 4.127c.59.197 1.965 6.879 1.18 7.861z"/>
        <path fill="#3F3D56" d="M233.014 106.328c9.897-.688 15.66.934 18.23 2.17.478.216.928.49 1.34.814.189.159.28.283.28.357 0 .59 13.56 1.769 18.473.59 4.913-1.18-3.341-26.531-5.503-28.693-2.162-2.162-.996-10.074-.996-10.074s-4.31-.931-5.49-.538c-1.178.393-7.27-.59-9.432-1.77-2.162-1.178-4.914-.392-6.682-.785-.79-.175-1.19.12-1.388.5a3.398 3.398 0 0 1-1.344 1.359c-4.172 2.403-7.521 19.022-10.043 28.21-2.75 10.022 2.555 7.86 2.555 7.86zM251.193 159.096l.786 4.323s4.127 5.896 2.948 10.81c0 0 .983 6.484 4.52 8.253 3.538 1.769.59 5.896-2.751 5.7-3.341-.197-6.486.196-6.879-.787-.393-.982-2.751-10.612-2.751-10.612l-.645 11.269-1.966.196.646-13.037s-1.573-2.948.59-7.861l-.546-7.542s5.458 1.253 6.048-.712z"/>
        <path fill="#000" d="M251.244 108.498c.478.216.928.49 1.34.814.104-1.858.706-13.09-.015-12.908l-1.325 12.094z" opacity=".1"/>
        <path fill="#3F3D56" d="M247.678 14.583s-.092-.509-3.667.832c-3.575 1.34-5.718 11.234-3.93 17.043.72 2.341.134 4.03-.822 5.21-3.59 4.433-2.177 11.09 3.051 13.369.148.064.298.128.452.19l2.234 1.341s-2.848-3.748-1.423-8.542a24.58 24.58 0 0 0 .444-12.584 45.242 45.242 0 0 0-.56-2.164c-1.788-6.257-.918-5.534 5.338-11.79 0 0 3.575 2.68 6.703 4.022 3.128 1.34 5.81 2.68 3.575 7.15-2.234 4.469-7.597 8.49-4.022 14.3 3.575 5.81 4.022 3.575 3.575 5.81l-.446 2.234 2.68-2.681-1.787 3.575s5.81 0 7.597-4.47l.894.895s3.575-6.257-3.128-12.066c0 0-2.234-1.34.894-5.81 3.128-4.469.725-14.077-3.297-15.864-4.022-1.788-14.355 0-14.355 0z"/>
        <circle cx="252.606" cy="7.651" r="4.159" fill="#3F3D56"/>
        <path fill="#2F2E41" d="M247.616 5.433a4.16 4.16 0 0 1 3.743-4.138 4.159 4.159 0 1 0 0 8.276 4.16 4.16 0 0 1-3.743-4.138z"/>
        <path fill="#322AE3" d="M198.028 16.639a8.797 8.797 0 0 0-8.798 8.797c0 4.859 8.798 20.894 8.798 20.894s8.797-16.035 8.797-20.894a8.797 8.797 0 0 0-8.797-8.797zm0 13.416a4.619 4.619 0 1 1 0-9.238 4.619 4.619 0 0 1 0 9.238z"/>
        <circle cx="127.109" cy="175.566" r="4.76" fill="#F1F1F1"/>
        <circle cx="156.725" cy="155.431" r="4.76" fill="#F1F1F1"/>
        <circle cx="120.1" cy="136.682" r="4.76" fill="#F1F1F1"/>
    </g>
</svg>
